<?xml version="1.0" encoding="utf-8"?>
<!-- Generator: Adobe Illustrator 23.0.1, SVG Export Plug-In . SVG Version: 6.00 Build 0)  -->
<svg version="1.1" id="Layer_1" xmlns="http://www.w3.org/2000/svg" xmlns:xlink="http://www.w3.org/1999/xlink" x="0px" y="0px"
	 viewBox="0 0 100 100" style="enable-background:new 0 0 100 100;" xml:space="preserve">
<style type="text/css">
	.st0{fill:#F9D6BF;}
	.st1{fill:#EFC1A8;}
	.st2{fill:#494970;}
	.st3{fill:#3A3A60;}
	.st4{fill:#E2E9F2;}
	.st5{fill:#C7D6E5;}
	.st6{fill:#5D5D84;}
	.st7{fill:#FAD964;}
	.st8{fill:#FAB941;}
	.st9{fill:#BC4C2E;}
	.st10{fill:#AB3829;}
	.st11{fill:#E6AC6D;}
	.st12{fill:#F5585C;}
	.st13{fill:#D13044;}
	.st14{fill:#CE8A4D;}
	.st15{fill:#AFBC31;}
	.st16{fill:#9FA519;}
</style>
<g>
	<path class="st0" d="M76.7,71.1c-0.3-1.3-0.5-2.6-0.4-3.9l0.9-9.4c0.3-3.8-0.3-7.6-2-11.1c-4.4-8.9-3.4-9.5-3.5-18.3
		c0-1.8-1.5-3.3-3.3-3.3s-3.3,1.5-3.3,3.3c0,35.8,0.1,33.2-0.2,34.3v4.7c0,4-3.2,7.2-7.2,7.2c-2.6,0-11.7,0-17.8,0
		c2.7,3.8,6.5,6.8,10.8,8.6c0,0,0,0,0.1,0c3.4,1.4,5.7,4.5,6.3,8c8.4-1,16-4.7,22-10.1L76.7,71.1z"/>
	<path class="st0" d="M28,25.3l-1-0.9c-1.5-1.4-3.9-1.3-5.4,0.2s-1.3,3.9,0.2,5.4l6.1,5.7V25.3z"/>
	<path class="st1" d="M23.9,27.1c-0.9-0.9-1.3-2.1-1.2-3.3c-0.4,0.2-0.7,0.5-1,0.8c-1.4,1.5-1.3,3.9,0.2,5.4l6.1,5.7v-4.7L23.9,27.1
		z"/>
	<path class="st2" d="M58.1,8.8c-2.5,0-20.7,0-23.1,0c-4,0-7.2,3.2-7.2,7.2v51.5c0,4,3.2,7.2,7.2,7.2h23.1c4,0,7.2-3.2,7.2-7.2V16
		C65.3,12.1,62.1,8.8,58.1,8.8z"/>
	<path class="st3" d="M36.6,67.5V16c0-4,3.2-7.2,7.2-7.2c-4.1,0-7.8,0-8.8,0c-4,0-7.2,3.2-7.2,7.2v51.5c0,4,3.2,7.2,7.2,7.2h8.8
		C39.8,74.7,36.6,71.5,36.6,67.5z"/>
	<path class="st4" d="M61.3,67.5c0,1.8-1.4,3.2-3.2,3.2c-2.5,0-20.6,0-23.1,0c-1.8,0-3.2-1.4-3.2-3.2c0-1.6,0-49.8,0-51.5
		c0-1.8,1.4-3.2,3.2-3.2h1.8c0.7,0,1.2,0.5,1.2,1.2v0.8c0,1,0.8,1.9,1.9,1.9h13.5c1,0,1.9-0.8,1.9-1.9V14c0-0.7,0.5-1.2,1.2-1.2h1.8
		c1.8,0,3.2,1.4,3.2,3.2L61.3,67.5L61.3,67.5z"/>
	<path class="st5" d="M36.6,67.5V16c0-1.1,0.2-2.1,0.7-3.1c-0.2-0.1-0.4-0.1-0.5-0.1H35c-1.8,0-3.2,1.4-3.2,3.2v51.5
		c0,1.8,1.4,3.2,3.2,3.2h2.4C36.9,69.8,36.6,68.7,36.6,67.5z"/>
	<path class="st6" d="M50.6,14h-4c-0.6,0-1.2-0.5-1.2-1.2s0.5-1.2,1.2-1.2h4c0.6,0,1.2,0.5,1.2,1.2S51.2,14,50.6,14z"/>
	<path class="st6" d="M42.6,14c-0.6,0-1.2-0.5-1.2-1.2c0-0.6,0.4-1,0.9-1.1c0.1,0,0.3,0,0.5,0c0.5,0.1,0.9,0.6,0.9,1.1
		C43.7,13.4,43.2,14,42.6,14z"/>
	<path class="st0" d="M33.5,45.3c-1.2,1.3-3.4,1.4-4.7,0.2l-5.6-5.2c-1.3-1.2-1.4-3.4-0.2-4.7c1.2-1.3,3.4-1.4,4.7-0.2l5.6,5.2
		C34.7,41.8,34.8,43.9,33.5,45.3z"/>
	<path class="st1" d="M31.1,43.1L25.5,38c-0.9-0.9-1.3-2.1-1-3.3c-0.6,0.2-1.1,0.5-1.5,0.9c-1.2,1.3-1.2,3.5,0.2,4.7l5.6,5.2
		c1.3,1.2,3.5,1.2,4.7-0.2c0.4-0.4,0.6-0.9,0.8-1.4C33.2,44.2,32,43.9,31.1,43.1z"/>
	<path class="st1" d="M76.3,69.2C70.2,79.3,58.2,84,47,81.1c1.3,0.8,2.6,1.5,4,2.1c0,0,0,0,0.1,0c3.4,1.4,5.7,4.5,6.3,8
		c8.4-1,16-4.7,22-10.1l-2.7-9.9C76.5,70.5,76.4,69.8,76.3,69.2z"/>
	<path class="st0" d="M33.5,63.4c-1.2,1.3-3.4,1.4-4.7,0.2l-5.6-5.2c-1.3-1.2-1.4-3.4-0.2-4.7c1.2-1.3,3.4-1.4,4.7-0.2l5.6,5.2
		C34.7,60,34.8,62.1,33.5,63.4z"/>
	<path class="st1" d="M31.1,61.3l-5.6-5.2c-0.9-0.9-1.3-2.1-1-3.3c-0.6,0.2-1.1,0.5-1.5,0.9c-1.2,1.3-1.2,3.5,0.2,4.7l5.6,5.2
		c1.3,1.2,3.5,1.2,4.7-0.2c0.4-0.4,0.6-0.9,0.8-1.4C33.2,62.3,32,62.1,31.1,61.3z"/>
	<path class="st0" d="M33.5,54.3c-1.2,1.3-3.4,1.4-4.7,0.2l-5.6-5.2c-1.3-1.2-1.4-3.4-0.2-4.7c1.2-1.3,3.4-1.4,4.7-0.2l5.6,5.2
		C34.7,50.9,34.8,53,33.5,54.3z"/>
	<path class="st1" d="M31.1,52.2L25.5,47c-0.9-0.9-1.3-2.1-1-3.3c-0.6,0.2-1.1,0.5-1.5,0.9c-1.2,1.3-1.2,3.5,0.2,4.7l5.6,5.2
		c1.3,1.2,3.5,1.2,4.7-0.2c0.4-0.4,0.6-0.9,0.8-1.4C33.2,53.3,32,53,31.1,52.2z"/>
	<g>
		<path class="st5" d="M43,66.3c-0.7,0-1.2-0.6-1.2-1.2c0-0.7,0.5-1.2,1.2-1.2c0.7,0,1.2,0.5,1.2,1.2C44.2,65.8,43.6,66.3,43,66.3z"
			/>
		<path class="st5" d="M46.5,66.3c-0.7,0-1.2-0.5-1.2-1.2c0-0.6,0.4-1.1,1-1.2c0.7-0.1,1.5,0.4,1.5,1.2
			C47.8,65.8,47.2,66.3,46.5,66.3z"/>
		<path class="st5" d="M50.1,66.3c-0.7,0-1.2-0.5-1.2-1.2c0-0.8,0.7-1.3,1.5-1.2c0.6,0.1,1,0.6,1,1.2C51.4,65.8,50.8,66.3,50.1,66.3
			z"/>
	</g>
	<path class="st7" d="M58.1,12.8h-1.8c-0.7,0-1.2,0.5-1.2,1.2v0.8c0,1-0.8,1.9-1.9,1.9c-2.8,0-10.7,0-13.5,0c-1,0-1.9-0.8-1.9-1.9
		V14c0-0.7-0.5-1.2-1.2-1.2H35c-1.8,0-3.2,1.4-3.2,3.2v5.5c4.4-1.2,11.1-1.8,18.6,1.9c3.6,1.8,7.3,2.8,10.9,3c0-3.6,0-8.1,0-10.4
		C61.3,14.3,59.9,12.8,58.1,12.8z"/>
	<path class="st8" d="M48.9,22.7c0.5,0.2,1,0.4,1.5,0.7c3.6,1.8,7.3,2.8,10.9,3c0-2.4,0-5.1,0-7.3c-3.6,0.1-7.3,1.2-10.9,3
		C49.9,22.3,49.4,22.5,48.9,22.7z"/>
	<path class="st8" d="M36.6,16c0-1.1,0.2-2.1,0.7-3.1c-0.2-0.1-0.4-0.1-0.5-0.1H35c-1.8,0-3.2,1.4-3.2,3.2v5.5
		c1.4-0.4,3-0.7,4.8-0.8L36.6,16L36.6,16z"/>
	<path class="st9" d="M56.7,37H36.4c-1.2,0-2.1,1-2.1,2.1c0,1.2,1,2.1,2.1,2.1h20.3c1.2,0,2.1-1,2.1-2.1C58.9,37.9,57.9,37,56.7,37z
		"/>
	<path class="st10" d="M41.4,39.1c0-1.2,1-2.1,2.1-2.1h-7.2c-1.2,0-2.1,1-2.1,2.1c0,1.2,1,2.1,2.1,2.1h7.2
		C42.4,41.3,41.4,40.3,41.4,39.1z"/>
	<path class="st11" d="M56.7,44.5H36.4c-0.5,0-0.9,0.4-0.9,0.9v1.5c0,2.3,1.8,4.1,4.1,4.1h13.8c2.3,0,4.1-1.8,4.1-4.1v-1.5
		C57.6,44.9,57.2,44.5,56.7,44.5z"/>
	<path class="st12" d="M56.7,44.5H36.4c-0.5,0-0.8-0.4-0.8-0.8v-1.6c0-0.5,0.4-0.8,0.8-0.8h20.4c0.5,0,0.8,0.4,0.8,0.8v1.6
		C57.6,44.2,57.2,44.5,56.7,44.5z"/>
	<path class="st13" d="M42.3,43.7v-1.6c0-0.5,0.4-0.8,0.8-0.8h-6.7c-0.5,0-0.8,0.4-0.8,0.8v1.6c0,0.5,0.4,0.8,0.8,0.8h6.7
		C42.6,44.5,42.3,44.2,42.3,43.7z"/>
	<path class="st11" d="M35.5,33.7c0-3.2,2.6-5.7,5.7-5.7h10.6c3.2,0,5.7,2.6,5.7,5.7c0,0.4-0.4,0.8-0.8,0.8H36.3
		C35.9,34.4,35.5,34.1,35.5,33.7z"/>
	<path class="st14" d="M42.2,46.9v-1.5c0-0.5,0.4-0.9,0.9-0.9h-6.7c-0.5,0-0.9,0.4-0.9,0.9v1.5c0,2.3,1.8,4.1,4.1,4.1h6.7
		C44.1,51,42.2,49.2,42.2,46.9z"/>
	<path class="st14" d="M42.2,33.7c0-3.2,2.6-5.7,5.7-5.7h-6.7c-3.2,0-5.7,2.6-5.7,5.7c0,0.4,0.4,0.8,0.8,0.8H43
		C42.6,34.4,42.2,34.1,42.2,33.7z"/>
	<path class="st15" d="M56.7,34.4H36.4c-0.1,0.3-0.2,0.6-0.2,0.9c-0.1,2.3,2.4,3.6,4.2,2.3c0.2-0.2,0.5-0.2,0.7,0
		c0.9,0.7,2.2,0.7,3.1,0c0.2-0.2,0.5-0.2,0.7,0c0.9,0.7,2.2,0.7,3.2,0c0.2-0.2,0.5-0.2,0.7,0c0.9,0.7,2.2,0.7,3.1,0
		c0.2-0.2,0.5-0.2,0.7,0c1.8,1.3,4.3,0,4.2-2.3C56.9,35,56.8,34.7,56.7,34.4z"/>
	<path class="st16" d="M42.5,35.3c0-0.3,0.1-0.6,0.2-0.9h-6.4c-0.1,0.3-0.2,0.6-0.2,0.9c-0.1,2.3,2.4,3.6,4.2,2.3
		c0.2-0.2,0.5-0.2,0.7,0c0.8,0.6,1.9,0.7,2.8,0.2C43.1,37.3,42.5,36.5,42.5,35.3z"/>
	<path class="st7" d="M38,44.5l3.7,3.7c0.6,0.6,1.7,0.6,2.3,0l3.7-3.7H38z"/>
	<path class="st8" d="M42.6,48.7c-0.2-0.5-0.4-1.1-0.4-1.7v-1.5c0-0.5,0.4-0.9,0.9-0.9H38l3.7,3.7C41.9,48.5,42.3,48.6,42.6,48.7z"
		/>
	<path class="st15" d="M49.5,59h-5.8c-1.2,0-2.2-1-2.2-2.2c0-1.2,1-2.2,2.2-2.2h5.8c1.2,0,2.2,1,2.2,2.2C51.6,58.1,50.7,59,49.5,59z
		"/>
	<path class="st16" d="M46.5,56.8c0-1.2,1-2.2,2.2-2.2h-5.1c-1.2,0-2.2,1-2.2,2.2c0,1.2,1,2.2,2.2,2.2h5.1
		C47.5,59,46.5,58.1,46.5,56.8z"/>
</g>
</svg>
