<?xml version="1.0" encoding="utf-8"?>
<!-- Generator: Adobe Illustrator 23.0.1, SVG Export Plug-In . SVG Version: 6.00 Build 0)  -->
<svg version="1.1" id="Layer_1" xmlns="http://www.w3.org/2000/svg" xmlns:xlink="http://www.w3.org/1999/xlink" x="0px" y="0px"
	 viewBox="0 0 100 100" style="enable-background:new 0 0 100 100;" xml:space="preserve">
<style type="text/css">
	.st0{fill:#9BAAAB;}
	.st1{fill:#687F82;}
	.st2{fill:#FD6A33;}
	.st3{fill:#F0353D;}
	.st4{fill:#FFBA7E;}
	.st5{fill:#FF8C29;}
	.st6{fill:#CDD4D5;}
	.st7{fill:#4ACFD9;}
	.st8{fill:#0295AA;}
	.st9{fill:#365558;}
	.st10{fill:#FFFFFF;}
</style>
<g>
	<g>
		<path class="st0" d="M28.7,23.2h-9.6c-0.7,0-1.3,0.6-1.3,1.3v6.9c0,0.7,0.6,1.3,1.3,1.3h9.6c0.7,0,1.3-0.6,1.3-1.3v-6.9
			C30,23.7,29.4,23.2,28.7,23.2z"/>
		<path class="st0" d="M63.6,31.1l-2.1-13.1c-0.1-0.6-0.6-1.1-1.3-1.1H39.7c-0.6,0-1.2,0.5-1.3,1.1l-2.1,13.1c-0.1,0.4,0,0.8,0.3,1
			c0.2,0.3,0.6,0.5,1,0.5h24.7c0.4,0,0.7-0.2,1-0.5C63.6,31.9,63.7,31.5,63.6,31.1z"/>
	</g>
	<path class="st1" d="M39.7,17c-0.6,0-1.2,0.5-1.3,1.1l-2.1,13.1c-0.1,0.4,0,0.8,0.3,1c0.2,0.3,0.6,0.5,1,0.5H50V17H39.7z"/>
	<path class="st2" d="M89.2,30H10.8c-0.7,0-1.3,0.6-1.3,1.3v58.4c0,0.7,0.6,1.3,1.3,1.3h78.3c0.7,0,1.3-0.6,1.3-1.3V31.3
		C90.4,30.6,89.9,30,89.2,30z"/>
	<path class="st3" d="M10.8,30c-0.7,0-1.3,0.6-1.3,1.3v58.4c0,0.7,0.6,1.3,1.3,1.3H50V30H10.8z"/>
	<path class="st4" d="M89.2,30H10.8c-0.7,0-1.3,0.6-1.3,1.3V47h80.9V31.3C90.4,30.6,89.9,30,89.2,30z"/>
	<path class="st5" d="M10.8,30c-0.7,0-1.3,0.6-1.3,1.3V47H50V30H10.8z"/>
	<path class="st6" d="M34.2,69.9c-3.4,0-6.1,2.7-6.1,6.1s2.7,6.1,6.1,6.1s6.1-2.7,6.1-6.1S37.6,69.9,34.2,69.9z"/>
	<path class="st7" d="M50,39.7c-11.7,0-21.2,9.5-21.2,21.2S38.3,82.1,50,82.1s21.2-9.5,21.2-21.2S61.7,39.7,50,39.7z"/>
	<path class="st8" d="M28.8,60.9c0,11.7,9.5,21.2,21.2,21.2V39.7C38.3,39.7,28.8,49.2,28.8,60.9z"/>
	<path class="st0" d="M50,46.5c-7.9,0-14.3,6.4-14.3,14.3S42.1,75.2,50,75.2s14.3-6.4,14.3-14.3S57.9,46.5,50,46.5z"/>
	<path class="st9" d="M35.7,60.9c0,7.9,6.4,14.3,14.3,14.3V46.5C42.1,46.5,35.7,53,35.7,60.9z"/>
	<g>
		<path class="st10" d="M50,70.1c-0.7,0-1.3-0.6-1.3-1.3s0.6-1.3,1.3-1.3c1.8,0,3.5-0.7,4.7-2c0.5-0.5,1.3-0.5,1.8,0s0.5,1.3,0,1.8
			C54.8,69.1,52.5,70.1,50,70.1z"/>
		<path class="st10" d="M57.6,64.2c-0.1,0-0.2,0-0.3,0c-0.7-0.2-1.1-0.9-0.9-1.6c0.2-0.6,0.2-1.1,0.2-1.7c0-3.6-3-6.6-6.6-6.6
			c-0.7,0-1.3-0.6-1.3-1.3c0-0.7,0.6-1.3,1.3-1.3c5.1,0,9.2,4.1,9.2,9.2c0,0.8-0.1,1.6-0.3,2.4C58.7,63.8,58.2,64.2,57.6,64.2z"/>
		<polygon class="st10" points="41.7,27.9 42.6,21.7 57.4,21.7 58.3,27.9 		"/>
		<path class="st10" d="M81.6,84.1c-0.7,0-1.3-0.6-1.3-1.3V51.9c0-0.7,0.6-1.3,1.3-1.3s1.3,0.6,1.3,1.3v30.9
			C82.9,83.6,82.3,84.1,81.6,84.1z"/>
		<path class="st10" d="M81.6,42.2c-0.7,0-1.3-0.6-1.3-1.3v-5.5c0-0.7,0.6-1.3,1.3-1.3s1.3,0.6,1.3,1.3v5.5
			C82.9,41.7,82.3,42.2,81.6,42.2z"/>
	</g>
	<g>
		<path class="st3" d="M72.6,19.3h-5.3c-0.7,0-1.3-0.6-1.3-1.3c0-0.7,0.6-1.3,1.3-1.3h5.3c0.7,0,1.3,0.6,1.3,1.3
			C73.9,18.8,73.3,19.3,72.6,19.3z"/>
		<path class="st3" d="M69.2,27.1c-0.3,0-0.7-0.1-0.9-0.4l-3.4-3.4c-0.5-0.5-0.5-1.3,0-1.8c0.5-0.5,1.3-0.5,1.8,0l3.4,3.4
			c0.5,0.5,0.5,1.3,0,1.8C69.9,27,69.5,27.1,69.2,27.1z"/>
		<path class="st3" d="M65.8,15c-0.3,0-0.7-0.1-0.9-0.4c-0.5-0.5-0.5-1.3,0-1.8l3.4-3.4c0.5-0.5,1.3-0.5,1.8,0
			c0.5,0.5,0.5,1.3,0,1.8l-3.4,3.4C66.5,14.8,66.2,15,65.8,15z"/>
	</g>
</g>
</svg>
