<?xml version="1.0" encoding="utf-8"?>
<!-- Generator: Adobe Illustrator 23.0.1, SVG Export Plug-In . SVG Version: 6.00 Build 0)  -->
<svg version="1.1" id="Capa_1" xmlns="http://www.w3.org/2000/svg" xmlns:xlink="http://www.w3.org/1999/xlink" x="0px" y="0px"
	 viewBox="0 0 100 100" style="enable-background:new 0 0 100 100;" xml:space="preserve">
<style type="text/css">
	.st0{fill:#FFA754;}
	.st1{fill:#E18F4E;}
	.st2{fill:#A45E43;}
	.st3{fill:#FF4128;}
	.st4{fill:#FF6337;}
	.st5{fill:#C27749;}
	.st6{fill:#85453D;}
</style>
<g>
	<path class="st0" d="M42.7,54.1c-3.8,0-6.9-3.1-6.9-6.9s3.1-6.9,6.9-6.9H50v-2.4h-7.3c-5.2,0-9.3,4.2-9.3,9.3s4.2,9.3,9.3,9.3H50
		v-2.4H42.7z"/>
	<path class="st1" d="M57.3,37.9H50v2.4h7.3c3.8,0,6.9,3.1,6.9,6.9s-3.1,6.9-6.9,6.9H50v2.4h7.3c5.2,0,9.3-4.2,9.3-9.3
		S62.5,37.9,57.3,37.9z"/>
	<path class="st0" d="M43.9,55.3v32l-4,1.3c-0.6,0.2-1,0.9-0.8,1.5c0.2,0.6,0.9,1,1.5,0.8l4.9-1.6c0.5-0.2,0.8-0.6,0.8-1.2V55.3
		H43.9z"/>
	<path class="st1" d="M56.1,55.3v32l4,1.3c0.6,0.2,1,0.9,0.8,1.5c-0.2,0.6-0.9,1-1.5,0.8l-4.9-1.6c-0.5-0.2-0.8-0.6-0.8-1.2V55.3
		H56.1z"/>
	<path class="st2" d="M55.6,14c0.5-0.9,0.3-2.1-0.4-2.8c-0.8-0.8-1.9-0.9-2.8-0.4C52,9.7,51.1,9,50,9s-2,0.7-2.3,1.7
		c-0.9-0.5-2.1-0.3-2.8,0.4c-0.8,0.8-0.9,1.9-0.4,2.8c-1,0.3-1.7,1.2-1.7,2.3v7.3h14.6c0,0,0-6,0-7.3C57.3,15.2,56.6,14.3,55.6,14z"
		/>
	<path class="st3" d="M54.1,35.8h-1.6l-3.3,14l3.3,14l2.4-1.2l2.4,1.2V39.1C57.3,37.3,55.9,35.8,54.1,35.8z"/>
	<path class="st4" d="M42.7,50.4v13.4l2.4-1.2l4.9,2.4l2.4-1.2V44.8L42.7,50.4z"/>
	<path class="st0" d="M45.9,35.8c-1.8,0-3.3,1.5-3.3,3.3v11.4h4.1c3.1,0,5.7-2.5,5.7-5.7v-8.9H45.9z"/>
	<circle class="st5" cx="47.6" cy="41.9" r="1.2"/>
	<path class="st1" d="M50,16.4v16.3l7.3-7.3v-1.6C57.3,19.6,54,16.4,50,16.4z"/>
	<path class="st0" d="M50,16.4c-4,0-7.3,3.3-7.3,7.3v1.6l9.8,7.3v-8.9C52.4,19.6,51.3,16.4,50,16.4z"/>
	<path class="st6" d="M52.4,25.3L50,35.9c4,0,7.3-3.3,7.3-7.3v-3.3H52.4z"/>
	<path class="st2" d="M52.4,25.3v3.3c0,4-1.1,7.3-2.4,7.3c-4,0-7.3-3.3-7.3-7.3v-3.3h4.9c0.4-1,1.3-1.6,2.4-1.6S52,24.3,52.4,25.3z"
		/>
</g>
</svg>
