<svg xmlns="http://www.w3.org/2000/svg" viewBox="0 0 1000 400" width="1000" height="400" preserveAspectRatio="xMidYMid meet" style="width: 100%; height: 100%; transform: translate3d(0px, 0px, 0px);"><defs><clipPath id="__lottie_element_62"><rect width="1000" height="400" x="0" y="0"></rect></clipPath><mask id="__lottie_element_66" mask-type="alpha"><g transform="matrix(1,0,0,1,500,200)" opacity="1" style="display: block;"><g opacity="1" transform="matrix(1,0,0,1,0,0)"><path fill="rgb(0,0,0)" fill-opacity="1" d=" M-349.25,-106.25 C-349.25,-106.25 -436,45.75 -436,45.75 C-436,45.75 -404.5,102.75 -404.5,102.75 C-404.5,102.75 -340.25,107.25 -340.25,107.25 C-340.25,107.25 -250.75,-47.5 -250.75,-47.5 C-250.75,-47.5 -284.25,-102.25 -284.25,-102.25 C-284.25,-102.25 -349.25,-106.25 -349.25,-106.25z"></path></g></g></mask><mask id="__lottie_element_72" mask-type="alpha"><g transform="matrix(1,0,0,1,500,200)" opacity="1" style="display: block;"><g opacity="1" transform="matrix(1,0,0,1,0,0)"><path fill="rgb(0,0,0)" fill-opacity="1" d=" M-349.25,-106.25 C-349.25,-106.25 -436,45.75 -436,45.75 C-436,45.75 -404.5,102.75 -404.5,102.75 C-404.5,102.75 -340.25,107.25 -340.25,107.25 C-340.25,107.25 -250.75,-47.5 -250.75,-47.5 C-250.75,-47.5 -284.25,-102.25 -284.25,-102.25 C-284.25,-102.25 -349.25,-106.25 -349.25,-106.25z"></path></g></g></mask><mask id="__lottie_element_78" mask-type="alpha"><g transform="matrix(1,0,0,1,500,200)" opacity="1" style="display: block;"><g opacity="1" transform="matrix(1,0,0,1,0,0)"><path fill="rgb(0,0,0)" fill-opacity="1" d=" M-349.25,-106.25 C-349.25,-106.25 -436,45.75 -436,45.75 C-436,45.75 -404.5,102.75 -404.5,102.75 C-404.5,102.75 -340.25,107.25 -340.25,107.25 C-340.25,107.25 -250.75,-47.5 -250.75,-47.5 C-250.75,-47.5 -284.25,-102.25 -284.25,-102.25 C-284.25,-102.25 -349.25,-106.25 -349.25,-106.25z"></path></g></g></mask></defs><g clip-path="url(#__lottie_element_62)"><g transform="matrix(1,0,0,1,39.40100860595703,97.64400482177734)" opacity="1" style="display: block;"><g opacity="1" transform="matrix(1,0,0,1,37.69900131225586,56.944000244140625)"><path fill="rgb(43,90,220)" fill-opacity="1" d=" M35.632999420166016,-39.94300079345703 C35.632999420166016,-39.94300079345703 35.638999938964844,-39.96099853515625 35.638999938964844,-39.96099853515625 C37.141998291015625,-42.569000244140625 37.44900131225586,-45.547000885009766 36.72600173950195,-48.24700164794922 C36.00199890136719,-50.948001861572266 34.25199890136719,-53.374000549316406 31.641000747680664,-54.88199996948242 C31.641000747680664,-54.88199996948242 31.641000747680664,-54.88800048828125 31.641000747680664,-54.88800048828125 C29.03700065612793,-56.39099884033203 26.062999725341797,-56.694000244140625 23.363000869750977,-55.970001220703125 C20.663000106811523,-55.24599838256836 18.239999771118164,-53.49599838256836 16.73699951171875,-50.88800048828125 C16.73699951171875,-50.88800048828125 -35.63600158691406,39.94599914550781 -35.63600158691406,39.94599914550781 C-35.63600158691406,39.94599914550781 -35.64099884033203,39.9640007019043 -35.64099884033203,39.9640007019043 C-37.14500045776367,42.571998596191406 -37.44900131225586,45.54999923706055 -36.724998474121094,48.25 C-36.005001068115234,50.95100021362305 -34.250999450683594,53.37699890136719 -31.643999099731445,54.88199996948242 C-31.643999099731445,54.88199996948242 -31.641000747680664,54.88199996948242 -31.641000747680664,54.88199996948242 C-29.035999298095703,56.38800048828125 -26.062000274658203,56.694000244140625 -23.365999221801758,55.97100067138672 C-20.66900062561035,55.249000549316406 -18.2450008392334,53.49300003051758 -16.73900032043457,50.87900161743164 C-16.73900032043457,50.87900161743164 -16.736000061035156,50.88199996948242 -16.736000061035156,50.88199996948242 C-16.736000061035156,50.88199996948242 35.632999420166016,-39.94300079345703 35.632999420166016,-39.94300079345703z"></path></g><g opacity="1" transform="matrix(1,0,0,1,194.9530029296875,147.8560028076172)"><path fill="rgb(43,90,220)" fill-opacity="1" d=" M23.363000869750977,-55.97100067138672 C20.666000366210938,-55.24599838256836 18.243000030517578,-53.49300003051758 16.739999771118164,-50.88199996948242 C16.739999771118164,-50.88199996948242 -35.63800048828125,39.96099853515625 -35.63800048828125,39.96099853515625 C-35.63800048828125,39.96099853515625 -35.64400100708008,39.96099853515625 -35.64400100708008,39.96099853515625 C-37.14500045776367,42.56800079345703 -37.44900131225586,45.54600143432617 -36.724998474121094,48.25 C-36.00199890136719,50.946998596191406 -34.250999450683594,53.374000549316406 -31.641000747680664,54.88399887084961 C-31.641000747680664,54.88399887084961 -31.643999099731445,54.887001037597656 -31.643999099731445,54.887001037597656 C-29.038999557495117,56.38999938964844 -26.065000534057617,56.694000244140625 -23.365999221801758,55.96900177001953 C-20.66900062561035,55.249000549316406 -18.2450008392334,53.49300003051758 -16.739999771118164,50.88199996948242 C-16.739999771118164,50.88199996948242 35.638999938964844,-39.959999084472656 35.638999938964844,-39.959999084472656 C35.638999938964844,-39.959999084472656 35.641998291015625,-39.95800018310547 35.641998291015625,-39.95800018310547 C37.14500045776367,-42.56700134277344 37.44900131225586,-45.547000885009766 36.72600173950195,-48.250999450683594 C36.007999420166016,-50.93600082397461 34.27899932861328,-53.34400177001953 31.707000732421875,-54.85200119018555 C31.707000732421875,-54.85200119018555 31.641000747680664,-54.8849983215332 31.641000747680664,-54.8849983215332 C29.034000396728516,-56.38999938964844 26.059999465942383,-56.69499969482422 23.363000869750977,-55.97100067138672z"></path></g></g><g mask="url(#__lottie_element_78)" style="display: block;"><g transform="matrix(1,0,0,1,65.52799987792969,97.40599060058594)" opacity="1"><g opacity="1" transform="matrix(1,0,0,1,0,0)"><g opacity="1" transform="matrix(1,0,0,1,86.30400085449219,18.47599983215332)"><path fill="rgb(43,90,220)" fill-opacity="1" d=" M13.484999656677246,-1.527999997138977 C14.970000267028809,-4.126999855041504 15.267999649047852,-7.0920000076293945 14.550999641418457,-9.782999992370605 C13.82699966430664,-12.484000205993652 12.076000213623047,-14.91100025177002 9.46500015258789,-16.420000076293945 C9.46500015258789,-16.420000076293945 9.437000274658203,-16.44099998474121 9.437000274658203,-16.44099998474121 C6.8379998207092285,-17.92799949645996 3.878999948501587,-18.225000381469727 1.187999963760376,-17.506000518798828 C-1.5089999437332153,-16.781999588012695 -3.931999921798706,-15.027000427246094 -5.438000202178955,-12.416000366210938 C-5.438000202178955,-12.416000366210938 -13.460000038146973,1.49399995803833 -13.460000038146973,1.49399995803833 C-13.460000038146973,1.49399995803833 -13.46399974822998,1.4930000305175781 -13.46399974822998,1.4930000305175781 C-14.96500015258789,4.099999904632568 -15.267000198364258,7.078000068664551 -14.543999671936035,9.781999588012695 C-13.821000099182129,12.484999656677246 -12.069999694824219,14.90999984741211 -9.468999862670898,16.413000106811523 C-9.468999862670898,16.413000106811523 -9.465999603271484,16.413000106811523 -9.465999603271484,16.413000106811523 C-6.861000061035156,17.917999267578125 -3.884000062942505,18.22599983215332 -1.1820000410079956,17.50200080871582 C1.5190000534057617,16.777999877929688 3.940999984741211,15.027999877929688 5.440999984741211,12.42300033569336 C5.440999984741211,12.42300033569336 5.447999954223633,12.413000106811523 5.447999954223633,12.413000106811523 C5.447999954223633,12.413000106811523 5.445000171661377,12.41100025177002 5.445000171661377,12.41100025177002 C5.445000171661377,12.41100025177002 13.467000007629395,-1.5010000467300415 13.467000007629395,-1.5010000467300415 C13.467000007629395,-1.5010000467300415 13.484999656677246,-1.527999997138977 13.484999656677246,-1.527999997138977z"></path></g><g opacity="1" transform="matrix(1,0,0,1,15.515999794006348,141.27200317382812)"><path fill="rgb(43,90,220)" fill-opacity="1" d=" M13.456000328063965,-1.5099999904632568 C13.456000328063965,-1.5099999904632568 13.456000328063965,-1.5099999904632568 13.456000328063965,-1.5099999904632568 C14.958999633789062,-4.118000030517578 15.265999794006348,-7.0960001945495605 14.543000221252441,-9.798999786376953 C13.869999885559082,-12.317999839782715 12.300999641418457,-14.595000267028809 9.97700023651123,-16.113000869750977 C9.97700023651123,-16.113000869750977 9.182000160217285,-16.591999053955078 9.182000160217285,-16.591999053955078 C6.644999980926514,-17.959999084472656 3.7880001068115234,-18.216999053955078 1.1829999685287476,-17.520000457763672 C-1.5169999599456787,-16.795000076293945 -3.940000057220459,-15.041999816894531 -5.440000057220459,-12.437999725341797 C-5.440000057220459,-12.437999725341797 -5.446000099182129,-12.430999755859375 -5.446000099182129,-12.430999755859375 C-5.446000099182129,-12.430999755859375 -5.440000057220459,-12.428000450134277 -5.440000057220459,-12.428000450134277 C-5.440000057220459,-12.428000450134277 -13.460000038146973,1.4819999933242798 -13.460000038146973,1.4819999933242798 C-14.961999893188477,4.091000080108643 -15.265999794006348,7.067999839782715 -14.545999526977539,9.769000053405762 C-13.826000213623047,12.468999862670898 -12.071999549865723,14.895999908447266 -9.461000442504883,16.40399932861328 C-9.461000442504883,16.40399932861328 -9.46500015258789,16.406999588012695 -9.46500015258789,16.406999588012695 C-6.860000133514404,17.909000396728516 -3.885999917984009,18.216999053955078 -1.187000036239624,17.48900032043457 C1.5110000371932983,16.767000198364258 3.934000015258789,15.01200008392334 5.436999797821045,12.39799976348877 C5.436999797821045,12.39799976348877 13.456000328063965,-1.5099999904632568 13.456000328063965,-1.5099999904632568z"></path></g><g opacity="1" transform="matrix(1,0,0,1,50.904998779296875,79.86399841308594)"><path fill="rgb(12,159,218)" fill-opacity="1" d=" M7.078999996185303,9.58899974822998 C7.078999996185303,9.58899974822998 13.79800033569336,-2.062000036239624 13.79800033569336,-2.062000036239624 C13.79800033569336,-2.062000036239624 13.79800033569336,-2.071000099182129 13.79800033569336,-2.071000099182129 C13.79800033569336,-2.071000099182129 18.966999053955078,-11.039999961853027 18.966999053955078,-11.039999961853027 C18.966999053955078,-11.039999961853027 18.97100067138672,-11.036999702453613 18.97100067138672,-11.036999702453613 C20.472000122070312,-13.645000457763672 20.77400016784668,-16.62299919128418 20.051000595092773,-19.32699966430664 C19.327999114990234,-22.030000686645508 17.57699966430664,-24.45599937438965 14.975000381469727,-25.961999893188477 C14.975000381469727,-25.961999893188477 14.970999717712402,-25.968000411987305 14.970999717712402,-25.968000411987305 C12.366000175476074,-27.469999313354492 9.387999534606934,-27.777000427246094 6.688000202178955,-27.05299949645996 C3.98799991607666,-26.327999114990234 1.565999984741211,-24.576000213623047 0.06599999964237213,-21.972999572753906 C0.06599999964237213,-21.972999572753906 0.05900000035762787,-21.96500015258789 0.05900000035762787,-21.96500015258789 C0.05900000035762787,-21.96500015258789 0.06599999964237213,-21.961999893188477 0.06599999964237213,-21.961999893188477 C0.06599999964237213,-21.961999893188477 -5.105000019073486,-12.993000030517578 -5.105000019073486,-12.993000030517578 C-5.105000019073486,-12.993000030517578 -11.824000358581543,-1.340999960899353 -11.824000358581543,-1.340999960899353 C-11.824000358581543,-1.340999960899353 -11.829000473022461,-1.343999981880188 -11.829000473022461,-1.343999981880188 C-11.829000473022461,-1.343999981880188 -18.964000701904297,11.031999588012695 -18.964000701904297,11.031999588012695 C-18.964000701904297,11.031999588012695 -18.964000701904297,11.041000366210938 -18.964000701904297,11.041000366210938 C-20.466999053955078,13.64900016784668 -20.77400016784668,16.62700080871582 -20.051000595092773,19.329999923706055 C-19.32699966430664,22.034000396728516 -17.577999114990234,24.459999084472656 -14.97700023651123,25.96500015258789 C-14.97700023651123,25.96500015258789 -14.972999572753906,25.96500015258789 -14.972999572753906,25.96500015258789 C-12.369000434875488,27.47100067138672 -9.392000198364258,27.777000427246094 -6.689000129699707,27.05299949645996 C-3.989000082015991,26.32900047302246 -1.5670000314712524,24.576000213623047 -0.06599999964237213,21.97100067138672 C-0.06599999964237213,21.97100067138672 -0.06599999964237213,21.968000411987305 -0.06599999964237213,21.968000411987305 C-0.06599999964237213,21.968000411987305 7.078999996185303,9.58899974822998 7.078999996185303,9.58899974822998z"></path></g></g><g opacity="1" transform="matrix(1,0,0,1,70.75,-122.75)"><g opacity="1" transform="matrix(1,0,0,1,86.30400085449219,18.47599983215332)"><path fill="rgb(43,90,220)" fill-opacity="1" d=" M13.484999656677246,-1.527999997138977 C14.970000267028809,-4.126999855041504 15.267999649047852,-7.0920000076293945 14.550999641418457,-9.782999992370605 C13.82699966430664,-12.484000205993652 12.076000213623047,-14.91100025177002 9.46500015258789,-16.420000076293945 C9.46500015258789,-16.420000076293945 9.437000274658203,-16.44099998474121 9.437000274658203,-16.44099998474121 C6.8379998207092285,-17.92799949645996 3.878999948501587,-18.225000381469727 1.187999963760376,-17.506000518798828 C-1.5089999437332153,-16.781999588012695 -3.931999921798706,-15.027000427246094 -5.438000202178955,-12.416000366210938 C-5.438000202178955,-12.416000366210938 -13.460000038146973,1.49399995803833 -13.460000038146973,1.49399995803833 C-13.460000038146973,1.49399995803833 -13.46399974822998,1.4930000305175781 -13.46399974822998,1.4930000305175781 C-14.96500015258789,4.099999904632568 -15.267000198364258,7.078000068664551 -14.543999671936035,9.781999588012695 C-13.821000099182129,12.484999656677246 -12.069999694824219,14.90999984741211 -9.468999862670898,16.413000106811523 C-9.468999862670898,16.413000106811523 -9.465999603271484,16.413000106811523 -9.465999603271484,16.413000106811523 C-6.861000061035156,17.917999267578125 -3.884000062942505,18.22599983215332 -1.1820000410079956,17.50200080871582 C1.5190000534057617,16.777999877929688 3.940999984741211,15.027999877929688 5.440999984741211,12.42300033569336 C5.440999984741211,12.42300033569336 5.447999954223633,12.413000106811523 5.447999954223633,12.413000106811523 C5.447999954223633,12.413000106811523 5.445000171661377,12.41100025177002 5.445000171661377,12.41100025177002 C5.445000171661377,12.41100025177002 13.467000007629395,-1.5010000467300415 13.467000007629395,-1.5010000467300415 C13.467000007629395,-1.5010000467300415 13.484999656677246,-1.527999997138977 13.484999656677246,-1.527999997138977z"></path></g><g opacity="1" transform="matrix(1,0,0,1,50.904998779296875,79.86399841308594)"><path fill="rgb(12,159,218)" fill-opacity="1" d=" M7.078999996185303,9.58899974822998 C7.078999996185303,9.58899974822998 13.79800033569336,-2.062000036239624 13.79800033569336,-2.062000036239624 C13.79800033569336,-2.062000036239624 13.79800033569336,-2.071000099182129 13.79800033569336,-2.071000099182129 C13.79800033569336,-2.071000099182129 18.966999053955078,-11.039999961853027 18.966999053955078,-11.039999961853027 C18.966999053955078,-11.039999961853027 18.97100067138672,-11.036999702453613 18.97100067138672,-11.036999702453613 C20.472000122070312,-13.645000457763672 20.77400016784668,-16.62299919128418 20.051000595092773,-19.32699966430664 C19.327999114990234,-22.030000686645508 17.57699966430664,-24.45599937438965 14.975000381469727,-25.961999893188477 C14.975000381469727,-25.961999893188477 14.970999717712402,-25.968000411987305 14.970999717712402,-25.968000411987305 C12.366000175476074,-27.469999313354492 9.387999534606934,-27.777000427246094 6.688000202178955,-27.05299949645996 C3.98799991607666,-26.327999114990234 1.565999984741211,-24.576000213623047 0.06599999964237213,-21.972999572753906 C0.06599999964237213,-21.972999572753906 0.05900000035762787,-21.96500015258789 0.05900000035762787,-21.96500015258789 C0.05900000035762787,-21.96500015258789 0.06599999964237213,-21.961999893188477 0.06599999964237213,-21.961999893188477 C0.06599999964237213,-21.961999893188477 -5.105000019073486,-12.993000030517578 -5.105000019073486,-12.993000030517578 C-5.105000019073486,-12.993000030517578 -11.824000358581543,-1.340999960899353 -11.824000358581543,-1.340999960899353 C-11.824000358581543,-1.340999960899353 -11.829000473022461,-1.343999981880188 -11.829000473022461,-1.343999981880188 C-11.829000473022461,-1.343999981880188 -18.964000701904297,11.031999588012695 -18.964000701904297,11.031999588012695 C-18.964000701904297,11.031999588012695 -18.964000701904297,11.041000366210938 -18.964000701904297,11.041000366210938 C-20.466999053955078,13.64900016784668 -20.77400016784668,16.62700080871582 -20.051000595092773,19.329999923706055 C-19.32699966430664,22.034000396728516 -17.577999114990234,24.459999084472656 -14.97700023651123,25.96500015258789 C-14.97700023651123,25.96500015258789 -14.972999572753906,25.96500015258789 -14.972999572753906,25.96500015258789 C-12.369000434875488,27.47100067138672 -9.392000198364258,27.777000427246094 -6.689000129699707,27.05299949645996 C-3.989000082015991,26.32900047302246 -1.5670000314712524,24.576000213623047 -0.06599999964237213,21.97100067138672 C-0.06599999964237213,21.97100067138672 -0.06599999964237213,21.968000411987305 -0.06599999964237213,21.968000411987305 C-0.06599999964237213,21.968000411987305 7.078999996185303,9.58899974822998 7.078999996185303,9.58899974822998z"></path></g></g></g></g><g mask="url(#__lottie_element_72)" style="display: block;"><g transform="matrix(1,0,0,1,91.81800079345703,97.55400085449219)" opacity="1"><g opacity="1" transform="matrix(1,0,0,1,0,0)"><g opacity="1" transform="matrix(1,0,0,1,114.83200073242188,14.170999526977539)"><path fill="rgb(43,90,220)" fill-opacity="1" d=" M-1.2990000247955322,-13.197999954223633 C-3.996000051498413,-12.472999572753906 -6.419000148773193,-10.720000267028809 -7.925000190734863,-8.109000205993652 C-7.925000190734863,-8.109000205993652 -7.927999973297119,-8.109000205993652 -7.927999973297119,-8.109000205993652 C-7.927999973297119,-8.109000205993652 -10.97700023651123,-2.8239998817443848 -10.97700023651123,-2.8239998817443848 C-12.479999542236328,-0.2160000056028366 -12.78600025177002,2.7679998874664307 -12.0600004196167,5.473999977111816 C-11.336999893188477,8.178000450134277 -9.586999893188477,10.602999687194824 -6.985000133514404,12.107999801635742 C-4.376999855041504,13.61400032043457 -1.402999997138977,13.92199993133545 1.2999999523162842,13.196999549865723 C3.999000072479248,12.472999572753906 6.422999858856201,10.720000267028809 7.926000118255615,8.114999771118164 C7.926000118255615,8.114999771118164 10.97700023651123,2.8239998817443848 10.97700023651123,2.8239998817443848 C10.97700023651123,2.8239998817443848 10.979999542236328,2.8239998817443848 10.979999542236328,2.8239998817443848 C12.482999801635742,0.2160000056028366 12.78600025177002,-2.7639999389648438 12.062999725341797,-5.473999977111816 C11.34000015258789,-8.177000045776367 9.59000015258789,-10.60200023651123 6.98799991607666,-12.107000350952148 C6.98799991607666,-12.107000350952148 6.98199987411499,-12.112000465393066 6.98199987411499,-12.112000465393066 C6.98199987411499,-12.112000465393066 6.979000091552734,-12.107000350952148 6.979000091552734,-12.107000350952148 C4.374000072479248,-13.618000030517578 1.4010000228881836,-13.92199993133545 -1.2990000247955322,-13.197999954223633z"></path></g><g opacity="1" transform="matrix(1,0,0,1,13.03600025177002,190.72300720214844)"><path fill="rgb(43,90,220)" fill-opacity="1" d=" M-10.97700023651123,-2.813999891281128 C-10.97700023651123,-2.813999891281128 -10.97700023651123,-2.813999891281128 -10.97700023651123,-2.813999891281128 C-12.482999801635742,-0.2070000022649765 -12.78600025177002,2.7750000953674316 -12.062000274658203,5.474999904632568 C-11.33899974822998,8.175000190734863 -9.586999893188477,10.60200023651123 -6.979000091552734,12.109999656677246 C-6.979000091552734,12.109999656677246 -6.974999904632568,12.109999656677246 -6.974999904632568,12.109999656677246 C-4.370999813079834,13.616000175476074 -1.3969999551773071,13.92199993133545 1.3029999732971191,13.194999694824219 C4,12.473999977111816 6.422999858856201,10.718000411987305 7.926000118255615,8.107000350952148 C7.926000118255615,8.107000350952148 10.97700023651123,2.815999984741211 10.97700023651123,2.815999984741211 C10.97700023651123,2.815999984741211 10.979999542236328,2.815999984741211 10.979999542236328,2.815999984741211 C12.482000350952148,0.20800000429153442 12.78600025177002,-2.7690000534057617 12.062999725341797,-5.47599983215332 C11.33899974822998,-8.178999900817871 9.58899974822998,-10.605999946594238 6.98799991607666,-12.111000061035156 C4.380000114440918,-13.616999626159668 1.4040000438690186,-13.92300033569336 -1.2960000038146973,-13.199000358581543 C-3.993000030517578,-12.477999687194824 -6.415999889373779,-10.720999717712402 -7.922999858856201,-8.107000350952148 C-7.922999858856201,-8.107000350952148 -10.97700023651123,-2.813999891281128 -10.97700023651123,-2.813999891281128z"></path></g><g opacity="1" transform="matrix(1,0,0,1,84.39199829101562,66.95999908447266)"><path fill="rgb(12,159,218)" fill-opacity="1" d=" M7.559999942779541,8.741000175476074 C7.559999942779541,8.741000175476074 9.260000228881836,5.793000221252441 9.260000228881836,5.793000221252441 C9.260000228881836,5.793000221252441 18.483999252319336,-10.208000183105469 18.483999252319336,-10.208000183105469 C18.483999252319336,-10.208000183105469 18.488000869750977,-10.204999923706055 18.488000869750977,-10.204999923706055 C19.990999221801758,-12.812999725341797 20.291000366210938,-15.789999961853027 19.56800079345703,-18.493999481201172 C18.844999313354492,-21.19700050354004 17.094999313354492,-23.624000549316406 14.493000030517578,-25.128999710083008 C11.885000228881836,-26.636999130249023 8.909000396728516,-26.94099998474121 6.205999851226807,-26.216999053955078 C3.509000062942505,-25.493000030517578 1.0880000591278076,-23.739999771118164 -0.42100000381469727,-21.125999450683594 C-0.42100000381469727,-21.125999450683594 -9.645000457763672,-5.125 -9.645000457763672,-5.125 C-9.645000457763672,-5.125 -11.345999717712402,-2.180000066757202 -11.345999717712402,-2.180000066757202 C-11.345999717712402,-2.180000066757202 -11.347999572753906,-2.180000066757202 -11.347999572753906,-2.180000066757202 C-11.347999572753906,-2.180000066757202 -18.482999801635742,10.196000099182129 -18.482999801635742,10.196000099182129 C-18.482999801635742,10.196000099182129 -18.489999771118164,10.204000473022461 -18.489999771118164,10.204000473022461 C-18.489999771118164,10.204000473022461 -18.482999801635742,10.206999778747559 -18.482999801635742,10.206999778747559 C-19.986000061035156,12.8149995803833 -20.290000915527344,15.793000221252441 -19.56999969482422,18.493999481201172 C-18.84600067138672,21.19700050354004 -17.09600067138672,23.62299919128418 -14.494000434875488,25.128999710083008 C-11.88700008392334,26.636999130249023 -8.90999984741211,26.94099998474121 -6.210000038146973,26.216999053955078 C-3.513000011444092,25.492000579833984 -1.090999960899353,23.739999771118164 0.41499999165534973,21.128999710083008 C0.41499999165534973,21.128999710083008 0.4189999997615814,21.131999969482422 0.4189999997615814,21.131999969482422 C0.4189999997615814,21.131999969482422 7.552999973297119,8.755999565124512 7.552999973297119,8.755999565124512 C7.552999973297119,8.755999565124512 7.552999973297119,8.741000175476074 7.552999973297119,8.741000175476074 C7.552999973297119,8.741000175476074 7.559999942779541,8.741000175476074 7.559999942779541,8.741000175476074z"></path></g><g opacity="1" transform="matrix(1,0,0,1,43.474998474121094,137.9320068359375)"><path fill="rgb(12,159,218)" fill-opacity="1" d=" M9.642000198364258,5.125999927520752 C9.642000198364258,5.125999927520752 11.342000007629395,2.180000066757202 11.342000007629395,2.180000066757202 C11.342000007629395,2.180000066757202 11.347999572753906,2.183000087738037 11.347999572753906,2.183000087738037 C11.347999572753906,2.183000087738037 18.44700050354004,-10.133999824523926 18.44700050354004,-10.133999824523926 C18.44700050354004,-10.133999824523926 18.48200035095215,-10.204999923706055 18.48200035095215,-10.204999923706055 C19.985000610351562,-12.812999725341797 20.288999557495117,-15.788999557495117 19.56599998474121,-18.492000579833984 C18.841999053955078,-21.190000534057617 17.09000015258789,-23.614999771118164 14.482000350952148,-25.124000549316406 C14.482000350952148,-25.124000549316406 14.484000205993652,-25.1299991607666 14.484000205993652,-25.1299991607666 C11.876999855041504,-26.631999969482422 8.906999588012695,-26.93899917602539 6.203999996185303,-26.211999893188477 C3.509999990463257,-25.489999771118164 1.0859999656677246,-23.733999252319336 -0.41999998688697815,-21.124000549316406 C-0.41999998688697815,-21.124000549316406 -7.560999870300293,-8.739999771118164 -7.560999870300293,-8.739999771118164 C-7.560999870300293,-8.739999771118164 -7.564000129699707,-8.741999626159668 -7.564000129699707,-8.741999626159668 C-7.564000129699707,-8.741999626159668 -9.258000373840332,-5.802999973297119 -9.258000373840332,-5.802999973297119 C-9.258000373840332,-5.802999973297119 -9.258000373840332,-5.794000148773193 -9.258000373840332,-5.794000148773193 C-9.258000373840332,-5.794000148773193 -18.482999801635742,10.206000328063965 -18.482999801635742,10.206000328063965 C-18.482999801635742,10.206000328063965 -18.486000061035156,10.20199966430664 -18.486000061035156,10.20199966430664 C-19.986000061035156,12.810999870300293 -20.288999557495117,15.791000366210938 -19.56599998474121,18.4950008392334 C-18.841999053955078,21.201000213623047 -17.093000411987305,23.625999450683594 -14.494000434875488,25.131000518798828 C-14.494000434875488,25.131000518798828 -14.484999656677246,25.131000518798828 -14.484999656677246,25.131000518798828 C-11.880000114440918,26.63599967956543 -8.906999588012695,26.940000534057617 -6.210000038146973,26.2189998626709 C-3.509999990463257,25.493999481201172 -1.0859999656677246,23.742000579833984 0.4169999957084656,21.136999130249023 C0.4169999957084656,21.136999130249023 0.4169999957084656,21.128000259399414 0.4169999957084656,21.128000259399414 C0.4169999957084656,21.128000259399414 9.642000198364258,5.125999927520752 9.642000198364258,5.125999927520752z"></path></g></g><g opacity="1" transform="matrix(1,0,0,1,-101.81199645996094,176.5)"><g opacity="1" transform="matrix(1,0,0,1,13.03600025177002,190.72300720214844)"><path fill="rgb(43,90,220)" fill-opacity="1" d=" M-10.97700023651123,-2.813999891281128 C-10.97700023651123,-2.813999891281128 -10.97700023651123,-2.813999891281128 -10.97700023651123,-2.813999891281128 C-12.482999801635742,-0.2070000022649765 -12.78600025177002,2.7750000953674316 -12.062000274658203,5.474999904632568 C-11.33899974822998,8.175000190734863 -9.586999893188477,10.60200023651123 -6.979000091552734,12.109999656677246 C-6.979000091552734,12.109999656677246 -6.974999904632568,12.109999656677246 -6.974999904632568,12.109999656677246 C-4.370999813079834,13.616000175476074 -1.3969999551773071,13.92199993133545 1.3029999732971191,13.194999694824219 C4,12.473999977111816 6.422999858856201,10.718000411987305 7.926000118255615,8.107000350952148 C7.926000118255615,8.107000350952148 10.97700023651123,2.815999984741211 10.97700023651123,2.815999984741211 C10.97700023651123,2.815999984741211 10.979999542236328,2.815999984741211 10.979999542236328,2.815999984741211 C12.482000350952148,0.20800000429153442 12.78600025177002,-2.7690000534057617 12.062999725341797,-5.47599983215332 C11.33899974822998,-8.178999900817871 9.58899974822998,-10.605999946594238 6.98799991607666,-12.111000061035156 C4.380000114440918,-13.616999626159668 1.4040000438690186,-13.92300033569336 -1.2960000038146973,-13.199000358581543 C-3.993000030517578,-12.477999687194824 -6.415999889373779,-10.720999717712402 -7.922999858856201,-8.107000350952148 C-7.922999858856201,-8.107000350952148 -10.97700023651123,-2.813999891281128 -10.97700023651123,-2.813999891281128z"></path></g><g opacity="1" transform="matrix(1,0,0,1,84.39199829101562,66.95999908447266)"><path fill="rgb(12,159,218)" fill-opacity="1" d=" M7.559999942779541,8.741000175476074 C7.559999942779541,8.741000175476074 9.260000228881836,5.793000221252441 9.260000228881836,5.793000221252441 C9.260000228881836,5.793000221252441 18.483999252319336,-10.208000183105469 18.483999252319336,-10.208000183105469 C18.483999252319336,-10.208000183105469 18.488000869750977,-10.204999923706055 18.488000869750977,-10.204999923706055 C19.990999221801758,-12.812999725341797 20.291000366210938,-15.789999961853027 19.56800079345703,-18.493999481201172 C18.844999313354492,-21.19700050354004 17.094999313354492,-23.624000549316406 14.493000030517578,-25.128999710083008 C11.885000228881836,-26.636999130249023 8.909000396728516,-26.94099998474121 6.205999851226807,-26.216999053955078 C3.509000062942505,-25.493000030517578 1.0880000591278076,-23.739999771118164 -0.42100000381469727,-21.125999450683594 C-0.42100000381469727,-21.125999450683594 -9.645000457763672,-5.125 -9.645000457763672,-5.125 C-9.645000457763672,-5.125 -11.345999717712402,-2.180000066757202 -11.345999717712402,-2.180000066757202 C-11.345999717712402,-2.180000066757202 -11.347999572753906,-2.180000066757202 -11.347999572753906,-2.180000066757202 C-11.347999572753906,-2.180000066757202 -18.482999801635742,10.196000099182129 -18.482999801635742,10.196000099182129 C-18.482999801635742,10.196000099182129 -18.489999771118164,10.204000473022461 -18.489999771118164,10.204000473022461 C-18.489999771118164,10.204000473022461 -18.482999801635742,10.206999778747559 -18.482999801635742,10.206999778747559 C-19.986000061035156,12.8149995803833 -20.290000915527344,15.793000221252441 -19.56999969482422,18.493999481201172 C-18.84600067138672,21.19700050354004 -17.09600067138672,23.62299919128418 -14.494000434875488,25.128999710083008 C-11.88700008392334,26.636999130249023 -8.90999984741211,26.94099998474121 -6.210000038146973,26.216999053955078 C-3.513000011444092,25.492000579833984 -1.090999960899353,23.739999771118164 0.41499999165534973,21.128999710083008 C0.41499999165534973,21.128999710083008 0.4189999997615814,21.131999969482422 0.4189999997615814,21.131999969482422 C0.4189999997615814,21.131999969482422 7.552999973297119,8.755999565124512 7.552999973297119,8.755999565124512 C7.552999973297119,8.755999565124512 7.552999973297119,8.741000175476074 7.552999973297119,8.741000175476074 C7.552999973297119,8.741000175476074 7.559999942779541,8.741000175476074 7.559999942779541,8.741000175476074z"></path></g><g opacity="1" transform="matrix(1,0,0,1,43.474998474121094,137.9320068359375)"><path fill="rgb(12,159,218)" fill-opacity="1" d=" M9.642000198364258,5.125999927520752 C9.642000198364258,5.125999927520752 11.342000007629395,2.180000066757202 11.342000007629395,2.180000066757202 C11.342000007629395,2.180000066757202 11.347999572753906,2.183000087738037 11.347999572753906,2.183000087738037 C11.347999572753906,2.183000087738037 18.44700050354004,-10.133999824523926 18.44700050354004,-10.133999824523926 C18.44700050354004,-10.133999824523926 18.48200035095215,-10.204999923706055 18.48200035095215,-10.204999923706055 C19.985000610351562,-12.812999725341797 20.288999557495117,-15.788999557495117 19.56599998474121,-18.492000579833984 C18.841999053955078,-21.190000534057617 17.09000015258789,-23.614999771118164 14.482000350952148,-25.124000549316406 C14.482000350952148,-25.124000549316406 14.484000205993652,-25.1299991607666 14.484000205993652,-25.1299991607666 C11.876999855041504,-26.631999969482422 8.906999588012695,-26.93899917602539 6.203999996185303,-26.211999893188477 C3.509999990463257,-25.489999771118164 1.0859999656677246,-23.733999252319336 -0.41999998688697815,-21.124000549316406 C-0.41999998688697815,-21.124000549316406 -7.560999870300293,-8.739999771118164 -7.560999870300293,-8.739999771118164 C-7.560999870300293,-8.739999771118164 -7.564000129699707,-8.741999626159668 -7.564000129699707,-8.741999626159668 C-7.564000129699707,-8.741999626159668 -9.258000373840332,-5.802999973297119 -9.258000373840332,-5.802999973297119 C-9.258000373840332,-5.802999973297119 -9.258000373840332,-5.794000148773193 -9.258000373840332,-5.794000148773193 C-9.258000373840332,-5.794000148773193 -18.482999801635742,10.206000328063965 -18.482999801635742,10.206000328063965 C-18.482999801635742,10.206000328063965 -18.486000061035156,10.20199966430664 -18.486000061035156,10.20199966430664 C-19.986000061035156,12.810999870300293 -20.288999557495117,15.791000366210938 -19.56599998474121,18.4950008392334 C-18.841999053955078,21.201000213623047 -17.093000411987305,23.625999450683594 -14.494000434875488,25.131000518798828 C-14.494000434875488,25.131000518798828 -14.484999656677246,25.131000518798828 -14.484999656677246,25.131000518798828 C-11.880000114440918,26.63599967956543 -8.906999588012695,26.940000534057617 -6.210000038146973,26.2189998626709 C-3.509999990463257,25.493999481201172 -1.0859999656677246,23.742000579833984 0.4169999957084656,21.136999130249023 C0.4169999957084656,21.136999130249023 0.4169999957084656,21.128000259399414 0.4169999957084656,21.128000259399414 C0.4169999957084656,21.128000259399414 9.642000198364258,5.125999927520752 9.642000198364258,5.125999927520752z"></path></g></g></g></g><g mask="url(#__lottie_element_66)" style="display: block;"><g transform="matrix(1,0,0,1,144.14700317382812,142.8560028076172)" opacity="1"><g opacity="1" transform="matrix(1,0,0,1,0,0)"><g opacity="1" transform="matrix(1,0,0,1,86.31600189208984,18.479999542236328)"><path fill="rgb(43,90,220)" fill-opacity="1" d=" M13.46399974822998,-1.49399995803833 C14.96399974822998,-4.1020002365112305 15.267000198364258,-7.078999996185303 14.545999526977539,-9.782999992370605 C13.822999954223633,-12.487000465393066 12.074000358581543,-14.916000366210938 9.472000122070312,-16.417999267578125 C9.472000122070312,-16.417999267578125 9.468999862670898,-16.417999267578125 9.468999862670898,-16.417999267578125 C6.861000061035156,-17.927000045776367 3.884999990463257,-18.229999542236328 1.184999942779541,-17.506000518798828 C-1.5149999856948853,-16.781999588012695 -3.938999891281128,-15.029000282287598 -5.441999912261963,-12.423999786376953 C-5.441999912261963,-12.423999786376953 -5.447999954223633,-12.418000221252441 -5.447999954223633,-12.418000221252441 C-5.447999954223633,-12.418000221252441 -5.441999912261963,-12.414999961853027 -5.441999912261963,-12.414999961853027 C-5.441999912261963,-12.414999961853027 -13.46500015258789,1.496000051498413 -13.46500015258789,1.496000051498413 C-13.46500015258789,1.496000051498413 -13.484999656677246,1.5260000228881836 -13.484999656677246,1.5260000228881836 C-14.970999717712402,4.125 -15.267999649047852,7.090000152587891 -14.54800033569336,9.781999588012695 C-13.824999809265137,12.484999656677246 -12.074999809265137,14.911999702453613 -9.472999572753906,16.413999557495117 C-9.472999572753906,16.413999557495117 -9.467000007629395,16.420000076293945 -9.467000007629395,16.420000076293945 C-9.467000007629395,16.420000076293945 -9.46399974822998,16.41699981689453 -9.46399974822998,16.41699981689453 C-6.859000205993652,17.92300033569336 -3.884999990463257,18.229999542236328 -1.187999963760376,17.5049991607666 C1.5110000371932983,16.7810001373291 3.936000108718872,15.027999877929688 5.435999870300293,12.42300033569336 C5.435999870300293,12.42300033569336 5.435999870300293,12.413999557495117 5.435999870300293,12.413999557495117 C5.435999870300293,12.413999557495117 13.458000183105469,-1.496999979019165 13.458000183105469,-1.496999979019165 C13.458000183105469,-1.496999979019165 13.46399974822998,-1.49399995803833 13.46399974822998,-1.49399995803833z"></path></g><g opacity="1" transform="matrix(1,0,0,1,15.519000053405762,141.25)"><path fill="rgb(43,90,220)" fill-opacity="1" d=" M13.486000061035156,-1.5130000114440918 C14.970999717712402,-4.111999988555908 15.269000053405762,-7.076000213623047 14.54800033569336,-9.767999649047852 C13.824999809265137,-12.472000122070312 12.074999809265137,-14.89799976348877 9.472999572753906,-16.40399932861328 C9.472999572753906,-16.40399932861328 9.470000267028809,-16.40399932861328 9.470000267028809,-16.40399932861328 C6.861999988555908,-17.908000946044922 3.8889999389648438,-18.216999053955078 1.1859999895095825,-17.492000579833984 C-1.5110000371932983,-16.76799964904785 -3.934000015258789,-15.015000343322754 -5.440000057220459,-12.402000427246094 C-5.440000057220459,-12.402000427246094 -13.463000297546387,1.5089999437332153 -13.463000297546387,1.5089999437332153 C-14.965999603271484,4.118000030517578 -15.269000053405762,7.0960001945495605 -14.548999786376953,9.79699993133545 C-13.87600040435791,12.315999984741211 -12.305000305175781,14.592000007629395 -9.982999801635742,16.11199951171875 C-9.982999801635742,16.11199951171875 -9.190999984741211,16.591999053955078 -9.190999984741211,16.591999053955078 C-6.65500020980835,17.961000442504883 -3.7939999103546143,18.216999053955078 -1.1929999589920044,17.520000457763672 C1.5099999904632568,16.79599952697754 3.930000066757202,15.043000221252441 5.434000015258789,12.437999725341797 C5.434000015258789,12.437999725341797 5.440000057220459,12.430999755859375 5.440000057220459,12.430999755859375 C5.440000057220459,12.430999755859375 5.436999797821045,12.428000450134277 5.436999797821045,12.428000450134277 C5.436999797821045,12.428000450134277 13.456000328063965,-1.4819999933242798 13.456000328063965,-1.4819999933242798 C13.456000328063965,-1.4819999933242798 13.486000061035156,-1.5130000114440918 13.486000061035156,-1.5130000114440918z"></path></g><g opacity="1" transform="matrix(1,0,0,1,50.92100143432617,79.8740005493164)"><path fill="rgb(12,159,218)" fill-opacity="1" d=" M7.071000099182129,9.576000213623047 C7.071000099182129,9.576000213623047 13.788999557495117,-2.075000047683716 13.788999557495117,-2.075000047683716 C13.788999557495117,-2.075000047683716 13.795000076293945,-2.072000026702881 13.795000076293945,-2.072000026702881 C13.795000076293945,-2.072000026702881 18.957000732421875,-11.02400016784668 18.957000732421875,-11.02400016784668 C18.957000732421875,-11.02400016784668 18.96299934387207,-11.041999816894531 18.96299934387207,-11.041999816894531 C20.465999603271484,-13.649999618530273 20.770000457763672,-16.62700080871582 20.049999237060547,-19.327999114990234 C19.326000213623047,-22.027999877929688 17.576000213623047,-24.454999923706055 14.968000411987305,-25.96299934387207 C14.968000411987305,-25.96299934387207 14.970999717712402,-25.965999603271484 14.970999717712402,-25.965999603271484 C12.36299991607666,-27.468000411987305 9.392999649047852,-27.775999069213867 6.690000057220459,-27.051000595092773 C3.993000030517578,-26.32699966430664 1.5729999542236328,-24.573999404907227 0.06700000166893005,-21.959999084472656 C0.06700000166893005,-21.959999084472656 0.06400000303983688,-21.959999084472656 0.06400000303983688,-21.959999084472656 C0.06400000303983688,-21.959999084472656 -5.104000091552734,-12.996999740600586 -5.104000091552734,-12.996999740600586 C-5.104000091552734,-12.996999740600586 -5.104000091552734,-12.98799991607666 -5.104000091552734,-12.98799991607666 C-5.104000091552734,-12.98799991607666 -11.822999954223633,-1.3370000123977661 -11.822999954223633,-1.3370000123977661 C-11.822999954223633,-1.3370000123977661 -18.964000701904297,11.045000076293945 -18.964000701904297,11.045000076293945 C-18.964000701904297,11.045000076293945 -18.964000701904297,11.048999786376953 -18.964000701904297,11.048999786376953 C-20.466999053955078,13.656000137329102 -20.770000457763672,16.631000518798828 -20.049999237060547,19.334999084472656 C-19.32699966430664,22.031999588012695 -17.573999404907227,24.458999633789062 -14.965999603271484,25.966999053955078 C-14.965999603271484,25.966999053955078 -14.968999862670898,25.969999313354492 -14.968999862670898,25.969999313354492 C-14.968999862670898,25.969999313354492 -14.947999954223633,25.981000900268555 -14.947999954223633,25.981000900268555 C-14.947999954223633,25.981000900268555 -14.939000129699707,25.983999252319336 -14.939000129699707,25.983999252319336 C-14.939000129699707,25.983999252319336 -14.935999870300293,25.983999252319336 -14.935999870300293,25.983999252319336 C-14.935999870300293,25.983999252319336 -14.935999870300293,25.98699951171875 -14.935999870300293,25.98699951171875 C-12.340999603271484,27.474000930786133 -9.378999710083008,27.775999069213867 -6.688000202178955,27.05500030517578 C-3.990999937057495,26.33300018310547 -1.5709999799728394,24.577999114990234 -0.06400000303983688,21.966999053955078 C-0.06400000303983688,21.966999053955078 -0.04699999839067459,21.93899917602539 -0.04699999839067459,21.93899917602539 C-0.04699999839067459,21.93899917602539 -0.04399999976158142,21.93600082397461 -0.04399999976158142,21.93600082397461 C-0.04399999976158142,21.93600082397461 -0.03999999910593033,21.93600082397461 -0.03999999910593033,21.93600082397461 C-0.03999999910593033,21.93600082397461 7.079999923706055,9.588000297546387 7.079999923706055,9.588000297546387 C7.079999923706055,9.588000297546387 7.079999923706055,9.576000213623047 7.079999923706055,9.576000213623047 C7.079999923706055,9.576000213623047 7.071000099182129,9.576000213623047 7.071000099182129,9.576000213623047z"></path></g></g><g opacity="1" transform="matrix(1,0,0,1,70.75,-122.81300354003906)"><g opacity="1" transform="matrix(1,0,0,1,86.31600189208984,18.479999542236328)"><path fill="rgb(43,90,220)" fill-opacity="1" d=" M13.46399974822998,-1.49399995803833 C14.96399974822998,-4.1020002365112305 15.267000198364258,-7.078999996185303 14.545999526977539,-9.782999992370605 C13.822999954223633,-12.487000465393066 12.074000358581543,-14.916000366210938 9.472000122070312,-16.417999267578125 C9.472000122070312,-16.417999267578125 9.468999862670898,-16.417999267578125 9.468999862670898,-16.417999267578125 C6.861000061035156,-17.927000045776367 3.884999990463257,-18.229999542236328 1.184999942779541,-17.506000518798828 C-1.5149999856948853,-16.781999588012695 -3.938999891281128,-15.029000282287598 -5.441999912261963,-12.423999786376953 C-5.441999912261963,-12.423999786376953 -5.447999954223633,-12.418000221252441 -5.447999954223633,-12.418000221252441 C-5.447999954223633,-12.418000221252441 -5.441999912261963,-12.414999961853027 -5.441999912261963,-12.414999961853027 C-5.441999912261963,-12.414999961853027 -13.46500015258789,1.496000051498413 -13.46500015258789,1.496000051498413 C-13.46500015258789,1.496000051498413 -13.484999656677246,1.5260000228881836 -13.484999656677246,1.5260000228881836 C-14.970999717712402,4.125 -15.267999649047852,7.090000152587891 -14.54800033569336,9.781999588012695 C-13.824999809265137,12.484999656677246 -12.074999809265137,14.911999702453613 -9.472999572753906,16.413999557495117 C-9.472999572753906,16.413999557495117 -9.467000007629395,16.420000076293945 -9.467000007629395,16.420000076293945 C-9.467000007629395,16.420000076293945 -9.46399974822998,16.41699981689453 -9.46399974822998,16.41699981689453 C-6.859000205993652,17.92300033569336 -3.884999990463257,18.229999542236328 -1.187999963760376,17.5049991607666 C1.5110000371932983,16.7810001373291 3.936000108718872,15.027999877929688 5.435999870300293,12.42300033569336 C5.435999870300293,12.42300033569336 5.435999870300293,12.413999557495117 5.435999870300293,12.413999557495117 C5.435999870300293,12.413999557495117 13.458000183105469,-1.496999979019165 13.458000183105469,-1.496999979019165 C13.458000183105469,-1.496999979019165 13.46399974822998,-1.49399995803833 13.46399974822998,-1.49399995803833z"></path></g><g opacity="1" transform="matrix(1,0,0,1,50.92100143432617,79.8740005493164)"><path fill="rgb(12,159,218)" fill-opacity="1" d=" M7.071000099182129,9.576000213623047 C7.071000099182129,9.576000213623047 13.788999557495117,-2.075000047683716 13.788999557495117,-2.075000047683716 C13.788999557495117,-2.075000047683716 13.795000076293945,-2.072000026702881 13.795000076293945,-2.072000026702881 C13.795000076293945,-2.072000026702881 18.957000732421875,-11.02400016784668 18.957000732421875,-11.02400016784668 C18.957000732421875,-11.02400016784668 18.96299934387207,-11.041999816894531 18.96299934387207,-11.041999816894531 C20.465999603271484,-13.649999618530273 20.770000457763672,-16.62700080871582 20.049999237060547,-19.327999114990234 C19.326000213623047,-22.027999877929688 17.576000213623047,-24.454999923706055 14.968000411987305,-25.96299934387207 C14.968000411987305,-25.96299934387207 14.970999717712402,-25.965999603271484 14.970999717712402,-25.965999603271484 C12.36299991607666,-27.468000411987305 9.392999649047852,-27.775999069213867 6.690000057220459,-27.051000595092773 C3.993000030517578,-26.32699966430664 1.5729999542236328,-24.573999404907227 0.06700000166893005,-21.959999084472656 C0.06700000166893005,-21.959999084472656 0.06400000303983688,-21.959999084472656 0.06400000303983688,-21.959999084472656 C0.06400000303983688,-21.959999084472656 -5.104000091552734,-12.996999740600586 -5.104000091552734,-12.996999740600586 C-5.104000091552734,-12.996999740600586 -5.104000091552734,-12.98799991607666 -5.104000091552734,-12.98799991607666 C-5.104000091552734,-12.98799991607666 -11.822999954223633,-1.3370000123977661 -11.822999954223633,-1.3370000123977661 C-11.822999954223633,-1.3370000123977661 -18.964000701904297,11.045000076293945 -18.964000701904297,11.045000076293945 C-18.964000701904297,11.045000076293945 -18.964000701904297,11.048999786376953 -18.964000701904297,11.048999786376953 C-20.466999053955078,13.656000137329102 -20.770000457763672,16.631000518798828 -20.049999237060547,19.334999084472656 C-19.32699966430664,22.031999588012695 -17.573999404907227,24.458999633789062 -14.965999603271484,25.966999053955078 C-14.965999603271484,25.966999053955078 -14.968999862670898,25.969999313354492 -14.968999862670898,25.969999313354492 C-14.968999862670898,25.969999313354492 -14.947999954223633,25.981000900268555 -14.947999954223633,25.981000900268555 C-14.947999954223633,25.981000900268555 -14.939000129699707,25.983999252319336 -14.939000129699707,25.983999252319336 C-14.939000129699707,25.983999252319336 -14.935999870300293,25.983999252319336 -14.935999870300293,25.983999252319336 C-14.935999870300293,25.983999252319336 -14.935999870300293,25.98699951171875 -14.935999870300293,25.98699951171875 C-12.340999603271484,27.474000930786133 -9.378999710083008,27.775999069213867 -6.688000202178955,27.05500030517578 C-3.990999937057495,26.33300018310547 -1.5709999799728394,24.577999114990234 -0.06400000303983688,21.966999053955078 C-0.06400000303983688,21.966999053955078 -0.04699999839067459,21.93899917602539 -0.04699999839067459,21.93899917602539 C-0.04699999839067459,21.93899917602539 -0.04399999976158142,21.93600082397461 -0.04399999976158142,21.93600082397461 C-0.04399999976158142,21.93600082397461 -0.03999999910593033,21.93600082397461 -0.03999999910593033,21.93600082397461 C-0.03999999910593033,21.93600082397461 7.079999923706055,9.588000297546387 7.079999923706055,9.588000297546387 C7.079999923706055,9.588000297546387 7.079999923706055,9.576000213623047 7.079999923706055,9.576000213623047 C7.079999923706055,9.576000213623047 7.071000099182129,9.576000213623047 7.071000099182129,9.576000213623047z"></path></g></g></g></g><g transform="matrix(1,0,0,1,325.5639953613281,155.89401245117188)" opacity="1" style="display: block;"><g opacity="1" transform="matrix(1,0,0,1,318.5950012207031,42.750999450683594)"><path fill="rgb(21,33,69)" fill-opacity="1" d=" M-252.1750030517578,-33.457000732421875 C-252.1750030517578,-33.457000732421875 -252.1750030517578,30.410999298095703 -252.1750030517578,30.410999298095703 C-252.1750030517578,34.345001220703125 -255.21400451660156,37.38100051879883 -259.15301513671875,37.38100051879883 C-263.2049865722656,37.38100051879883 -266.8059997558594,34.34600067138672 -266.8059997558594,30.410999298095703 C-266.8059997558594,30.410999298095703 -266.8059997558594,5.785999774932861 -266.8059997558594,5.785999774932861 C-266.8059997558594,5.785999774932861 -303.49200439453125,5.785999774932861 -303.49200439453125,5.785999774932861 C-303.49200439453125,5.785999774932861 -303.49200439453125,30.410999298095703 -303.49200439453125,30.410999298095703 C-303.49200439453125,34.345001220703125 -306.4159851074219,37.38100051879883 -310.3550109863281,37.38100051879883 C-315.4200134277344,37.38100051879883 -318.3450012207031,34.34600067138672 -318.3450012207031,30.410999298095703 C-318.3450012207031,30.410999298095703 -318.3450012207031,-33.457000732421875 -318.3450012207031,-33.457000732421875 C-318.3450012207031,-37.505001068115234 -315.4200134277344,-40.428001403808594 -310.3550109863281,-40.428001403808594 C-306.41900634765625,-40.428001403808594 -303.49200439453125,-37.50199890136719 -303.49200439453125,-33.457000732421875 C-303.49200439453125,-33.457000732421875 -303.49200439453125,-8.944000244140625 -303.49200439453125,-8.944000244140625 C-303.49200439453125,-8.944000244140625 -266.8059997558594,-8.944000244140625 -266.8059997558594,-8.944000244140625 C-266.8059997558594,-8.944000244140625 -266.8059997558594,-33.457000732421875 -266.8059997558594,-33.457000732421875 C-266.8059997558594,-37.505001068115234 -263.2049865722656,-40.428001403808594 -259.15301513671875,-40.428001403808594 C-255.21400451660156,-40.428001403808594 -252.1750030517578,-37.50199890136719 -252.1750030517578,-33.457000732421875z M-167.0850067138672,22.649999618530273 C-167.0850067138672,22.649999618530273 -201.40699768066406,22.649999618530273 -201.40699768066406,22.649999618530273 C-201.40699768066406,22.649999618530273 -201.40699768066406,5.7829999923706055 -201.40699768066406,5.7829999923706055 C-201.40699768066406,5.7829999923706055 -173.0489959716797,5.7829999923706055 -173.0489959716797,5.7829999923706055 C-163.0330047607422,5.7829999923706055 -163.0330047607422,-8.946999549865723 -173.0489959716797,-8.946999549865723 C-173.0489959716797,-8.946999549865723 -201.40699768066406,-8.946999549865723 -201.40699768066406,-8.946999549865723 C-201.40699768066406,-8.946999549865723 -201.40699768066406,-25.81100082397461 -201.40699768066406,-25.81100082397461 C-201.40699768066406,-25.81100082397461 -168.9980010986328,-25.81100082397461 -168.9980010986328,-25.81100082397461 C-158.86900329589844,-25.81100082397461 -158.6439971923828,-40.428001403808594 -168.9980010986328,-40.428001403808594 C-168.9980010986328,-40.428001403808594 -209.3979949951172,-40.428001403808594 -209.3979949951172,-40.428001403808594 C-213.33700561523438,-40.428001403808594 -216.3730010986328,-37.505001068115234 -216.3730010986328,-33.457000732421875 C-216.3730010986328,-33.457000732421875 -216.3730010986328,30.410999298095703 -216.3730010986328,30.410999298095703 C-216.3730010986328,34.34600067138672 -213.33399963378906,37.38100051879883 -209.3979949951172,37.38100051879883 C-209.3979949951172,37.38100051879883 -167.0850067138672,37.38100051879883 -167.0850067138672,37.38100051879883 C-156.05499267578125,37.38100051879883 -156.84300231933594,22.649999618530273 -167.0850067138672,22.649999618530273z M-53.97200012207031,26.750999450683594 C-49.36600112915039,35.525001525878906 -62.96799850463867,42.50199890136719 -67.03700256347656,33.72700119018555 C-67.03700256347656,33.72700119018555 -71.98500061035156,23.84000015258789 -71.98500061035156,23.84000015258789 C-71.98500061035156,23.84000015258789 -113.49500274658203,23.84000015258789 -113.49500274658203,23.84000015258789 C-113.49500274658203,23.84000015258789 -118.33599853515625,33.72700119018555 -118.33599853515625,33.72700119018555 C-120.13600158691406,37.55799865722656 -124.31300354003906,38.327999114990234 -128.36000061035156,37.55699920654297 C-131.95899963378906,35.52399826049805 -134.20799255371094,31.479999542236328 -131.95899963378906,26.750999450683594 C-131.95899963378906,26.750999450683594 -99.65799713134766,-36.31700134277344 -99.65799713134766,-36.31700134277344 C-96.61699676513672,-42.2869987487793 -88.52100372314453,-42.500999450683594 -85.71499633789062,-36.31700134277344 C-85.71499633789062,-36.31700134277344 -53.97200012207031,26.750999450683594 -53.97200012207031,26.750999450683594z M-79.9749984741211,8.98799991607666 C-79.9749984741211,8.98799991607666 -92.6969985961914,-18.788999557495117 -92.6969985961914,-18.788999557495117 C-92.6969985961914,-18.788999557495117 -106.53399658203125,8.98799991607666 -106.53399658203125,8.98799991607666 C-106.53399658203125,8.98799991607666 -79.9749984741211,8.98799991607666 -79.9749984741211,8.98799991607666z M20.874000549316406,22.70599937438965 C20.874000549316406,22.70599937438965 -9.734999656677246,22.70599937438965 -9.734999656677246,22.70599937438965 C-9.734999656677246,22.70599937438965 -9.734999656677246,-33.625999450683594 -9.734999656677246,-33.625999450683594 C-9.734999656677246,-37.33599853515625 -12.77400016784668,-40.48500061035156 -16.375,-40.48500061035156 C-20.315000534057617,-40.48500061035156 -23.465999603271484,-37.33599853515625 -23.465999603271484,-33.625999450683594 C-23.465999603271484,-33.625999450683594 -23.465999603271484,30.57699966430664 -23.465999603271484,30.57699966430664 C-23.465999603271484,34.625999450683594 -20.315000534057617,37.43600082397461 -16.375,37.43600082397461 C-16.375,37.43600082397461 20.874000549316406,37.43600082397461 20.874000549316406,37.43600082397461 C32.12799835205078,37.43600082397461 31.902999877929688,22.70599937438965 20.874000549316406,22.70599937438965z M110.24099731445312,22.649999618530273 C110.24099731445312,22.649999618530273 75.91899871826172,22.649999618530273 75.91899871826172,22.649999618530273 C75.91899871826172,22.649999618530273 75.91899871826172,5.7829999923706055 75.91899871826172,5.7829999923706055 C75.91899871826172,5.7829999923706055 104.2760009765625,5.7829999923706055 104.2760009765625,5.7829999923706055 C114.29299926757812,5.7829999923706055 114.29299926757812,-8.946999549865723 104.2760009765625,-8.946999549865723 C104.2760009765625,-8.946999549865723 75.91899871826172,-8.946999549865723 75.91899871826172,-8.946999549865723 C75.91899871826172,-8.946999549865723 75.91899871826172,-25.81100082397461 75.91899871826172,-25.81100082397461 C75.91899871826172,-25.81100082397461 108.3280029296875,-25.81100082397461 108.3280029296875,-25.81100082397461 C118.45700073242188,-25.81100082397461 118.68199920654297,-40.428001403808594 108.3280029296875,-40.428001403808594 C108.3280029296875,-40.428001403808594 67.9280014038086,-40.428001403808594 67.9280014038086,-40.428001403808594 C63.98899841308594,-40.428001403808594 60.95000076293945,-37.505001068115234 60.95000076293945,-33.457000732421875 C60.95000076293945,-33.457000732421875 60.95000076293945,30.410999298095703 60.95000076293945,30.410999298095703 C60.95000076293945,34.34600067138672 63.98899841308594,37.38100051879883 67.9280014038086,37.38100051879883 C67.9280014038086,37.38100051879883 110.24099731445312,37.38100051879883 110.24099731445312,37.38100051879883 C121.2699966430664,37.38100051879883 120.48200225830078,22.649999618530273 110.24099731445312,22.649999618530273z M209.73800659179688,-40.933998107910156 C205.91099548339844,-40.933998107910156 202.64700317382812,-36.8849983215332 202.64700317382812,-33.176998138427734 C202.64700317382812,-33.176998138427734 202.64700317382812,10.447999954223633 202.64700317382812,10.447999954223633 C202.64700317382812,10.447999954223633 165.3979949951172,-36.097999572753906 165.3979949951172,-36.097999572753906 C162.36000061035156,-39.02199935913086 161.4600067138672,-40.03300094604492 157.4080047607422,-40.03300094604492 C151.55599975585938,-40.03300094604492 150.65499877929688,-36.097999572753906 150.65499877929688,-32.04999923706055 C150.65499877929688,-32.04999923706055 150.65499877929688,30.125999450683594 150.65499877929688,30.125999450683594 C150.65499877929688,35.073001861572266 154.2570037841797,37.8849983215332 158.30799865722656,37.8849983215332 C162.36000061035156,37.8849983215332 165.3979949951172,35.073001861572266 165.3979949951172,30.125999450683594 C165.3979949951172,30.125999450683594 165.3979949951172,-13.274999618530273 165.3979949951172,-13.274999618530273 C165.3979949951172,-13.274999618530273 202.64700317382812,33.94900131225586 202.64700317382812,33.94900131225586 C205.91099548339844,36.98500061035156 207.82400512695312,37.8849983215332 211.76400756835938,37.8849983215332 C214.68899536132812,36.98500061035156 217.72799682617188,35.07400131225586 217.72799682617188,30.125999450683594 C217.72799682617188,30.125999450683594 217.72799682617188,-33.176998138427734 217.72799682617188,-33.176998138427734 C217.72799682617188,-36.88800048828125 213.7899932861328,-40.933998107910156 209.73800659179688,-40.933998107910156z M308.3280029296875,-40.821998596191406 C308.3280029296875,-40.821998596191406 255.1009979248047,-40.821998596191406 255.1009979248047,-40.821998596191406 C245.3090057373047,-40.821998596191406 245.3090057373047,-26.42799949645996 255.1009979248047,-26.42799949645996 C255.1009979248047,-26.42799949645996 274.7929992675781,-26.42799949645996 274.7929992675781,-26.42799949645996 C274.7929992675781,-26.42799949645996 274.7929992675781,30.35300064086914 274.7929992675781,30.35300064086914 C274.7929992675781,40.358001708984375 289.64898681640625,40.13399887084961 289.64898681640625,30.35300064086914 C289.64898681640625,30.35300064086914 289.64898681640625,-26.42799949645996 289.64898681640625,-26.42799949645996 C289.64898681640625,-26.42799949645996 308.3280029296875,-26.42799949645996 308.3280029296875,-26.42799949645996 C318.3450012207031,-26.42799949645996 318.3450012207031,-40.821998596191406 308.3280029296875,-40.821998596191406z"></path></g></g></g></svg>