<?xml version="1.0" encoding="utf-8"?>
<!-- Generator: Adobe Illustrator 23.0.1, SVG Export Plug-In . SVG Version: 6.00 Build 0)  -->
<svg version="1.1" id="Layer_1" xmlns="http://www.w3.org/2000/svg" xmlns:xlink="http://www.w3.org/1999/xlink" x="0px" y="0px"
	 viewBox="0 0 102.5 102.5" style="enable-background:new 0 0 102.5 102.5;" xml:space="preserve">
<style type="text/css">
	.st0{fill:url(#SVGID_1_);}
	.st1{fill:#1587E2;}
</style>
<g>
	<linearGradient id="SVGID_1_" gradientUnits="userSpaceOnUse" x1="11.8646" y1="51.25" x2="90.6354" y2="51.25">
		<stop  offset="0" style="stop-color:#00FF91"/>
		<stop  offset="0.3575" style="stop-color:#00CAFF"/>
		<stop  offset="0.3602" style="stop-color:#00C9FE"/>
		<stop  offset="0.4887" style="stop-color:#0E91C3"/>
		<stop  offset="0.6124" style="stop-color:#196391"/>
		<stop  offset="0.7286" style="stop-color:#223F6B"/>
		<stop  offset="0.8352" style="stop-color:#292550"/>
		<stop  offset="0.929" style="stop-color:#2D163F"/>
		<stop  offset="1" style="stop-color:#2E1039"/>
	</linearGradient>
	<path class="st0" d="M90.6,38.5H36.9c-13.8,0-25,11.2-25,25V64h53.7c13.8,0,25-11.2,25-25V38.5z"/>
	<g>
		<path class="st1" d="M90.6,4.1L90.6,4.1L22.5,35.3C11.7,40.2,6.9,53.1,11.9,64l0,0L80,32.8C90.8,27.8,95.6,14.9,90.6,4.1z"/>
		<path class="st1" d="M25.4,46.4c-6.3,2.9-11.3,8.2-13.5,14.9c-0.3,1.1-0.4,2-0.1,2.8l0,0L80,32.8c7.1-3.3,11.6-9.9,12.5-17.2
			L25.4,46.4z"/>
	</g>
	<g>
		<path class="st1" d="M90.6,38.5L90.6,38.5L22.5,69.7c-10.9,5-15.7,17.9-10.7,28.8l0,0L80,67.2C90.8,62.3,95.6,49.4,90.6,38.5z"/>
		<path class="st1" d="M25.4,80.8c-6.3,2.9-11.3,8.2-13.5,14.9c-0.3,1.1-0.4,2-0.1,2.8l0,0L80,67.2c7.1-3.3,11.6-9.9,12.5-17.2
			L25.4,80.8z"/>
	</g>
</g>
</svg>
