<?xml version="1.0" encoding="utf-8"?>
<!-- Generator: Adobe Illustrator 23.0.1, SVG Export Plug-In . SVG Version: 6.00 Build 0)  -->
<svg version="1.1" id="Layer_1" xmlns="http://www.w3.org/2000/svg" xmlns:xlink="http://www.w3.org/1999/xlink" x="0px" y="0px"
	 viewBox="0 0 636.1 140.4" style="enable-background:new 0 0 636.1 140.4;" xml:space="preserve">
<style type="text/css">
	.st0{fill:#1587E2;}
	.st1{fill:url(#SVGID_1_);}
</style>
<g>
	<path class="st0" d="M159.2,55.9c3.1,2.6,5,6,5.8,10.2h-11.7c-0.3-1.7-1.1-2.9-2.3-3.9c-1.2-0.9-2.7-1.4-4.5-1.4
		c-1.4,0-2.5,0.3-3.2,0.9c-0.7,0.6-1.1,1.5-1.1,2.6c0,1.3,0.7,2.2,2,2.8c1.3,0.6,3.4,1.3,6.3,1.9c3.1,0.7,5.7,1.5,7.6,2.2
		c2,0.8,3.7,2,5.2,3.7c1.5,1.7,2.2,4,2.2,6.8c0,2.3-0.6,4.4-1.9,6.2c-1.3,1.8-3.1,3.2-5.5,4.2c-2.4,1-5.2,1.5-8.4,1.5
		c-5.5,0-9.9-1.2-13.2-3.6c-3.3-2.4-5.3-5.9-6-10.4h12c0.2,1.7,0.9,3.1,2.2,4c1.3,0.9,2.9,1.4,5,1.4c1.4,0,2.5-0.3,3.2-1
		c0.7-0.7,1.1-1.5,1.1-2.6c0-1.4-0.7-2.4-2-3c-1.3-0.6-3.5-1.3-6.5-1.9c-3-0.6-5.5-1.3-7.4-2c-1.9-0.7-3.6-1.9-5-3.5
		c-1.4-1.6-2.1-3.8-2.1-6.7c0-3.6,1.4-6.6,4.2-8.8c2.8-2.3,6.7-3.4,11.7-3.4C152,52,156.1,53.3,159.2,55.9z"/>
	<path class="st0" d="M196,54.1c2.2,1.4,3.9,3.3,5,5.8v-7.4h12.4v40.6h-12.4v-7.4c-1.1,2.4-2.7,4.3-5,5.8c-2.2,1.4-4.9,2.1-8,2.1
		c-3.4,0-6.3-0.8-9-2.5c-2.6-1.7-4.7-4.1-6.3-7.2c-1.5-3.2-2.3-6.8-2.3-11.1c0-4.3,0.8-8,2.3-11.1c1.5-3.1,3.6-5.5,6.3-7.2
		c2.6-1.7,5.6-2.5,9-2.5C191.1,52,193.7,52.7,196,54.1z M185.5,65.5c-1.6,1.7-2.4,4.2-2.4,7.3c0,3.1,0.8,5.5,2.4,7.3
		c1.6,1.7,3.8,2.6,6.4,2.6c2.6,0,4.8-0.9,6.4-2.7c1.7-1.8,2.5-4.2,2.5-7.2c0-3.1-0.8-5.5-2.5-7.2c-1.7-1.8-3.8-2.7-6.4-2.7
		C189.3,62.9,187.2,63.8,185.5,65.5z"/>
	<path class="st0" d="M245.4,54.1c2.2,1.4,3.9,3.3,5,5.8v-7.4h12.4v40.6h-12.4v-7.4c-1.1,2.4-2.7,4.3-5,5.8c-2.2,1.4-4.9,2.1-8,2.1
		c-3.4,0-6.3-0.8-9-2.5c-2.6-1.7-4.7-4.1-6.3-7.2c-1.5-3.2-2.3-6.8-2.3-11.1c0-4.3,0.8-8,2.3-11.1c1.5-3.1,3.6-5.5,6.3-7.2
		c2.6-1.7,5.6-2.5,9-2.5C240.5,52,243.1,52.7,245.4,54.1z M234.9,65.5c-1.6,1.7-2.4,4.2-2.4,7.3c0,3.1,0.8,5.5,2.4,7.3
		c1.6,1.7,3.8,2.6,6.4,2.6c2.6,0,4.8-0.9,6.4-2.7c1.7-1.8,2.5-4.2,2.5-7.2c0-3.1-0.8-5.5-2.5-7.2c-1.7-1.8-3.8-2.7-6.4-2.7
		C238.7,62.9,236.5,63.8,234.9,65.5z"/>
	<path class="st0" d="M294.7,54.1c2.2,1.4,3.9,3.3,5,5.8v-7.4h12.4v40.4c0,3.8-0.7,7.2-2.2,10.2c-1.5,3-3.7,5.5-6.7,7.2
		c-3,1.8-6.7,2.7-11.2,2.7c-6.1,0-11-1.4-14.7-4.3c-3.7-2.9-5.9-6.8-6.6-11.8H283c0.4,1.7,1.3,2.9,2.7,3.9c1.4,0.9,3.2,1.4,5.4,1.4
		c2.6,0,4.6-0.7,6.2-2.2c1.6-1.5,2.4-3.8,2.4-7.1v-7.1c-1.1,2.4-2.7,4.3-5,5.8c-2.2,1.4-4.9,2.1-8,2.1c-3.4,0-6.3-0.8-9-2.5
		c-2.6-1.7-4.7-4.1-6.3-7.2c-1.5-3.2-2.3-6.8-2.3-11.1c0-4.3,0.8-8,2.3-11.1c1.5-3.1,3.6-5.5,6.3-7.2c2.6-1.7,5.6-2.5,9-2.5
		C289.8,52,292.5,52.7,294.7,54.1z M284.3,65.5c-1.6,1.7-2.4,4.2-2.4,7.3c0,3.1,0.8,5.5,2.4,7.3c1.6,1.7,3.8,2.6,6.4,2.6
		c2.6,0,4.8-0.9,6.4-2.7c1.7-1.8,2.5-4.2,2.5-7.2c0-3.1-0.8-5.5-2.5-7.2c-1.7-1.8-3.8-2.7-6.4-2.7C288.1,62.9,285.9,63.8,284.3,65.5
		z"/>
	<path class="st0" d="M344.1,54.1c2.2,1.4,3.9,3.3,5,5.8v-7.4h12.4v40.6h-12.4v-7.4c-1.1,2.4-2.7,4.3-5,5.8c-2.2,1.4-4.9,2.1-8,2.1
		c-3.3,0-6.3-0.8-9-2.5c-2.6-1.7-4.7-4.1-6.3-7.2c-1.5-3.2-2.3-6.8-2.3-11.1c0-4.3,0.8-8,2.3-11.1s3.6-5.5,6.3-7.2
		c2.6-1.7,5.6-2.5,9-2.5C339.2,52,341.9,52.7,344.1,54.1z M333.7,65.5c-1.6,1.7-2.4,4.2-2.4,7.3c0,3.1,0.8,5.5,2.4,7.3
		c1.6,1.7,3.8,2.6,6.4,2.6c2.6,0,4.8-0.9,6.4-2.7c1.7-1.8,2.5-4.2,2.5-7.2c0-3.1-0.8-5.5-2.5-7.2c-1.7-1.8-3.8-2.7-6.4-2.7
		C337.4,62.9,335.3,63.8,333.7,65.5z"/>
	<path class="st0" d="M388.5,54.3c2.5-1.5,5.1-2.2,8-2.2v13.3h-3.6c-3.3,0-5.9,0.7-7.7,2.1c-1.8,1.4-2.7,3.8-2.7,7.1v18.5H370V52.5
		h12.5v7.6C384.1,57.7,386.1,55.7,388.5,54.3z"/>
	<path class="st0" d="M428.9,55.9c3.1,2.6,5,6,5.8,10.2H423c-0.3-1.7-1.1-2.9-2.3-3.9c-1.2-0.9-2.7-1.4-4.5-1.4
		c-1.4,0-2.5,0.3-3.2,0.9c-0.7,0.6-1.1,1.5-1.1,2.6c0,1.3,0.7,2.2,2,2.8c1.3,0.6,3.4,1.3,6.3,1.9c3.1,0.7,5.7,1.5,7.6,2.2
		c2,0.8,3.7,2,5.2,3.7c1.5,1.7,2.2,4,2.2,6.8c0,2.3-0.6,4.4-1.9,6.2c-1.3,1.8-3.1,3.2-5.5,4.2c-2.4,1-5.2,1.5-8.4,1.5
		c-5.5,0-9.9-1.2-13.2-3.6c-3.3-2.4-5.3-5.9-6-10.4h12c0.2,1.7,0.9,3.1,2.2,4c1.3,0.9,2.9,1.4,5,1.4c1.4,0,2.5-0.3,3.2-1
		c0.7-0.7,1.1-1.5,1.1-2.6c0-1.4-0.7-2.4-2-3c-1.3-0.6-3.5-1.3-6.5-1.9c-3-0.6-5.5-1.3-7.4-2s-3.6-1.9-5-3.5
		c-1.4-1.6-2.1-3.8-2.1-6.7c0-3.6,1.4-6.6,4.2-8.8s6.7-3.4,11.7-3.4C421.7,52,425.8,53.3,428.9,55.9z"/>
	<path class="st0" d="M479,56.7c2.7,3.1,4.1,7.4,4.1,12.8v23.6h-12.5V71c0-2.7-0.7-4.8-2.1-6.4c-1.4-1.5-3.3-2.3-5.7-2.3
		c-2.5,0-4.5,0.8-6,2.4c-1.5,1.6-2.2,3.9-2.2,6.8v21.6h-12.5V39.3h12.5v20.7c1.2-2.4,2.9-4.3,5.2-5.8c2.3-1.4,5-2.1,8.1-2.1
		C472.6,52.1,476.3,53.6,479,56.7z"/>
	<path class="st0" d="M509.8,54.3c2.5-1.5,5.1-2.2,8-2.2v13.3h-3.6c-3.3,0-5.9,0.7-7.7,2.1c-1.8,1.4-2.7,3.8-2.7,7.1v18.5h-12.5
		V52.5h12.5v7.6C505.4,57.7,507.4,55.7,509.8,54.3z"/>
	<path class="st0" d="M561.3,75.1h-28.2c0.1,3.1,0.9,5.3,2.3,6.6c1.4,1.3,3.2,2,5.4,2c1.8,0,3.4-0.5,4.6-1.4c1.2-0.9,2-2.1,2.4-3.6
		H561c-0.5,2.9-1.7,5.4-3.5,7.7c-1.8,2.3-4.1,4-6.8,5.3c-2.8,1.3-5.9,1.9-9.2,1.9c-4,0-7.5-0.8-10.6-2.5c-3.1-1.7-5.5-4.1-7.2-7.2
		c-1.7-3.2-2.6-6.8-2.6-11.1c0-4.3,0.9-8,2.6-11.1c1.7-3.1,4.1-5.5,7.2-7.2c3.1-1.7,6.7-2.5,10.6-2.5c4,0,7.6,0.8,10.6,2.5
		c3.1,1.7,5.4,4,7.1,7s2.5,6.4,2.5,10.3C561.7,72.8,561.5,73.9,561.3,75.1z M546.9,63.8c-1.5-1.3-3.3-2-5.5-2c-2.3,0-4.2,0.7-5.7,2
		c-1.5,1.4-2.4,3.4-2.5,6h15.9C549.1,67.2,548.4,65.2,546.9,63.8z"/>
	<path class="st0" d="M595.3,55.9c3.1,2.6,5,6,5.8,10.2h-11.7c-0.3-1.7-1.1-2.9-2.3-3.9c-1.2-0.9-2.7-1.4-4.5-1.4
		c-1.4,0-2.5,0.3-3.2,0.9c-0.7,0.6-1.1,1.5-1.1,2.6c0,1.3,0.7,2.2,2,2.8c1.3,0.6,3.4,1.3,6.3,1.9c3.1,0.7,5.7,1.5,7.6,2.2
		c2,0.8,3.7,2,5.2,3.7c1.5,1.7,2.2,4,2.2,6.8c0,2.3-0.6,4.4-1.9,6.2c-1.3,1.8-3.1,3.2-5.5,4.2c-2.4,1-5.2,1.5-8.4,1.5
		c-5.5,0-9.9-1.2-13.2-3.6c-3.3-2.4-5.3-5.9-6-10.4h12c0.2,1.7,0.9,3.1,2.2,4c1.3,0.9,2.9,1.4,5,1.4c1.4,0,2.5-0.3,3.2-1
		c0.7-0.7,1.1-1.5,1.1-2.6c0-1.4-0.7-2.4-2-3c-1.3-0.6-3.5-1.3-6.5-1.9c-3-0.6-5.5-1.3-7.4-2s-3.6-1.9-5-3.5
		c-1.4-1.6-2.1-3.8-2.1-6.7c0-3.6,1.4-6.6,4.2-8.8s6.7-3.4,11.7-3.4C588.1,52,592.2,53.3,595.3,55.9z"/>
	<path class="st0" d="M631.6,82.4v10.7H626c-4.8,0-8.5-1.2-11.1-3.5c-2.6-2.4-4-6.3-4-11.7V63h-5.5V52.5h5.5v-10h12.5v10h8.2V63
		h-8.2v15.1c0,1.6,0.3,2.7,1,3.3c0.7,0.6,1.8,0.9,3.3,0.9H631.6z"/>
</g>
<g>
	<linearGradient id="SVGID_1_" gradientUnits="userSpaceOnUse" x1="22.1672" y1="70.2" x2="108.4729" y2="70.2">
		<stop  offset="0" style="stop-color:#00FF91"/>
		<stop  offset="0.3575" style="stop-color:#00CAFF"/>
		<stop  offset="0.3602" style="stop-color:#00C9FE"/>
		<stop  offset="0.4887" style="stop-color:#0E91C3"/>
		<stop  offset="0.6124" style="stop-color:#196391"/>
		<stop  offset="0.7286" style="stop-color:#223F6B"/>
		<stop  offset="0.8352" style="stop-color:#292550"/>
		<stop  offset="0.929" style="stop-color:#2D163F"/>
		<stop  offset="1" style="stop-color:#2E1039"/>
	</linearGradient>
	<path class="st1" d="M108.5,56.2H49.6c-15.1,0-27.4,12.3-27.4,27.4v0.6H81c15.1,0,27.4-12.3,27.4-27.4V56.2z"/>
	<g>
		<path class="st0" d="M108.5,18.5L108.5,18.5L33.9,52.7c-11.9,5.5-17.2,19.6-11.7,31.5l0,0L96.8,50
			C108.7,44.5,113.9,30.4,108.5,18.5z"/>
		<path class="st0" d="M37,64.9c-6.9,3.2-12.4,9-14.8,16.3c-0.4,1.2-0.5,2.2-0.1,3.1l0,0L96.8,50c7.8-3.6,12.8-10.9,13.7-18.8
			L37,64.9z"/>
	</g>
	<g>
		<path class="st0" d="M108.5,56.2L108.5,56.2L33.9,90.4c-11.9,5.5-17.2,19.6-11.7,31.5l0,0l74.6-34.2
			C108.7,82.3,113.9,68.1,108.5,56.2z"/>
		<path class="st0" d="M37,102.6c-6.9,3.2-12.4,9-14.8,16.3c-0.4,1.2-0.5,2.2-0.1,3.1l0,0l74.6-34.2c7.8-3.6,12.8-10.9,13.7-18.8
			L37,102.6z"/>
	</g>
</g>
</svg>
