<?xml version="1.0" encoding="utf-8"?>
<!-- Generator: Adobe Illustrator 23.0.1, SVG Export Plug-In . SVG Version: 6.00 Build 0)  -->
<svg version="1.1" id="Layer_1" xmlns="http://www.w3.org/2000/svg" xmlns:xlink="http://www.w3.org/1999/xlink" x="0px" y="0px"
	 viewBox="0 0 264 280" style="enable-background:new 0 0 264 280;" xml:space="preserve">
<style type="text/css">
	.st0{fill-rule:evenodd;clip-rule:evenodd;fill:#E6E6E6;}
	.st1{fill:#E2A874;}
	.st2{fill:#060606;}
	.st3{fill:#D08F5E;}
	.st4{fill:#1D1D1C;}
	.st5{fill:#FDFDFD;}
	.st6{fill:#6B4037;}
	.st7{fill:#FDF4F0;}
	.st8{opacity:0.7;fill:#FA7079;}
	.st9{fill:#FBD0B4;}
	.st10{fill:#653506;}
	.st11{fill:#FFFFFF;}
	.st12{clip-path:url(#SVGID_1_);}
	.st13{fill:#220300;}
	.st14{fill:#161616;}
	.st15{fill:#0A000B;}
	.st16{fill:#FFFAE2;}
	.st17{clip-path:url(#SVGID_2_);}
	.st18{fill:#060A16;}
</style>
<desc>Created with getavataaars.com</desc>
<g id="Mask">
</g>
<g>
	<g id="Circle-Background">
		<circle class="st0" cx="130.5" cy="161" r="120"/>
	</g>
	<path class="st1" d="M165,123.9c-0.3,1.2-0.3,2.4-0.3,3.6c-0.1,1.7-0.2,3.4-0.4,5.1c-1.8,0.4-2.1,2-2.4,3.4
		c-1.3,5.4-2.5,10.9-3.8,16.3c-1.3,5.5-2.5,11-4.6,16.3c-0.4,1.1-0.8,2.3-1.8,3c-4.8,3.5-9.9,4.5-15.5,2.2c-1-0.4-1.7-1.2-1.9-2.3
		c-0.2-1.2-0.4-2.3-0.6-3.5c0.2-0.3,0.6-0.3,1-0.3c3.9-0.3,6.6-2,7.7-6c0.2-0.9,0.6-2,1.5-2.6c2.3,0.8,2.3,3,2.7,4.8
		c0.4,1.7,0.6,3.5,0.9,5.2c1.1-2.9,1.9-5.8,1.5-8.7c-0.3-2.7-0.5-5.4-4.1-6.5c-3.4-1-6.6-2.4-10.3-1.3c0.5-1.5-0.4-1.3-1.4-1.2
		c-2,0.2-4,1.3-6,0.2c1.1,0,0.9-0.8,0.9-1.4c-0.3-4.1-0.6-8.3-0.6-12.4c0-0.3,0-0.6-0.4-0.3c-0.7,0.2-0.8,0.8-0.8,1.3
		c-0.3,1.7-0.6,3.3-0.8,5c-0.3,2.6-1,5.2-1,7.9c-0.6,0-1.2,0-1.8-0.1c-3.2-0.4-9.2,4-9.4,7.1c-0.3,3.6-0.1,7.2,1.1,10.6
		c0.1,0.4,0.2,0.9,0.9,1c0.1-1.9,0.2-3.8,0.4-5.7c0.2-1.5,0.1-3.1,1.1-4.4c1.7,1.4,3.6,2.6,4.7,4.6c1.8,3.2,4.4,4.4,7.9,3.8
		c-0.4,2.4-1,4.6-3.8,5.4c-5.5,1.6-10.6,1.1-15.4-2.2c-1.7-1.1-2.9-2.7-3.5-4.7c-1.1-3.7-2.4-7.3-3.7-10.9c-2.5-6.7-3.7-14-8-20
		c0-3.1-0.5-6.2-0.3-9.3c0-1,0-2.1,0.1-3.1c0.4,0.8,0.2,1.7,0.8,2.5c0.4-0.5,0.3-1.1,0.5-1.6c0.4-1.4,0-3.1,1-4.1c1-1,1.3-2,1.6-3.2
		c0.5-2.1,0.9-4.3,1.4-6.5c0.2-0.9,0.4-1.3,1.5-1.2c4.3,0.4,8.5,0.1,12.7-0.6c2.4-0.4,4.8-1.1,7.3-1.4c-0.3,0.3-0.7,0.6-1,0.9
		c0.3,0,0.4,0.1,0.5,0.1c5.4-0.6,10.8-1.4,15.3-4.9c0.5-0.4,0.7-0.3,0.6,0.3c-0.1,0.1-0.1,0.1-0.2,0.2c0,0,0.1,0,0.1,0
		c0.1,0,0.1-0.1,0-0.2c0.6,0.3,1.1-0.2,1.5-0.4c3.3-1.6,5.9-4,8.2-6.8c1.5-1.8,2.7-3.7,4-5.7c1.5,2.5,3.2,4.5,5.2,6.2
		c0.6,0.5,1.5,0.4,1.8,1c1.7,2.9,3.5,5.7,4.3,9c0.7,2.5,1,5.1,1.4,7.7C164,118,164.5,121,165,123.9z M142.3,132.6
		c-0.2,0-0.4,0.1-0.3,0.3c-1,0-1.3,0.9-1.8,1.5c-1.4,2.2-1.2,2.4,1.3,2.7c2.4,0.3,4.8,0.4,7.2,0.3c1.4-0.1,2.9-0.1,4.1-1.1
		c0.3-0.2,0.9-0.1,0.9-0.7c0.9-0.1,1.7-0.4,1.4-1.5c-0.3-1.2-1-2.2-2.2-2.9c-2.3-1.3-7.9-0.7-9.9,1.1
		C142.6,132.3,142.4,132.2,142.3,132.6z M135.5,122.7c0.1-0.1,0.2-0.2,0.2-0.4c0,0-0.1-0.1-0.1-0.1
		C135.5,122.4,135.5,122.5,135.5,122.7c-0.1,0.1-0.2,0.2-0.3,0.3c-1.7,1.9-1.7,3.6,0,5c0.1,0,0.1,0.1,0.2,0.1c0-0.1-0.1-0.1-0.1-0.2
		c-0.3-1.6-0.6-3.3,0-4.9C135.3,122.9,135.4,122.8,135.5,122.7z M107.5,133.2c-0.5,0.2-0.4,0.6-0.3,1c0.1,0.1,0.1,0.1,0,0.1
		c-0.4,0.3-0.8,0.6-1.3,0.9c5.2,4.2,10.9,4.5,16.9,3c0.7-0.2,1-0.4,0.7-1.3c-0.4-1.3-1-2.5-1.6-3.7c-0.3-0.5-0.6-0.9-1.2-0.6
		c-0.1-0.1-0.1-0.1-0.2-0.2c0.2-1-0.3-1.2-1.2-1l0,0c0.2-0.6-0.4-0.8-0.7-1c-1.5-0.8-3.2-1.3-4.9-1.3c-1.1,0-2.2-0.3-3.1,0.7l0-0.1
		l0,0.1c-0.5-0.1-0.9-0.1-1,0.5c-0.5,0.5-1,1.1-1.4,1.6C107.1,132,107.4,132.7,107.5,133.2L107.5,133.2z M127.7,127
		c-0.7,0.5-1.4,1-1.9,2.2C127,128.6,127.7,128.1,127.7,127c0,0,0-0.1,0.1-0.1C127.8,126.9,127.8,126.9,127.7,127z M158.5,128.4
		c-0.1-3.1-2.7-6.2-5.4-6.7c-4.8-0.9-9.5-0.3-14.1,1.3c-0.8,0.3-1.7,2.2-1.4,2.9c0.5,1.2,1.4,1.2,2.5,0.7
		C146.5,124.1,152.7,123.9,158.5,128.4z M103.5,123.2c1.6-1.2,3-1.8,4.4-2.5c3-1.5,3.7-1.4,6.1,1c1.5,1.4,2.9,2.9,4.3,4.4
		c1.9,1.9,4.4,1.8,5.7-0.2c0.5-0.8,0.6-1.3-0.4-1.8c-2.2-0.9-4.1-2.4-5.9-3.9c-6-4.8-9.7-4.2-13.9,2.2
		C103.8,122.5,103.7,122.7,103.5,123.2z M126.7,125.1c-0.6,0.8-1.5,1.5-1.6,2.8C126.3,127.3,126.7,126.3,126.7,125.1z"/>
	<path class="st1" d="M173.2,199.9c-2,5.7-4,11.4-6.8,16.8c-0.6,1-1.2,2.1-2.1,2.9c-8.5,8-17.5,15.4-27.4,21.7
		c-5.2,3.3-9.9,3.6-15.3,0.4c-8.1-4.7-15.9-9.9-22.9-16.1c-4.1-3.6-6.9-7.9-8.9-12.9c-1.6-4-3.2-7.9-4.7-11.9c4.5-2,9-3.9,13.4-6.2
		c1.9-1,2.9-2.4,3.4-4.4c0.7-2.7,1.1-5.5,1.6-8.3c0.2,0.3,0.4,0.6,0.6,0.9c0,0.2-0.1,0.4-0.1,0.6c0,2.1-1.2,4.2,0.5,6.1
		c2.3,2.5,5.3,4,8.4,5.4c3.1,1.4,6.2,2.1,9.5,0.9c5.3-1.8,10.8-2,16.4-1c3.1,0.6,6.2,1.1,9.3,0.3c5.1-1.3,10.3-6.2,8.5-11.7
		c0.2-0.2,0.4-0.4,0.6-0.6c0.5,2.5,0.8,5,1.5,7.5c0.6,2,1.6,3.4,3.5,4.4C165.7,196.6,169.4,198.2,173.2,199.9z"/>
	<path class="st2" d="M165,123.9c-0.5-3-1-5.9-1.5-8.9c-0.4-2.6-0.7-5.2-1.4-7.7c-0.9-3.2-2.7-6.1-4.3-9c-0.3-0.5-1.3-0.5-1.8-1
		c-2.1-1.7-3.8-3.8-5.2-6.2c-1.3,2-2.5,3.9-4,5.7c-2.3,2.8-5,5.2-8.2,6.8c-0.5,0.2-0.9,0.7-1.5,0.4l0,0c0-0.6-0.1-0.7-0.6-0.3
		c-4.5,3.6-9.9,4.3-15.3,4.9c-0.1,0-0.3,0-0.5-0.1c0.4-0.3,0.7-0.6,1-0.9c-2.5,0.3-4.9,1-7.3,1.4c-4.2,0.7-8.5,1-12.7,0.6
		c-1.1-0.1-1.3,0.3-1.5,1.2c-0.4,2.2-0.9,4.3-1.4,6.5c-0.3,1.2-0.6,2.3-1.6,3.2c-1,1-0.7,2.7-1,4.1c-0.1,0.5-0.1,1.1-0.5,1.6
		c-0.6-0.8-0.3-1.8-0.8-2.5c-0.6-5.1-1.4-10.3-1.7-15.4c-0.1-1-0.8-1-1.4-1.2c-5.3-1.9-10.3-4.5-14.8-7.9c-0.4-0.3-0.9-0.7-1.3-1.1
		c0.4-0.6,1.1,0,1.6-0.6c-1.9-2.2-3.8-4.5-5.7-6.7c0-0.1,0.1-0.1,0.1-0.2c2,0.9,3.9,2.2,6.1,2.8c0.1-1.2,0.1-1.2,2.9-0.7
		c-0.5-1.1-1-2.1-1.5-3.2c0.1-0.1,0.1-0.1,0.2-0.2c0.5-0.1,0.9,0.6,1.6,0.2c-1.8-2.9-4.1-5.5-5.2-9.2c2.4,1,4.6,1.8,6.8,2.7
		c0.2,0.2,0.4,0.2,0.7,0c-0.2-0.1-0.3-0.2-0.5-0.3c-0.3-0.3-0.5-0.6-1-1.1c3.8,0.4,7.3,0.3,11.2,0.2c-1.7-1-3.5-0.5-5.3-1.1
		c1.2-0.3,2.2-0.6,3.3-0.9c-0.6-0.7-1.5-0.4-2.2-1c4.7-2.3,8.8-5.4,13.6-7.2c4.3-1.7,8.7-2.6,13.4-2.4c0.5,0,1,0,1.5,0
		c0.1,0,0.3,0,0.8-0.1c-1.3-0.5-2.3-0.9-3.5-1.4c5.1-1.1,9.9-2.2,14.4,1c0.6-0.7,0.1-1.3,0.4-2c0.5,0.3,1.1,0.5,1.7,0.8
		c-0.1-1.4-0.2-2.7,0.2-4.1c1.7,3.3,4,5.9,7.1,7.9c1.1,0.7,2,1.2,2.5-0.5c0.7,0.5,1.2,1.1,2.1,1.2c-0.1-0.8-0.7-1.5-0.6-2.5
		c1.6,0.6,2.9,1.6,4.2,2.5c0.6,0.4,1.1,0.8,1.7,0.9c1,0.2,2,0.7,2.3-1c0.1-0.5,0.6-0.8,1.1-0.9c2.8-0.9,5.4-1,7.7,1.3
		c2.9,2.9,5.1,6.3,7.1,9.8c0.7,1.2,1.7,2.3,0.8,3.8c-0.3,0.5,0.3,0.9,0.6,1.3c1.5,2.1,2.4,4.4,2.3,7c0,0.3,0.2,0.6-0.3,0.7
		c-0.1-0.1-0.2-0.2-0.3,0c0,0,0,0.1,0,0.1c0.2,0.1,0.3,0,0.3-0.2c-0.7,0.4-0.1,0.8,0,1.1c0.9,2.9,1,5.8,0.7,8.8
		c-0.1,1.2-0.5,1.5-1.6,1.3c-0.5-0.1-1.2-0.4-1.1,0.7C168.3,113,166.4,118.4,165,123.9z M124,88.4c2.4,0.2,4.7-1,7.5-0.4
		c-4.9,2.7-9.9,4.4-14.9,6c1.8,0,3.7,0,5.5,0c-2,1-4.2,1.7-6.3,2.2c-2.2,0.5-4.4,0.9-6.7,1.4c5.6,1.2,10.9,0.8,16.2-0.6
		c0.1,0.7-0.8,0.6-0.7,1.2c1.8,0.2,3.3-0.9,5.3-1.2c-2.2,2.4-4.9,3.8-7.4,5.8c0.4,0,0.6,0,0.7,0c0.6-0.2,1.3-0.3,1.9-0.5
		c4.3-1.3,7.8-3.8,11.2-6.5l0,0c0,1.2-0.9,2.1-1.3,3.2c-0.1,0.2-0.3,0.5,0,0.7c0.2,0.2,0.5,0.1,0.7-0.1c0.7-0.5,1.3-1.2,2.2-1.3l0,0
		c0,0.7-0.5,1-0.9,1.4c-1.7,1.7-3.7,3.2-5.6,4.7c6.8-1.8,10.3-7,13.4-12.7c-0.3,1-0.6,2-0.9,3.1c1.4-1.5,1.8-3.3,2.5-5.1
		c0.7-1.8,1.5-3.5,3.7-4.4c-1.5-0.1-2.6-0.5-3.7-1.1c0.8-0.4,1.5-0.7,2.2-1c-0.4-0.6-1.3-0.7-1.5-1.5c0.6-0.4,1.3-0.4,2-0.6
		c0-0.6-0.8-0.6-0.8-1.3c0.2-0.1,0.5-0.2,0.7-0.3c1.4-0.4,1.6-1.2,0.7-2.2c-1.4-1.8-3.3-2.6-5.7-2.9c0.5,0.9,1.5,0.9,1.8,2
		c-1,0-1.8,0-2.7,0c0.3,0.7,1.3,0.7,1.2,1.7c-4-1.6-8.1-2.1-12.2-0.5c2.5,0.3,4.7,1.1,6.9,2.2c-1.9,0.1-3.6,0.7-5.5,1.6
		c1.3,0.3,2.4-0.2,3.5,0.6c-1.4,0.6-2.7,1.1-4,1.7C129.8,84.9,126.7,86.3,124,88.4c-0.1,0-0.3,0.1-0.4,0.1c0,0,0.1,0.1,0.1,0.1
		C123.8,88.6,123.9,88.5,124,88.4z M90,86.5c-1.4-1.5-4.6-2.7-6.2-2.6C85.8,84.7,87.7,85.6,90,86.5z M142.8,74.1c0,0,0.1,0,0.1-0.1
		c0,0-0.1-0.1-0.1-0.1c0,0-0.1,0-0.1,0.1C142.8,74.1,142.8,74.1,142.8,74.1z"/>
	<path class="st2" d="M157,182.8c-0.2,0.2-0.4,0.4-0.6,0.6c-4.8,4.5-10.9,6.1-17.1,7.1c-6.9,1.1-13.9,1-20.8-0.8
		c-5.3-1.4-10.6-2.7-14.5-6.9c-0.2-0.3-0.4-0.6-0.6-0.9c-1.9-3.6-2.2-7.6-3.1-11.5c-1.4-6.1-2.5-12.3-3.5-18.4
		c0-0.3-0.2-0.6-0.3-0.9c-0.5-3.4-1-6.8-1.3-10.2c-0.2-1.5-0.7-3.1-0.2-4.6c4.3,6,5.4,13.3,8,20c1.4,3.6,2.6,7.2,3.7,10.9
		c0.6,2,1.8,3.5,3.5,4.7c4.8,3.3,9.9,3.8,15.4,2.2c2.7-0.8,3.4-3,3.8-5.4c1.4-1.1,2.9-0.8,4.4-0.6c0.2,1.2,0.4,2.3,0.6,3.5
		c0.2,1.1,0.8,1.8,1.9,2.3c5.6,2.3,10.7,1.3,15.5-2.2c1-0.7,1.4-1.9,1.8-3c2.1-5.3,3.3-10.8,4.6-16.3c1.3-5.4,2.4-10.9,3.8-16.3
		c0.3-1.3,0.6-3,2.4-3.4c-0.4,6.2-0.8,12.5-1.2,18.7c-0.5,4.6-1,9.2-1.5,13.7c-0.5,4-1,7.9-1.5,11.9
		C159.8,179.2,158.3,181,157,182.8z"/>
	<path class="st3" d="M163.2,151.3c0.4-6.2,0.8-12.5,1.2-18.7c0.1-1.7,0.2-3.4,0.4-5.1c1.2-0.9,2.3-2,3.9-2.4c2-0.5,3.1,0.1,3.2,2.2
		c0.2,2.7-0.2,5.3-0.3,8c-0.3,5.6-2.1,10.4-6.2,14.3C164.7,150.3,164,150.9,163.2,151.3z"/>
	<path class="st3" d="M95,136.3c-0.5,1.6,0,3.1,0.2,4.6c0.4,3.4,0.9,6.8,1.3,10.2c-4.3-3-6.8-7.2-7.6-12.3c-0.4-2.7-0.6-5.5-0.9-8.3
		c-0.1-1.2-0.1-2.5,0.2-3.7c0.4-1.8,1.2-2.2,3-1.8c1.3,0.3,2.4,1.2,3.5,1.9C94.5,130,95,133.1,95,136.3z"/>
	<path class="st2" d="M71.5,91c-0.2-0.1-0.3-0.2-0.5-0.3c0,0,0.1-0.1,0.1-0.1c0.2,0,0.4,0,0.5,0.2C71.6,90.9,71.5,90.9,71.5,91z"/>
	<path class="st2" d="M79.1,89.8c0-0.1-0.1-0.3-0.1-0.3c0.1-0.1,0.2,0,0.3,0.1C79.3,89.7,79.2,89.7,79.1,89.8z"/>
	<path class="st2" d="M158.5,128.4c-5.9-4.5-12-4.3-18.4-1.9c-1.1,0.4-2,0.5-2.5-0.7c-0.3-0.7,0.6-2.6,1.4-2.9
		c4.6-1.6,9.3-2.2,14.1-1.3C155.8,122.2,158.4,125.3,158.5,128.4z"/>
	<path class="st2" d="M103.5,123.2c0.2-0.5,0.2-0.7,0.3-0.8c4.1-6.4,7.9-7,13.9-2.2c1.8,1.5,3.7,3,5.9,3.9c1.1,0.4,0.9,1,0.4,1.8
		c-1.3,2-3.8,2-5.7,0.2c-1.5-1.5-2.9-2.9-4.3-4.4c-2.4-2.4-3.1-2.5-6.1-1C106.5,121.4,105.1,122,103.5,123.2z"/>
	<path class="st3" d="M142.3,158.2c0.6,0.3,1.2,0.6,1.8,0.9c-0.9,0.6-1.3,1.7-1.5,2.6c-1,4-3.8,5.7-7.7,6c-0.4,0-0.7,0-1,0.3
		c-1.5-0.2-3.1-0.4-4.4,0.6c-3.5,0.6-6.1-0.6-7.9-3.8c-1.1-1.9-3-3.2-4.7-4.6c0.2-0.8,0.8-1.2,1.4-1.6c3.4,0.3,6.7,0.3,10-0.6
		c0.7-0.4,1.5-0.5,2.3-0.6c1.1-0.3,2.4,0.2,3.3-0.7c1.9-0.1,3.7,0.2,5.6,0.7c-0.8,0.1-1.5,0.3-2.3,0.4c-5.8,0.9-11.6,1.5-17.5,1.9
		c-0.6-0.2-1.1-0.2-1.9,0c2,1.2,3.3,2.7,4.5,4.4c0.3,0.5,0.4,1.2,1.2,1.2c0.8,2.1,2.2,2.7,4.7,2.4c3-0.5,6.1-0.9,9.1-1.5
		c1.4-0.2,2.3-1,3.1-2.3C141.5,162.3,141.1,160,142.3,158.2z"/>
	<path class="st4" d="M142.9,132.3c2.1-1.7,7.6-2.3,9.9-1.1c1.1,0.6,1.8,1.7,2.2,2.9c0.3,1.1-0.5,1.4-1.4,1.5l0,0
		c0.2-0.5,1-0.8,0.6-1.6c-0.7-1.6-1.8-2.8-3.6-3c-1.5-0.2-3-0.2-4.5,0.4c1.1,1.3,1.6,2.9,1.2,4.5c-0.3,1.3,0.2,1.5,1.3,1.3
		c0,0.1,0,0.2,0,0.3c-2.4,0.1-4.8,0-7.2-0.3c-2.5-0.3-2.7-0.6-1.3-2.7c0.4-0.7,0.8-1.5,1.8-1.5l0,0c-0.4,0.5-0.2,1,0.1,1.4
		c0,0.1,0,0.2,0,0.3c-0.1,1.7,0.4,2.4,1.7,2.6c1.6,0.1,2.3-0.4,2.5-1.8c0.2-1.4-0.8-3.1-2-3.3c-0.5-0.1-0.6,0.3-0.8,0.6
		C143.2,132.5,143.1,132.4,142.9,132.3L142.9,132.3z"/>
	<path class="st3" d="M120.7,132.7c0.6-0.2,0.9,0.1,1.2,0.6c0.6,1.2,1.1,2.4,1.6,3.7c0.3,0.8,0,1.1-0.7,1.3c-6,1.6-11.7,1.2-16.9-3
		c0.5-0.3,0.9-0.6,1.3-0.9c0.2,0.9,0.8,1.4,1.5,1.9c0.1,0.2,0.4,0.3,0.6,0.3c0.5,0.7,1.3,0.9,2.1,1.1c0.4,0.1,1.1,0.3,0.9-0.6
		c0.2,0.2,0.5,0.2,0.7-0.1c0.7-1.3,1.4-2.6,1-4.1c1.4,0.6,0.8,1.7,0.7,2.7c0,0.7-0.8,1.2-0.4,1.9c-0.3-0.3-0.5-0.1-0.6,0.2
		c0,0.1,0.1,0.3,0.2,0.3c0.3,0,0.3-0.3,0.4-0.5l0.1,0c0,0,0.1,0,0.1,0c1.5,0.8,3,0,4.5,0.4c1.1,0.5,2.2-0.1,3.2-0.3
		c0.5-0.1,0.9-0.5,0.6-1.1c-0.6-1.1-0.8-2.4-1.8-3.3c0,0,0,0.1,0,0.1C120.9,133,120.8,132.8,120.7,132.7z"/>
	<path class="st5" d="M127.4,151.6c-0.9-0.1-1.4-0.5-1.4-1.6c0-2.8,0.3-5.6,0.7-8.3c0.1-0.6,0.1-1.1,0.1-1.7
		c0.3-0.4,0.3-0.9,0.3-1.4c0.1-0.4,0.1-0.8,0.2-1.2c0.4-0.3,0.4,0,0.4,0.3c0,4.2,0.3,8.3,0.6,12.4
		C128.3,150.9,128.5,151.6,127.4,151.6z"/>
	<path class="st4" d="M114.2,137.5c-0.4-0.8,0.4-1.3,0.4-1.9c0.1-1,0.7-2.1-0.7-2.7c-0.8-1.1-1.3-2.6-3.1-1.9
		c-1.4-0.1-2,0.8-1.5,2.2c0,0.3,0,0.6-0.1,0.9c-1.7,0.3-0.1,1.5-0.6,2.1l0,0c-0.7-0.5-1.3-1-1.5-1.9c0.1,0,0.1-0.1,0-0.1
		c0.3-0.3,0.4-0.6,0.3-1c0,0,0,0,0,0c0.4-0.3,0.5-0.8,0.6-1.2c0.5-0.5,1-1.1,1.4-1.6c0.4-0.1,0.8-0.2,1-0.5l0-0.1c0,0,0,0.1,0,0.1
		c3.1-0.5,6,0.2,8.8,1.5c0,0,0,0,0,0c0.1,0.4,0.6,0.5,0.6,0.9l0,0c-1.8-0.9-3.6-1.9-5.8-2c1.5,2.4,1.7,4.8,0.2,7.1L114.2,137.5
		L114.2,137.5L114.2,137.5z"/>
	<path class="st3" d="M119.3,131.4c-2.8-1.4-5.7-2-8.8-1.5c0.9-1,2-0.7,3.1-0.7c1.8-0.1,3.4,0.5,4.9,1.3
		C119,130.6,119.5,130.7,119.3,131.4z"/>
	<path class="st3" d="M135.1,127.9c-1.7-1.4-1.7-3.1,0-5l0.1,0.1C134.6,124.6,134.9,126.3,135.1,127.9L135.1,127.9z"/>
	<path class="st3" d="M148.7,137.4c0-0.1,0-0.2,0-0.3c1.3-0.3,2.6-0.6,3.9-1c0.1,0.1,0.1,0.1,0.2,0.2
		C151.6,137.3,150.1,137.3,148.7,137.4z"/>
	<path class="st3" d="M126.7,125.1c0,1.2-0.3,2.1-1.6,2.8C125.2,126.6,126.1,125.9,126.7,125.1z"/>
	<path class="st3" d="M127.7,127c0,1.1-0.7,1.6-1.9,2.2C126.3,128,127,127.5,127.7,127L127.7,127z"/>
	<path class="st3" d="M119.9,132.3c0.1-0.5-0.5-0.6-0.6-0.9c0.9-0.2,1.4,0,1.2,1C120.3,132.4,120.1,132.4,119.9,132.3z"/>
	<path class="st4" d="M119.9,132.3c0.2,0,0.4,0.1,0.6,0.1c0.1,0.1,0.1,0.1,0.2,0.2c0.1,0.2,0.1,0.4,0.2,0.6
		C120.4,133.1,120.3,132.6,119.9,132.3L119.9,132.3z"/>
	<path class="st3" d="M108.1,132c-0.1,0.5-0.2,0.9-0.6,1.2C107.4,132.7,107.1,132,108.1,132z"/>
	<path class="st4" d="M153.6,135.6c0,0.6-0.6,0.5-0.9,0.7c-0.1-0.1-0.1-0.1-0.2-0.2C152.9,136,153.3,135.8,153.6,135.6
		C153.7,135.6,153.6,135.6,153.6,135.6z"/>
	<path class="st3" d="M110.5,129.8c-0.2,0.3-0.6,0.5-1,0.5C109.6,129.7,110,129.7,110.5,129.8z"/>
	<path class="st3" d="M107.5,133.2c0,0.4,0,0.8-0.3,1C107.1,133.8,106.9,133.4,107.5,133.2z"/>
	<path class="st3" d="M135.4,122.6c0-0.1,0.1-0.3,0.1-0.4c0,0,0.1,0.1,0.1,0.1C135.6,122.4,135.5,122.6,135.4,122.6
		C135.5,122.7,135.4,122.6,135.4,122.6z"/>
	<path class="st4" d="M142.3,132.6c0.1-0.4,0.4-0.3,0.6-0.3c0,0,0,0,0,0C142.8,132.6,142.5,132.6,142.3,132.6L142.3,132.6z"/>
	<path class="st4" d="M141.9,132.9c0-0.2,0.2-0.3,0.3-0.3c0,0,0,0,0,0C142.3,132.8,142.1,132.8,141.9,132.9L141.9,132.9z"/>
	<path class="st3" d="M127.7,127c0,0,0-0.1,0.1-0.1C127.8,126.9,127.8,126.9,127.7,127C127.7,127,127.7,127,127.7,127z"/>
	<path class="st2" d="M137,104.1c0.1,0.1,0.1,0.2,0,0.2c0,0-0.1,0-0.1,0C136.9,104.3,136.9,104.2,137,104.1
		C137,104.2,137,104.1,137,104.1z"/>
	<path class="st3" d="M135.2,127.9c0,0.1,0.1,0.1,0.1,0.2C135.2,128,135.2,128,135.2,127.9C135.1,127.9,135.2,127.9,135.2,127.9z"/>
	<path class="st3" d="M135.1,122.9c0.1-0.1,0.2-0.2,0.3-0.3c0,0,0,0,0,0C135.4,122.8,135.3,122.9,135.1,122.9
		C135.2,123,135.1,122.9,135.1,122.9z"/>
	<path class="st3" d="M104,182.8c4,4.2,9.2,5.5,14.5,6.9c6.9,1.8,13.9,1.9,20.8,0.8c6.2-1,12.3-2.5,17.1-7.1
		c1.8,5.6-3.4,10.4-8.5,11.7c-3.1,0.8-6.2,0.3-9.3-0.3c-5.5-1.1-11-0.9-16.4,1c-3.4,1.1-6.4,0.4-9.5-0.9c-3.1-1.4-6-2.9-8.4-5.4
		c-1.8-1.9-0.6-4.1-0.5-6.1C103.9,183.2,104,183,104,182.8z"/>
	<path class="st4" d="M136.4,95.8c-3.4,2.8-6.9,5.3-11.2,6.5c-0.6,0.2-1.3,0.4-1.9,0.5c-0.1,0-0.3,0-0.7,0c2.5-2,5.2-3.4,7.4-5.8
		c-2,0.3-3.6,1.4-5.3,1.2c-0.1-0.6,0.8-0.5,0.7-1.2c-5.3,1.3-10.6,1.8-16.2,0.6c2.4-0.5,4.6-0.9,6.7-1.4c2.2-0.5,4.3-1.1,6.3-2.2
		c-1.8,0-3.7,0-5.5,0c5-1.6,10-3.3,14.9-6c-2.8-0.5-5.1,0.6-7.5,0.4l0,0c2.7-2.1,5.7-3.5,8.8-4.9c1.3-0.6,2.6-1.1,4-1.7
		c-1-0.9-2.2-0.3-3.5-0.6c1.9-0.9,3.6-1.4,5.5-1.6c-2.2-1.1-4.4-1.9-6.9-2.2c4.1-1.6,8.2-1.1,12.2,0.5c0.2-1-0.9-1-1.2-1.7
		c0.9,0,1.7,0,2.7,0c-0.3-1.1-1.3-1.1-1.8-2c2.4,0.3,4.3,1.1,5.7,2.9c0.9,1.1,0.6,1.9-0.7,2.2c-0.2,0.1-0.5,0.2-0.7,0.3
		c0,0.6,0.9,0.6,0.8,1.3c-0.7,0.2-1.4,0.2-2,0.6c0.1,0.8,1,0.9,1.5,1.5c-0.7,0.3-1.4,0.6-2.2,1c1.1,0.7,2.2,1,3.7,1.1
		c-2.2,0.9-3,2.7-3.7,4.4c-0.7,1.7-1.1,3.6-2.5,5.1c0.3-1,0.6-2,0.9-3.1c-3.1,5.7-6.6,11-13.4,12.7c1.9-1.5,3.9-2.9,5.6-4.7
		c0.4-0.4,0.9-0.7,0.9-1.4c0.1-0.1,0.2-0.2,0.3-0.3c0,0,0-0.1,0.1-0.1c0,0,0,0.1-0.1,0.1c-0.1,0.1-0.2,0.2-0.3,0.3
		c-0.9,0.2-1.5,0.8-2.2,1.3c-0.2,0.2-0.5,0.3-0.7,0.1c-0.3-0.2-0.1-0.5,0-0.7C135.5,97.9,136.4,97.1,136.4,95.8c0,0,0-0.1,0.1-0.1
		C136.4,95.7,136.4,95.8,136.4,95.8z"/>
	<path class="st5" d="M90,86.5c-2.3-1-4.2-1.8-6.2-2.6C85.4,83.8,88.6,85,90,86.5z"/>
	<path class="st4" d="M142.8,74.1c0,0-0.1-0.1-0.1-0.1c0,0,0.1-0.1,0.1-0.1c0,0,0.1,0.1,0.1,0.1C142.9,74.1,142.9,74.1,142.8,74.1z"
		/>
	<path class="st5" d="M82.8,83.1c0.2,0.1,0.3,0.2,0.5,0.3c-0.2,0.2-0.5,0.1-0.7,0C82.6,83.2,82.7,83.2,82.8,83.1z"/>
	<path class="st4" d="M124,88.4c-0.1,0.1-0.2,0.2-0.3,0.2c0,0-0.1-0.1-0.1-0.1C123.8,88.5,123.9,88.4,124,88.4
		C124,88.4,124,88.4,124,88.4z"/>
	<path class="st5" d="M169.8,95.4c-0.1,0.2-0.2,0.2-0.3,0.2c0,0-0.1-0.1,0-0.1C169.6,95.2,169.7,95.3,169.8,95.4
		C169.8,95.4,169.8,95.4,169.8,95.4z"/>
	<path class="st5" d="M119.7,159.8c5.9-0.4,11.7-1,17.5-1.9c0.8-0.1,1.5-0.3,2.3-0.4c1,0,1.9,0.3,2.8,0.7c-1.2,1.8-0.8,4.1-1.8,5.9
		c-0.7,1.3-1.7,2-3.1,2.3c-3,0.5-6,1-9.1,1.5c-2.5,0.4-3.8-0.3-4.7-2.4c-0.1-0.6-0.2-1.1-0.2-1.7c0-0.6,0-1.1-0.7-1.4
		C121.4,161.9,120.5,160.9,119.7,159.8z"/>
	<path class="st1" d="M133.9,156.8c-1,0.9-2.2,0.4-3.3,0.7c-0.8,0.2-1.6,0.2-2.3,0.6c-0.2-0.2-0.5-0.2-0.7-0.2
		c-2.5,0.4-5.1,0.4-7.6,0.2c2.2-1.1,4.6-1.1,7-1.3C129.2,156.6,131.5,156.5,133.9,156.8z"/>
	<path class="st5" d="M119.9,158.1c2.6,0.2,5.1,0.2,7.6-0.2c0.3,0,0.5-0.1,0.7,0.2c-3.3,0.9-6.6,0.9-10,0.6
		C118.8,158.5,119.4,158.3,119.9,158.1z"/>
	<path class="st4" d="M119.7,159.8c0.8,1.1,1.7,2.1,2.9,2.6c0.7,0.3,0.7,0.8,0.7,1.4c0,0.6,0.1,1.1,0.2,1.7c-0.8,0-0.9-0.7-1.2-1.2
		c-1.2-1.7-2.5-3.2-4.5-4.4C118.6,159.6,119.2,159.6,119.7,159.8z"/>
	<path class="st5" d="M153.7,135.6c-0.4,0.2-0.7,0.4-1.1,0.5c-1.3,0.3-2.6,0.6-3.9,1c-1.1,0.2-1.5,0-1.3-1.3
		c0.4-1.6-0.2-3.1-1.2-4.5c1.5-0.5,3-0.5,4.5-0.4c1.8,0.2,2.9,1.4,3.6,3C154.6,134.8,153.9,135.1,153.7,135.6z"/>
	<path class="st2" d="M143.4,132.6c0.2-0.3,0.4-0.6,0.8-0.6c1.1,0.2,2.2,1.8,2,3.3c-0.2,1.4-0.9,1.9-2.5,1.8
		c-1.3-0.1-1.9-0.9-1.7-2.6c0-0.1,0-0.2,0-0.3C143.2,134.3,143.2,133.4,143.4,132.6z"/>
	<path class="st5" d="M143.4,132.6c-0.2,0.8-0.3,1.7-1.4,1.6c-0.3-0.5-0.5-0.9-0.1-1.4c0.2,0,0.3-0.1,0.3-0.3c0.3,0,0.5,0,0.6-0.3
		C143.1,132.4,143.2,132.5,143.4,132.6z"/>
	<path class="st5" d="M119.9,132.3c0.3,0.3,0.5,0.8,1,0.9c0,0,0-0.1,0-0.1c-0.2,0.3,0.1,0.5,0.2,0.7c1.8,3.3,1.5,3.7-2.2,4
		c-1.5-0.3-3.1,0.5-4.5-0.4c1.4-2.4,1.3-4.7-0.2-7.1C116.4,130.4,118.1,131.4,119.9,132.3z"/>
	<path class="st2" d="M109.2,134.1c0-0.3,0-0.6,0.1-0.9c1.6,0,1.4-1.2,1.5-2.2c1.8-0.7,2.4,0.8,3.1,1.9c0.4,1.6-0.3,2.8-1,4.1
		c-0.1,0.2-0.4,0.3-0.6,0.1c-0.7-0.3-1.6-0.2-2.3-0.8C109.4,135.7,109.2,134.9,109.2,134.1z"/>
	<path class="st4" d="M118.9,137.8c3.7-0.3,4-0.7,2.2-4c-0.1-0.2-0.3-0.4-0.2-0.7c1,0.9,1.2,2.2,1.8,3.3c0.3,0.6-0.1,1.1-0.6,1.1
		C121.1,137.7,120,138.3,118.9,137.8z"/>
	<path class="st4" d="M109.9,136.2c0.7,0.6,1.6,0.5,2.3,0.8c0.1,0.9-0.5,0.7-0.9,0.6c-0.7-0.2-1.6-0.4-2.1-1.1l0,0
		C109.5,136.5,109.8,136.5,109.9,136.2z"/>
	<path class="st4" d="M114.2,137.5c-0.1,0.2,0,0.5-0.4,0.5c-0.1,0-0.2-0.2-0.2-0.3C113.7,137.4,113.8,137.2,114.2,137.5
		C114.2,137.5,114.2,137.5,114.2,137.5z"/>
	<path class="st4" d="M109.2,136.5c-0.3,0-0.5-0.1-0.6-0.3c0,0,0,0,0,0C108.9,136.2,109.1,136.3,109.2,136.5L109.2,136.5z"/>
	<path class="st1" d="M127.2,138.7c0,0.5,0,1-0.3,1.4C126.9,139.6,126.7,139.1,127.2,138.7z"/>
	<path class="st5" d="M110.8,131c-0.1,1,0,2.2-1.5,2.2C108.7,131.8,109.4,130.9,110.8,131z"/>
	<path class="st3" d="M109.2,136.6c-0.1-0.3-0.3-0.4-0.6-0.3c0.4-0.6-1.2-1.8,0.6-2.1c0,0.8,0.2,1.5,0.8,2.1
		C109.8,136.5,109.5,136.5,109.2,136.6z"/>
	<path class="st2" d="M136.4,95.8c0,0,0-0.1,0.1-0.1C136.4,95.7,136.4,95.8,136.4,95.8C136.4,95.8,136.4,95.8,136.4,95.8z"/>
	<path class="st2" d="M138.2,98c-0.1,0.1-0.2,0.2-0.3,0.3c0,0,0,0,0,0C138,98.2,138.1,98.1,138.2,98L138.2,98z"/>
	<path class="st2" d="M138.2,98c0,0,0-0.1,0.1-0.1C138.3,97.9,138.3,97.9,138.2,98C138.2,98,138.2,98,138.2,98z"/>
	<path class="st1" d="M125.1,135.9c0,0-3.7-5.8-4.1-6.2c-0.4-0.4-6.6-2.9-10.7-2.9s-7.4,4.5-7.4,5.3s2.9,6.2,3.7,7.8
		c0.8,1.6,9.9,6.2,9.9,6.2L125.1,135.9z"/>
	<path class="st1" d="M136.6,138.4c0-0.4,0-4.1,0-4.1s2.1-4.1,2.5-4.1c0.4,0,9.1-2.9,9.1-2.9s0.4-0.8,2.5,0s4.5,2.1,4.5,2.1
		s4.9,3.3,4.1,4.1c-0.8,0.8-2.9,6.2-2.9,6.2s-6.2,2.1-7,2.5c-0.8,0.4-7,0.4-7,0.4L136.6,138.4z"/>
	<path class="st1" d="M102.4,125.2l24.3,4.5c0,0,1.6,0,1.2-1.2c-0.4-1.2,1.2-7.4,1.2-7.4s-11.5-4.1-11.9-4.1c-0.4,0-8.2-0.4-9.5-0.4
		c-1.2,0-3.3,1.2-3.3,1.2l-3.3,6.2l1.6,1.6"/>
	<path class="st2" d="M100.5,128.4c5.9-4.5,12-4.3,18.4-1.9c1.1,0.4,2,0.5,2.5-0.7c0.3-0.7-0.6-2.6-1.4-2.9
		c-4.6-1.6-9.3-2.2-14.1-1.3C103.2,122.2,100.7,125.3,100.5,128.4z"/>
	<path class="st1" d="M110.7,168.8l7.8,3.7l6.2-2.5l4.9-1.2c0,0,2-1.6,4.5,0c2.5,1.6,6.6,2.9,6.6,2.9l7.4-0.8l2.5-4.1
		c0,0,3.7-11.1,3.7-11.9s-2.9-4.5-3.7-4.5s-15.6,1.6-15.6,1.6l-7.4,0.4c0,0-3.7-1.6-4.1-1.6c-0.4,0-9.1-0.8-9.5-0.4
		c-0.4,0.4-3.3,2.9-3.3,4.5S110.7,168.8,110.7,168.8z"/>
	<path class="st2" d="M132.8,152.7c3.6-1.2,6.9,0.2,10.3,1.3c3.6,1.1,3.8,3.8,4.1,6.5c0.4,3-0.4,5.9-1.5,8.7
		c-0.3-1.7-0.5-3.5-0.9-5.2c-0.5-1.8-0.5-4-2.7-4.8c-0.6-0.3-1.2-0.6-1.8-0.9c-0.9-0.4-1.8-0.7-2.8-0.7c-1.8-0.4-3.7-0.7-5.6-0.7
		c-2.3-0.3-4.7-0.2-7,0c-2.4,0.2-4.8,0.3-7,1.3c-0.5,0.2-1.1,0.4-1.6,0.5c-0.6,0.4-1.2,0.8-1.4,1.6c-1,1.3-1,2.9-1.1,4.4
		c-0.2,1.9-0.3,3.8-0.4,5.7c-0.6,0-0.7-0.6-0.9-1c-1.2-3.5-1.4-7-1.1-10.6c0.3-3.2,6.2-7.6,9.4-7.1c0.6,0.1,1.2,0.1,1.8,0.1
		c1.2,0.4,2.4,0.8,3.6,1.1C128.4,153.5,130.6,153.6,132.8,152.7z"/>
	<path class="st3" d="M134.8,152.7c-2.2,0.9-4.4,0.8-6.6,0.2c-1.2-0.4-2.4-0.7-3.6-1.1c0-2.7,0.7-5.3,1-7.9c0.2-1.7,0.5-3.3,0.8-5
		c0.1-0.6,0.2-1.1,0.8-1.3c-0.1,0.4-0.1,0.8-0.2,1.2c-0.5,0.4-0.3,0.9-0.3,1.4c0,0.6-0.1,1.1-0.1,1.7c-0.4,2.8-0.7,5.5-0.7,8.3
		c0,1.1,0.4,1.5,1.4,1.6c2,1.1,4,0,6-0.2C134.4,151.3,135.4,151.1,134.8,152.7z"/>
	<g>
		<path class="st6" d="M118.9,158.5c0,0,5.4,0.6,11,0.7c5.6,0.1,10-0.7,10-0.7s0.2,9.1-10.7,9.2
			C119.7,167.9,118.9,158.5,118.9,158.5z"/>
		<g>
			<path class="st7" d="M121.3,159.9c0.5,1.3,1.6,1.7,2.8,1.9c1.7,0.4,3.5,0.4,5.3,0.5c1.7,0.1,3.5,0.1,5.2-0.2
				c1.5-0.3,2.8-1,3.1-1.7c0.2-0.5,0-1,0.1-1.5c-5.5,0.8-11.1,0.4-16.6-0.1c0,0.2,0,0.4,0.1,0.6
				C121.2,159.5,121.2,159.7,121.3,159.9z"/>
		</g>
		<path class="st8" d="M131.1,165c-2.2-0.1-4.6,0.5-6.3,2c1.2,0.5,2.6,0.8,4.3,0.8c2.6,0,4.6-0.6,6.1-1.4
			C134.1,165.5,132.8,165.1,131.1,165z"/>
	</g>
	<g>
		<path class="st9" d="M102.7,134c1.2,0.6,2.3,1.9,4.6,2.8c1.9,0.8,3.4,1,5.5,1.2c2.9,0.2,5.8,0,8.4-1.1c-0.1-0.3-0.2-0.6-0.4-0.9
			c-0.5-1.9-1.3-3.6-2.4-4.9c-2.7-2.4-6.3-3.7-10.1-2.8c-1.4,0.3-2.3,0.7-3.1,1.8c-1,1.3-0.9,1.9-1.2,3.4
			C103.9,133.6,103.4,133.7,102.7,134z M104.9,133.5c0-0.2-0.1-0.3-0.2-0.5c0.7-1.5,1.7-3.1,3.1-3.6c1.8-0.6,3.9-0.5,5.7-0.1
			c3.4,0.7,4.9,2.8,6.3,5.5c0.1,1.4-0.4,1.6-1.8,1.8c-1.5,0.2-3,0.3-4.5,0.2c-0.9-0.1-5.6-0.6-7.7-1.8c0,0,0-0.1,0-0.1
			c-0.1-0.3-0.8-0.9-0.9-1.2C104.9,133.6,104.9,133.5,104.9,133.5z"/>
		<g>
			<path class="st10" d="M104.3,133.6c1.8,2.9,6,3.6,8.3,3.7c1.4,0.1,6.2-0.5,7.1-0.8c0,0,0,0,0.1,0c0.3-0.2,0.4-0.4,0.4-0.6
				c0.1,0.1,0.4,0.4,0.3,0.2c-0.5-1.2-0.9-2.4-1.6-3.5c-1.2-2-3.9-3.4-6.3-3.9c-0.5-0.1-1.1-0.2-1.7-0.2c-1.9-0.2-4,0.1-5.2,1.6
				C105.1,130.8,104.5,132.5,104.3,133.6z"/>
			<path class="st11" d="M105,133.4c0.9-2.3,1.7-4.4,4.8-4.5c2.5,0,5.9,1,7.9,2.6c0.4,0.5,2.4,3.6,1.8,4.2c-0.2,0.2-1.3,0.6-1.6,0.6
				c-1.4,0.3-3,0.4-4.5,0.4C110.6,136.9,106.2,136.3,105,133.4z"/>
		</g>
		<g>
			<defs>
				<path id="SVGID_5_" d="M105,133.4c0.9-2.3,1.7-4.4,4.8-4.5c2.5,0,5.9,1,7.9,2.6c0.4,0.5,2.4,3.6,1.8,4.2
					c-0.2,0.2-1.3,0.6-1.6,0.6c-1.4,0.3-3,0.4-4.5,0.4C110.6,136.9,106.2,136.3,105,133.4z"/>
			</defs>
			<clipPath id="SVGID_1_">
				<use xlink:href="#SVGID_5_"  style="overflow:visible;"/>
			</clipPath>
			<g class="st12">
				<g>
					<path class="st13" d="M116.2,133.2c0,2.7-1.7,5-3.8,5c-2.1,0-3.8-2.2-3.8-5c0-2.7,1.7-5,3.8-5
						C114.5,128.2,116.2,130.5,116.2,133.2z"/>
					<path class="st14" d="M112.4,128.6c-1.9,0-3.4,2-3.4,4.5c0,2.5,1.5,4.5,3.4,4.5c1.9,0,3.4-2,3.4-4.5
						C115.9,130.6,114.3,128.6,112.4,128.6z"/>
					<path class="st15" d="M114.8,132.9c0,1.7-1.1,3.1-2.4,3.1c-1.3,0-2.4-1.4-2.4-3.1c0-1.7,1.1-3.1,2.4-3.1
						C113.7,129.8,114.8,131.2,114.8,132.9z"/>
					<path class="st16" d="M111.5,131.1c-0.2,0.8-0.7,1.3-1.2,1.2c-0.5-0.1-0.7-0.8-0.6-1.6c0.2-0.8,0.7-1.3,1.2-1.2
						C111.4,129.6,111.7,130.3,111.5,131.1z"/>
					<path class="st15" d="M114.3,135.4c-2.2,2.4-4.5,0.5-4.6-2.3c0-0.1-0.5,0.4-0.5,0.4c0.1,1.5,0.7,2.9,2.2,3.6
						c1.3,0.6,2.4-0.3,3.2-1.2C114.7,135.9,114.4,135.4,114.3,135.4z"/>
				</g>
				<path class="st15" d="M115.1,131.6c0,0,0.4,1.8-0.5,3.4l0.3,0.2C114.9,135.2,116.1,133.8,115.1,131.6z"/>
			</g>
		</g>
	</g>
	<g>
		<path class="st9" d="M155.4,133.4c-0.4-1.5-0.2-2-1.2-3.4c-0.8-1.1-1.8-1.5-3.1-1.8c-3.8-0.9-7.3,0.4-10.1,2.8
			c-1.1,1.3-1.9,3.1-2.4,4.9c-0.1,0.3-0.3,0.6-0.4,0.9c2.6,1.1,5.5,1.3,8.4,1.1c2.1-0.1,3.6-0.4,5.5-1.2c2.3-0.9,3.4-2.1,4.6-2.8
			C156,133.8,155.5,133.7,155.4,133.4z M154.6,133.7c-0.1,0.4-0.8,0.9-0.9,1.2c0,0,0,0.1,0,0.1c-2.1,1.2-6.8,1.7-7.7,1.8
			c-1.5,0.1-3,0-4.5-0.2c-1.4-0.1-1.9-0.4-1.8-1.8c1.4-2.6,2.9-4.8,6.3-5.5c1.9-0.4,3.9-0.5,5.7,0.1c1.4,0.5,2.4,2,3.1,3.6
			c-0.1,0.1-0.2,0.3-0.2,0.5C154.6,133.6,154.6,133.7,154.6,133.7z"/>
		<g>
			<g>
				<path class="st10" d="M153.5,130c-1.2-1.5-3.3-1.7-5.2-1.6c-0.6,0-1.1,0.1-1.7,0.2c-2.4,0.5-5.1,1.9-6.3,3.9
					c-0.6,1.1-1,2.3-1.6,3.5c-0.1,0.1,0.3-0.1,0.3-0.2c0,0.2,0.1,0.5,0.4,0.6c0,0,0,0,0.1,0c0.9,0.3,5.7,0.9,7.1,0.8
					c2.3-0.1,6.5-0.8,8.3-3.7C154.8,132.5,154.1,130.8,153.5,130z"/>
				<path class="st11" d="M145.9,136.8c-1.5,0-3.1-0.1-4.5-0.4c-0.2-0.1-1.3-0.4-1.6-0.6c-0.6-0.6,1.4-3.7,1.8-4.2
					c2-1.7,5.4-2.7,7.9-2.6c3.1,0.1,3.9,2.2,4.8,4.5C153.1,136.3,148.6,136.9,145.9,136.8z"/>
			</g>
			<g>
				<defs>
					<path id="SVGID_7_" d="M145.9,136.8c-1.5,0-3.1-0.1-4.5-0.4c-0.2-0.1-1.3-0.4-1.6-0.6c-0.6-0.6,1.4-3.7,1.8-4.2
						c2-1.7,5.4-2.7,7.9-2.6c3.1,0.1,3.9,2.2,4.8,4.5C153.1,136.3,148.6,136.9,145.9,136.8z"/>
				</defs>
				<clipPath id="SVGID_2_">
					<use xlink:href="#SVGID_7_"  style="overflow:visible;"/>
				</clipPath>
				<g class="st17">
					<g>
						<path class="st13" d="M150.6,133.2c0,2.7-1.7,5-3.8,5c-2.1,0-3.8-2.2-3.8-5c0-2.7,1.7-5,3.8-5
							C148.9,128.2,150.6,130.5,150.6,133.2z"/>
						<path class="st14" d="M146.8,128.6c-1.9,0-3.4,2-3.4,4.5c0,2.5,1.5,4.5,3.4,4.5c1.9,0,3.4-2,3.4-4.5
							C150.3,130.6,148.7,128.6,146.8,128.6z"/>
						<path class="st15" d="M149.1,132.9c0,1.7-1.1,3.1-2.4,3.1c-1.3,0-2.4-1.4-2.4-3.1c0-1.7,1.1-3.1,2.4-3.1
							C148.1,129.8,149.1,131.2,149.1,132.9z"/>
						<path class="st16" d="M145.9,131.1c-0.2,0.8-0.7,1.3-1.2,1.2c-0.5-0.1-0.7-0.8-0.6-1.6c0.2-0.8,0.7-1.3,1.2-1.2
							C145.8,129.6,146,130.3,145.9,131.1z"/>
						<path class="st15" d="M148.7,135.4c-2.2,2.4-4.5,0.5-4.6-2.3c0-0.1-0.5,0.4-0.5,0.4c0.1,1.5,0.7,2.9,2.2,3.6
							c1.3,0.6,2.4-0.3,3.2-1.2C149.1,135.9,148.8,135.4,148.7,135.4z"/>
					</g>
					<path class="st15" d="M149.5,131.6c0,0,0.4,1.8-0.5,3.4l0.3,0.2C149.3,135.2,150.4,133.8,149.5,131.6z"/>
				</g>
			</g>
		</g>
	</g>
	<path class="st18" d="M211.1,211.6c-3.1-0.8-6.4-1-9.4-2.2c-8.9-3.3-17.9-6.6-26.9-9.8c-0.5-0.2-1.2-0.8-1.6,0.2
		c-2,5.7-4,11.4-6.8,16.8c-0.6,1-1.2,2.1-2.1,2.9c-8.5,8-17.5,15.4-27.4,21.7c-5.2,3.3-9.9,3.6-15.3,0.4
		c-8.1-4.7-15.9-9.9-22.9-16.1c-4.1-3.6-6.9-7.9-8.9-12.9c-1.6-4-3.2-7.9-4.7-11.9c-0.6-0.7-1.2-0.3-1.8-0.1
		c-8.8,2.8-17.6,5.7-26.3,9c-8.4,3.2-16.7,6.5-24.6,10.9c-1.5,0.9-2.9,1.9-4.2,3c4.9,8,10.7,15.4,17.3,22c0.6,0.6,1.1,1.1,1.7,1.7
		c21.6,20.8,51,33.7,83.3,33.7c32.4,0,61.8-12.8,83.4-33.7c0.3-0.3,0.7-0.7,1-1c6.7-6.6,12.5-13.9,17.5-21.9
		C227.2,218.2,220.2,213.9,211.1,211.6z"/>
</g>
</svg>
