<?xml version="1.0" encoding="utf-8"?>
<!-- Generator: Adobe Illustrator 23.0.1, SVG Export Plug-In . SVG Version: 6.00 Build 0)  -->
<svg version="1.1" id="Layer_1" xmlns="http://www.w3.org/2000/svg" xmlns:xlink="http://www.w3.org/1999/xlink" x="0px" y="0px"
	 viewBox="0 0 264 280" style="enable-background:new 0 0 264 280;" xml:space="preserve">
<style type="text/css">
	.st0{fill-rule:evenodd;clip-rule:evenodd;fill:#E6E6E6;}
	.st1{fill:#E2A874;}
	.st2{fill:#060606;}
	.st3{fill:#D08F5E;}
	.st4{fill:#1D1D1C;}
	.st5{fill:#FDFDFD;}
	.st6{fill:#6B4037;}
	.st7{fill:#FDF4F0;}
	.st8{opacity:0.7;fill:#FA7079;enable-background:new    ;}
	.st9{fill:#653506;}
	.st10{fill:#FFFFFF;}
	.st11{clip-path:url(#SVGID_2_);}
	.st12{fill:#220300;}
	.st13{fill:#161616;}
	.st14{fill:#0A000B;}
	.st15{fill:#FFFAE2;}
	.st16{fill:#FBD0B4;}
	.st17{clip-path:url(#SVGID_4_);}
	.st18{fill:#060A16;}
</style>
<desc>Created with getavataaars.com</desc>
<g id="Mask">
</g>
<g>
	<g id="Circle-Background">
		<circle class="st0" cx="132" cy="160" r="120"/>
	</g>
	<path class="st1" d="M177.4,79.6c-0.4,1.5-0.4,3.1-0.4,4.6c-0.1,2.2-0.3,4.4-0.5,6.6c-2.3,0.5-2.7,2.6-3.1,4.4
		c-1.7,6.9-3.2,14-4.9,21c-1.7,7.1-3.2,14.1-5.9,21c-0.5,1.4-1,3-2.3,3.9c-6.2,4.5-12.7,5.8-19.9,2.8c-1.3-0.5-2.2-1.5-2.4-3
		c-0.3-1.5-0.5-3-0.8-4.5c0.3-0.4,0.8-0.4,1.3-0.4c5-0.4,8.5-2.6,9.9-7.7c0.3-1.2,0.8-2.6,1.9-3.3c3,1,3,3.9,3.5,6.2
		c0.5,2.2,0.8,4.5,1.2,6.7c1.4-3.7,2.4-7.5,1.9-11.2c-0.4-3.5-0.6-6.9-5.3-8.4c-4.4-1.3-8.5-3.1-13.2-1.7c0.6-1.9-0.5-1.7-1.8-1.5
		c-2.6,0.3-5.1,1.7-7.7,0.3c1.4,0,1.2-1,1.2-1.8c-0.4-5.3-0.8-10.7-0.8-15.9c0-0.4,0-0.8-0.5-0.4c-0.9,0.3-1,1-1,1.7
		c-0.4,2.2-0.8,4.2-1,6.4c-0.4,3.3-1.3,6.7-1.3,10.2c-0.8,0-1.5,0-2.3-0.1c-4.1-0.5-11.8,5.1-12.1,9.1c-0.4,4.6-0.1,9.3,1.4,13.6
		c0.1,0.5,0.3,1.2,1.2,1.3c0.1-2.4,0.3-4.9,0.5-7.3c0.3-1.9,0.1-4,1.4-5.7c2.2,1.8,4.6,3.3,6,5.9c2.3,4.1,5.7,5.7,10.2,4.9
		c-0.5,3.1-1.3,5.9-4.9,6.9c-7.1,2.1-13.6,1.4-19.8-2.8c-2.2-1.4-3.7-3.5-4.5-6c-1.4-4.8-3.1-9.4-4.8-14c-3.2-8.6-4.8-18-10.3-25.7
		c0-4-0.6-8-0.4-12c0-1.3,0-2.7,0.1-4c0.5,1,0.3,2.2,1,3.2c0.5-0.6,0.4-1.4,0.6-2.1c0.5-1.8,0-4,1.3-5.3c1.3-1.3,1.7-2.6,2.1-4.1
		c0.6-2.7,1.2-5.5,1.8-8.4c0.3-1.2,0.5-1.7,1.9-1.5c5.5,0.5,10.9,0.1,16.3-0.8c3.1-0.5,6.2-1.4,9.4-1.8c-0.4,0.4-0.9,0.8-1.3,1.2
		c0.4,0,0.5,0.1,0.6,0.1c6.9-0.8,13.9-1.8,19.7-6.3c0.6-0.5,0.9-0.4,0.8,0.4c-0.1,0.1-0.1,0.1-0.3,0.3h0.1c0.1,0,0.1-0.1,0-0.3
		c0.8,0.4,1.4-0.3,1.9-0.5c4.2-2.1,7.6-5.1,10.5-8.7c1.9-2.3,3.5-4.8,5.1-7.3c1.9,3.2,4.1,5.8,6.7,8c0.8,0.6,1.9,0.5,2.3,1.3
		c2.2,3.7,4.5,7.3,5.5,11.6c0.9,3.2,1.3,6.6,1.8,9.9C176.1,72,176.8,75.9,177.4,79.6z M148.2,90.8c-0.3,0-0.5,0.1-0.4,0.4
		c-1.3,0-1.7,1.2-2.3,1.9c-1.8,2.8-1.5,3.1,1.7,3.5c3.1,0.4,6.2,0.5,9.3,0.4c1.8-0.1,3.7-0.1,5.3-1.4c0.4-0.3,1.2-0.1,1.2-0.9
		c1.2-0.1,2.2-0.5,1.8-1.9c-0.4-1.5-1.3-2.8-2.8-3.7c-3-1.7-10.2-0.9-12.7,1.4C148.6,90.4,148.3,90.3,148.2,90.8z M139.5,78.1
		c0.1-0.1,0.3-0.3,0.3-0.5l-0.1-0.1C139.5,77.7,139.5,77.8,139.5,78.1c-0.1,0.1-0.3,0.3-0.4,0.4c-2.2,2.4-2.2,4.6,0,6.4
		c0.1,0,0.1,0.1,0.3,0.1c0-0.1-0.1-0.1-0.1-0.3c-0.4-2.1-0.8-4.2,0-6.3C139.2,78.3,139.3,78.2,139.5,78.1z M103.5,91.6
		c-0.6,0.3-0.5,0.8-0.4,1.3c0.1,0.1,0.1,0.1,0,0.1c-0.5,0.4-1,0.8-1.7,1.2c6.7,5.4,14,5.8,21.7,3.9c0.9-0.3,1.3-0.5,0.9-1.7
		c-0.5-1.7-1.3-3.2-2.1-4.8c-0.4-0.6-0.8-1.2-1.5-0.8c-0.1-0.1-0.1-0.1-0.3-0.3c0.3-1.3-0.4-1.5-1.5-1.3l0,0c0.3-0.8-0.5-1-0.9-1.3
		c-1.9-1-4.1-1.7-6.3-1.7c-1.4,0-2.8-0.4-4,0.9v-0.1v0.1c-0.6-0.1-1.2-0.1-1.3,0.6c-0.6,0.6-1.3,1.4-1.8,2.1
		C102.9,90,103.3,90.9,103.5,91.6L103.5,91.6z M129.4,83.6c-0.9,0.6-1.8,1.3-2.4,2.8C128.5,85.7,129.4,85,129.4,83.6
		c0,0,0-0.1,0.1-0.1C129.6,83.5,129.6,83.5,129.4,83.6z M169,85.4c-0.1-4-3.5-8-6.9-8.6c-6.2-1.2-12.2-0.4-18.1,1.7
		c-1,0.4-2.2,2.8-1.8,3.7c0.6,1.5,1.8,1.5,3.2,0.9C153.6,79.9,161.6,79.6,169,85.4z M98.3,78.7c2.1-1.5,3.9-2.3,5.7-3.2
		c3.9-1.9,4.8-1.8,7.8,1.3c1.9,1.8,3.7,3.7,5.5,5.7c2.4,2.4,5.7,2.3,7.3-0.3c0.6-1,0.8-1.7-0.5-2.3c-2.8-1.2-5.3-3.1-7.6-5
		c-7.7-6.2-12.5-5.4-17.9,2.8C98.7,77.8,98.6,78.1,98.3,78.7z M128.2,81.1c-0.8,1-1.9,1.9-2.1,3.6C127.6,84,128.2,82.7,128.2,81.1z"
		/>
	<path class="st1" d="M187.9,177.3c-2.6,7.3-5.1,14.7-8.7,21.6c-0.8,1.3-1.5,2.7-2.7,3.7c-10.9,10.3-22.5,19.8-35.2,27.9
		c-6.7,4.2-12.7,4.6-19.7,0.5c-10.4-6-20.4-12.7-29.4-20.7c-5.3-4.6-8.9-10.2-11.4-16.6c-2.1-5.1-4.1-10.2-6-15.3
		c5.8-2.6,11.6-5,17.2-8c2.4-1.3,3.7-3.1,4.4-5.7c0.9-3.5,1.4-7.1,2.1-10.7c0.3,0.4,0.5,0.8,0.8,1.2c0,0.3-0.1,0.5-0.1,0.8
		c0,2.7-1.5,5.4,0.6,7.8c3,3.2,6.8,5.1,10.8,6.9s8,2.7,12.2,1.2c6.8-2.3,13.9-2.6,21.1-1.3c4,0.8,8,1.4,12,0.4
		c6.6-1.7,13.2-8,10.9-15c0.3-0.3,0.5-0.5,0.8-0.8c0.6,3.2,1,6.4,1.9,9.6c0.8,2.6,2.1,4.4,4.5,5.7
		C178.3,173.1,183.1,175.2,187.9,177.3z"/>
	<path class="st2" d="M177.4,79.6c-0.6-3.9-1.3-7.6-1.9-11.4c-0.5-3.3-0.9-6.7-1.8-9.9c-1.2-4.1-3.5-7.8-5.5-11.6
		c-0.4-0.6-1.7-0.6-2.3-1.3c-2.7-2.2-4.9-4.9-6.7-8c-1.7,2.6-3.2,5-5.1,7.3c-3,3.6-6.4,6.7-10.5,8.7c-0.6,0.3-1.2,0.9-1.9,0.5l0,0
		c0-0.8-0.1-0.9-0.8-0.4c-5.8,4.6-12.7,5.5-19.7,6.3c-0.1,0-0.4,0-0.6-0.1c0.5-0.4,0.9-0.8,1.3-1.2c-3.2,0.4-6.3,1.3-9.4,1.8
		c-5.4,0.9-10.9,1.3-16.3,0.8c-1.4-0.1-1.7,0.4-1.9,1.5c-0.5,2.8-1.2,5.5-1.8,8.4c-0.4,1.5-0.8,3-2.1,4.1c-1.3,1.3-0.9,3.5-1.3,5.3
		c-0.1,0.6-0.1,1.4-0.6,2.1c-0.8-1-0.4-2.3-1-3.2c-0.8-6.6-1.8-13.2-2.2-19.8c-0.1-1.3-1-1.3-1.8-1.5c-6.8-2.4-13.2-5.8-19-10.2
		c-0.5-0.4-1.2-0.9-1.7-1.4c0.5-0.8,1.4,0,2.1-0.8c-2.4-2.8-4.9-5.8-7.3-8.6c0-0.1,0.1-0.1,0.1-0.3c2.6,1.2,5,2.8,7.8,3.6
		c0.1-1.5,0.1-1.5,3.7-0.9c-0.6-1.4-1.3-2.7-1.9-4.1c0.1-0.1,0.1-0.1,0.3-0.3c0.6-0.1,1.2,0.8,2.1,0.3c-2.3-3.7-5.3-7.1-6.7-11.8
		c3.1,1.3,5.9,2.3,8.7,3.5c0.3,0.3,0.5,0.3,0.9,0c-0.3-0.1-0.4-0.3-0.6-0.4c-0.4-0.4-0.6-0.8-1.3-1.4c4.9,0.5,9.4,0.4,14.4,0.3
		c-2.2-1.3-4.5-0.6-6.8-1.4c1.5-0.4,2.8-0.8,4.2-1.2c-0.8-0.9-1.9-0.5-2.8-1.3c6-3,11.3-6.9,17.5-9.3c5.5-2.2,11.2-3.3,17.2-3.1
		c0.6,0,1.3,0,1.9,0c0.1,0,0.4,0,1-0.1c-1.7-0.6-3-1.2-4.5-1.8c6.6-1.4,12.7-2.8,18.5,1.3c0.8-0.9,0.1-1.7,0.5-2.6
		c0.6,0.4,1.4,0.6,2.2,1c-0.1-1.8-0.3-3.5,0.3-5.3c2.2,4.2,5.1,7.6,9.1,10.2c1.4,0.9,2.6,1.5,3.2-0.6c0.9,0.6,1.5,1.4,2.7,1.5
		c-0.1-1-0.9-1.9-0.8-3.2c2.1,0.8,3.7,2.1,5.4,3.2c0.8,0.5,1.4,1,2.2,1.2c1.3,0.3,2.6,0.9,3-1.3c0.1-0.6,0.8-1,1.4-1.2
		c3.6-1.2,6.9-1.3,9.9,1.7c3.7,3.7,6.6,8.1,9.1,12.6c0.9,1.5,2.2,3,1,4.9c-0.4,0.6,0.4,1.2,0.8,1.7c1.9,2.7,3.1,5.7,3,9
		c0,0.4,0.3,0.8-0.4,0.9c-0.1-0.1-0.3-0.3-0.4,0v0.1c0.3,0.1,0.4,0,0.4-0.3c-0.9,0.5-0.1,1,0,1.4c1.2,3.7,1.3,7.5,0.9,11.3
		c-0.1,1.5-0.6,1.9-2.1,1.7c-0.6-0.1-1.5-0.5-1.4,0.9C181.6,65.6,179.2,72.5,177.4,79.6z M124.7,34c3.1,0.3,6-1.3,9.6-0.5
		c-6.3,3.5-12.7,5.7-19.2,7.7c2.3,0,4.8,0,7.1,0c-2.6,1.3-5.4,2.2-8.1,2.8c-2.8,0.6-5.7,1.2-8.6,1.8c7.2,1.5,14,1,20.8-0.8
		c0.1,0.9-1,0.8-0.9,1.5c2.3,0.3,4.2-1.2,6.8-1.5c-2.8,3.1-6.3,4.9-9.5,7.5c0.5,0,0.8,0,0.9,0c0.8-0.3,1.7-0.4,2.4-0.6
		c5.5-1.7,10-4.9,14.4-8.4l0,0c0,1.5-1.2,2.7-1.7,4.1c-0.1,0.3-0.4,0.6,0,0.9c0.3,0.3,0.6,0.1,0.9-0.1c0.9-0.6,1.7-1.5,2.8-1.7l0,0
		c0,0.9-0.6,1.3-1.2,1.8c-2.2,2.2-4.8,4.1-7.2,6c8.7-2.3,13.2-9,17.2-16.3c-0.4,1.3-0.8,2.6-1.2,4c1.8-1.9,2.3-4.2,3.2-6.6
		c0.9-2.3,1.9-4.5,4.8-5.7c-1.9-0.1-3.3-0.6-4.8-1.4c1-0.5,1.9-0.9,2.8-1.3c-0.5-0.8-1.7-0.9-1.9-1.9c0.8-0.5,1.7-0.5,2.6-0.8
		c0-0.8-1-0.8-1-1.7c0.3-0.1,0.6-0.3,0.9-0.4c1.8-0.5,2.1-1.5,0.9-2.8c-1.8-2.3-4.2-3.3-7.3-3.7c0.6,1.2,1.9,1.2,2.3,2.6
		c-1.3,0-2.3,0-3.5,0c0.4,0.9,1.7,0.9,1.5,2.2c-5.1-2.1-10.4-2.7-15.7-0.6c3.2,0.4,6,1.4,8.9,2.8c-2.4,0.1-4.6,0.9-7.1,2.1
		c1.7,0.4,3.1-0.3,4.5,0.8c-1.8,0.8-3.5,1.4-5.1,2.2C132.1,29.5,128.2,31.3,124.7,34c-0.1,0-0.4,0.1-0.5,0.1l0.1,0.1
		C124.4,34.2,124.6,34.1,124.7,34z M81,31.5c-1.8-1.9-5.9-3.5-8-3.3C75.6,29.2,78,30.4,81,31.5z M148.9,15.6c0,0,0.1,0,0.1-0.1
		l-0.1-0.1c0,0-0.1,0-0.1,0.1C148.9,15.6,148.9,15.6,148.9,15.6z"/>
	<path class="st2" d="M167.1,155.3c-0.3,0.3-0.5,0.5-0.8,0.8c-6.2,5.8-14,7.8-22,9.1c-8.9,1.4-17.9,1.3-26.7-1
		c-6.8-1.8-13.6-3.5-18.6-8.9c-0.3-0.4-0.5-0.8-0.8-1.2c-2.4-4.6-2.8-9.8-4-14.8c-1.8-7.8-3.2-15.8-4.5-23.7c0-0.4-0.3-0.8-0.4-1.2
		c-0.6-4.4-1.3-8.7-1.7-13.1c-0.3-1.9-0.9-4-0.3-5.9c5.5,7.7,6.9,17.1,10.3,25.7c1.8,4.6,3.3,9.3,4.8,14c0.8,2.6,2.3,4.5,4.5,6
		c6.2,4.2,12.7,4.9,19.8,2.8c3.5-1,4.4-3.9,4.9-6.9c1.8-1.4,3.7-1,5.7-0.8c0.3,1.5,0.5,3,0.8,4.5c0.3,1.4,1,2.3,2.4,3
		c7.2,3,13.8,1.7,19.9-2.8c1.3-0.9,1.8-2.4,2.3-3.9c2.7-6.8,4.2-13.9,5.9-21c1.7-6.9,3.1-14,4.9-21c0.4-1.7,0.8-3.9,3.1-4.4
		c-0.5,8-1,16.1-1.5,24c-0.6,5.9-1.3,11.8-1.9,17.6c-0.6,5.1-1.3,10.2-1.9,15.3C170.7,150.7,168.8,153,167.1,155.3z"/>
	<path class="st3" d="M175.1,114.8c0.5-8,1-16.1,1.5-24c0.1-2.2,0.3-4.4,0.5-6.6c1.5-1.2,3-2.6,5-3.1c2.6-0.6,4,0.1,4.1,2.8
		c0.3,3.5-0.3,6.8-0.4,10.3c-0.4,7.2-2.7,13.4-8,18.4C177,113.6,176.1,114.3,175.1,114.8z"/>
	<path class="st3" d="M87.4,95.6c-0.6,2.1,0,4,0.3,5.9c0.5,4.4,1.2,8.7,1.7,13.1c-5.5-3.9-8.7-9.3-9.8-15.8
		c-0.5-3.5-0.8-7.1-1.2-10.7c-0.1-1.5-0.1-3.2,0.3-4.8c0.5-2.3,1.5-2.8,3.9-2.3c1.7,0.4,3.1,1.5,4.5,2.4
		C86.7,87.5,87.4,91.4,87.4,95.6z"/>
	<path class="st2" d="M57.2,37.3c-0.3-0.1-0.4-0.3-0.6-0.4l0.1-0.1c0.3,0,0.5,0,0.6,0.3C57.3,37.2,57.2,37.2,57.2,37.3z"/>
	<path class="st2" d="M66.9,35.8c0-0.1-0.1-0.4-0.1-0.4c0.1-0.1,0.3,0,0.4,0.1C67.2,35.6,67.1,35.6,66.9,35.8z"/>
	<path class="st2" d="M169,85.4c-7.6-5.8-15.4-5.5-23.7-2.4c-1.4,0.5-2.6,0.6-3.2-0.9c-0.4-0.9,0.8-3.3,1.8-3.7
		c5.9-2.1,12-2.8,18.1-1.7C165.6,77.4,168.9,81.4,169,85.4z"/>
	<path class="st2" d="M98.3,78.7c0.3-0.6,0.3-0.9,0.4-1c5.3-8.2,10.2-9,17.9-2.8c2.3,1.9,4.8,3.9,7.6,5c1.4,0.5,1.2,1.3,0.5,2.3
		c-1.7,2.6-4.9,2.6-7.3,0.3c-1.9-1.9-3.7-3.7-5.5-5.7c-3.1-3.1-4-3.2-7.8-1.3C102.2,76.4,100.4,77.2,98.3,78.7z"/>
	<path class="st3" d="M148.2,123.7c0.8,0.4,1.5,0.8,2.3,1.2c-1.2,0.8-1.7,2.2-1.9,3.3c-1.3,5.1-4.9,7.3-9.9,7.7
		c-0.5,0-0.9,0-1.3,0.4c-1.9-0.3-4-0.5-5.7,0.8c-4.5,0.8-7.8-0.8-10.2-4.9c-1.4-2.4-3.9-4.1-6-5.9c0.3-1,1-1.5,1.8-2.1
		c4.4,0.4,8.6,0.4,12.9-0.8c0.9-0.5,1.9-0.6,3-0.8c1.4-0.4,3.1,0.3,4.2-0.9c2.4-0.1,4.8,0.3,7.2,0.9c-1,0.1-1.9,0.4-3,0.5
		c-7.5,1.2-14.9,1.9-22.5,2.4c-0.8-0.3-1.4-0.3-2.4,0c2.6,1.5,4.2,3.5,5.8,5.7c0.4,0.6,0.5,1.5,1.5,1.5c1,2.7,2.8,3.5,6,3.1
		c3.9-0.6,7.8-1.2,11.7-1.9c1.8-0.3,3-1.3,4-3C147.2,129,146.7,126,148.2,123.7z"/>
	<path class="st4" d="M149,90.4c2.7-2.2,9.8-3,12.7-1.4c1.4,0.8,2.3,2.2,2.8,3.7c0.4,1.4-0.6,1.8-1.8,1.9l0,0c0.3-0.6,1.3-1,0.8-2.1
		c-0.9-2.1-2.3-3.6-4.6-3.9c-1.9-0.3-3.9-0.3-5.8,0.5c1.4,1.7,2.1,3.7,1.5,5.8c-0.4,1.7,0.3,1.9,1.7,1.7c0,0.1,0,0.3,0,0.4
		c-3.1,0.1-6.2,0-9.3-0.4c-3.2-0.4-3.5-0.8-1.7-3.5c0.5-0.9,1-1.9,2.3-1.9l0,0c-0.5,0.6-0.3,1.3,0.1,1.8c0,0.1,0,0.3,0,0.4
		c-0.1,2.2,0.5,3.1,2.2,3.3c2.1,0.1,3-0.5,3.2-2.3c0.3-1.8-1-4-2.6-4.2c-0.6-0.1-0.8,0.4-1,0.8C149.4,90.7,149.2,90.5,149,90.4
		L149,90.4z"/>
	<path class="st3" d="M120.4,90.9c0.8-0.3,1.2,0.1,1.5,0.8c0.8,1.5,1.4,3.1,2.1,4.8c0.4,1,0,1.4-0.9,1.7c-7.7,2.1-15,1.5-21.7-3.9
		c0.6-0.4,1.2-0.8,1.7-1.2c0.3,1.2,1,1.8,1.9,2.4c0.1,0.3,0.5,0.4,0.8,0.4c0.6,0.9,1.7,1.2,2.7,1.4c0.5,0.1,1.4,0.4,1.2-0.8
		c0.3,0.3,0.6,0.3,0.9-0.1c0.9-1.7,1.8-3.3,1.3-5.3c1.8,0.8,1,2.2,0.9,3.5c0,0.9-1,1.5-0.5,2.4c-0.4-0.4-0.6-0.1-0.8,0.3
		c0,0.1,0.1,0.4,0.3,0.4c0.4,0,0.4-0.4,0.5-0.6h0.1h0.1c1.9,1,3.9,0,5.8,0.5c1.4,0.6,2.8-0.1,4.1-0.4c0.6-0.1,1.2-0.6,0.8-1.4
		c-0.8-1.4-1-3.1-2.3-4.2v0.1C120.7,91.3,120.6,91.1,120.4,90.9z"/>
	<path class="st5" d="M129.1,115.2c-1.2-0.1-1.8-0.6-1.8-2.1c0-3.6,0.4-7.2,0.9-10.7c0.1-0.8,0.1-1.4,0.1-2.2
		c0.4-0.5,0.4-1.2,0.4-1.8c0.1-0.5,0.1-1,0.3-1.5c0.5-0.4,0.5,0,0.5,0.4c0,5.4,0.4,10.7,0.8,15.9
		C130.2,114.3,130.5,115.2,129.1,115.2z"/>
	<path class="st4" d="M112.1,97.1c-0.5-1,0.5-1.7,0.5-2.4c0.1-1.3,0.9-2.7-0.9-3.5c-1-1.4-1.7-3.3-4-2.4c-1.8-0.1-2.6,1-1.9,2.8
		c0,0.4,0,0.8-0.1,1.2c-2.2,0.4-0.1,1.9-0.8,2.7l0,0c-0.9-0.6-1.7-1.3-1.9-2.4c0.1,0,0.1-0.1,0-0.1c0.4-0.4,0.5-0.8,0.4-1.3l0,0
		c0.5-0.4,0.6-1,0.8-1.5c0.6-0.6,1.3-1.4,1.8-2.1c0.5-0.1,1-0.3,1.3-0.6v-0.1v0.1c4-0.6,7.7,0.3,11.3,1.9l0,0
		c0.1,0.5,0.8,0.6,0.8,1.2l0,0c-2.3-1.2-4.6-2.4-7.5-2.6c1.9,3.1,2.2,6.2,0.3,9.1L112.1,97.1L112.1,97.1L112.1,97.1z"/>
	<path class="st3" d="M118.6,89.3c-3.6-1.8-7.3-2.6-11.3-1.9c1.2-1.3,2.6-0.9,4-0.9c2.3-0.1,4.4,0.6,6.3,1.7
		C118.3,88.2,118.9,88.4,118.6,89.3z"/>
	<path class="st3" d="M139,84.8c-2.2-1.8-2.2-4,0-6.4l0.1,0.1C138.3,80.5,138.7,82.7,139,84.8L139,84.8z"/>
	<path class="st3" d="M156.4,97c0-0.1,0-0.3,0-0.4c1.7-0.4,3.3-0.8,5-1.3c0.1,0.1,0.1,0.1,0.3,0.3C160.2,96.8,158.2,96.8,156.4,97z"
		/>
	<path class="st3" d="M128.2,81.1c0,1.5-0.4,2.7-2.1,3.6C126.2,83.1,127.4,82.2,128.2,81.1z"/>
	<path class="st3" d="M129.4,83.6c0,1.4-0.9,2.1-2.4,2.8C127.6,84.9,128.5,84.2,129.4,83.6L129.4,83.6z"/>
	<path class="st3" d="M119.4,90.4c0.1-0.6-0.6-0.8-0.8-1.2c1.2-0.3,1.8,0,1.5,1.3C119.9,90.5,119.7,90.5,119.4,90.4z"/>
	<path class="st4" d="M119.4,90.4c0.3,0,0.5,0.1,0.8,0.1c0.1,0.1,0.1,0.1,0.3,0.3c0.1,0.3,0.1,0.5,0.3,0.8
		C120.1,91.4,119.9,90.8,119.4,90.4L119.4,90.4z"/>
	<path class="st3" d="M104.2,90c-0.1,0.6-0.3,1.2-0.8,1.5C103.3,90.9,102.9,90,104.2,90z"/>
	<path class="st4" d="M162.7,94.7c0,0.8-0.8,0.6-1.2,0.9c-0.1-0.1-0.1-0.1-0.3-0.3C161.8,95.2,162.4,94.9,162.7,94.7
		C162.9,94.7,162.7,94.7,162.7,94.7z"/>
	<path class="st3" d="M107.3,87.2c-0.3,0.4-0.8,0.6-1.3,0.6C106.2,87.1,106.7,87.1,107.3,87.2z"/>
	<path class="st3" d="M103.5,91.6c0,0.5,0,1-0.4,1.3C102.9,92.3,102.7,91.8,103.5,91.6z"/>
	<path class="st3" d="M139.3,77.9c0-0.1,0.1-0.4,0.1-0.5l0.1,0.1C139.6,77.7,139.5,77.9,139.3,77.9
		C139.5,78.1,139.3,77.9,139.3,77.9z"/>
	<path class="st4" d="M148.2,90.8c0.1-0.5,0.5-0.4,0.8-0.4l0,0C148.9,90.8,148.5,90.8,148.2,90.8L148.2,90.8z"/>
	<path class="st4" d="M147.7,91.2c0-0.3,0.3-0.4,0.4-0.4l0,0C148.2,91.1,148,91.1,147.7,91.2L147.7,91.2z"/>
	<path class="st3" d="M129.4,83.6c0,0,0-0.1,0.1-0.1C129.6,83.5,129.6,83.5,129.4,83.6L129.4,83.6z"/>
	<path class="st2" d="M141.4,54.1c0.1,0.1,0.1,0.3,0,0.3h-0.1C141.3,54.4,141.3,54.3,141.4,54.1C141.4,54.3,141.4,54.1,141.4,54.1z"
		/>
	<path class="st3" d="M139.1,84.8c0,0.1,0.1,0.1,0.1,0.3C139.1,84.9,139.1,84.9,139.1,84.8C139,84.8,139.1,84.8,139.1,84.8z"/>
	<path class="st3" d="M139,78.3c0.1-0.1,0.3-0.3,0.4-0.4l0,0C139.3,78.2,139.2,78.3,139,78.3C139.1,78.4,139,78.3,139,78.3z"/>
	<path class="st3" d="M99,155.3c5.1,5.4,11.8,7.1,18.6,8.9c8.9,2.3,17.9,2.4,26.7,1c8-1.3,15.8-3.2,22-9.1c2.3,7.2-4.4,13.4-10.9,15
		c-4,1-8,0.4-12-0.4c-7.1-1.4-14.1-1.2-21.1,1.3c-4.4,1.4-8.2,0.5-12.2-1.2c-4-1.8-7.7-3.7-10.8-6.9c-2.3-2.4-0.8-5.3-0.6-7.8
		C98.8,155.9,99,155.6,99,155.3z"/>
	<path class="st2" d="M139.9,43.2c-4.4,3.6-8.9,6.8-14.4,8.4c-0.8,0.3-1.7,0.5-2.4,0.6c-0.1,0-0.4,0-0.9,0c3.2-2.6,6.7-4.4,9.5-7.5
		c-2.6,0.4-4.6,1.8-6.8,1.5c-0.1-0.8,1-0.6,0.9-1.5c-6.8,1.7-13.6,2.3-20.8,0.8c3.1-0.6,5.9-1.2,8.6-1.8c2.8-0.6,5.5-1.4,8.1-2.8
		c-2.3,0-4.8,0-7.1,0c6.4-2.1,12.9-4.2,19.2-7.7c-3.6-0.6-6.6,0.8-9.6,0.5l0,0c3.5-2.7,7.3-4.5,11.3-6.3c1.7-0.8,3.3-1.4,5.1-2.2
		c-1.3-1.2-2.8-0.4-4.5-0.8c2.4-1.2,4.6-1.8,7.1-2.1c-2.8-1.4-5.7-2.4-8.9-2.8c5.3-2.1,10.5-1.4,15.7,0.6c0.3-1.3-1.2-1.3-1.5-2.2
		c1.2,0,2.2,0,3.5,0c-0.4-1.4-1.7-1.4-2.3-2.6c3.1,0.4,5.5,1.4,7.3,3.7c1.2,1.4,0.8,2.4-0.9,2.8c-0.3,0.1-0.6,0.3-0.9,0.4
		c0,0.8,1.2,0.8,1,1.7c-0.9,0.3-1.8,0.3-2.6,0.8c0.1,1,1.3,1.2,1.9,1.9c-0.9,0.4-1.8,0.8-2.8,1.3c1.4,0.9,2.8,1.3,4.8,1.4
		c-2.8,1.2-3.9,3.5-4.8,5.7c-0.9,2.2-1.4,4.6-3.2,6.6c0.4-1.3,0.8-2.6,1.2-4c-4,7.3-8.5,14.1-17.2,16.3c2.4-1.9,5-3.7,7.2-6
		c0.5-0.5,1.2-0.9,1.2-1.8c0.1-0.1,0.3-0.3,0.4-0.4c0,0,0-0.1,0.1-0.1c0,0,0,0.1-0.1,0.1c-0.1,0.1-0.3,0.3-0.4,0.4
		c-1.2,0.3-1.9,1-2.8,1.7c-0.3,0.3-0.6,0.4-0.9,0.1c-0.4-0.3-0.1-0.6,0-0.9C138.7,45.9,139.9,44.9,139.9,43.2c0,0,0-0.1,0.1-0.1
		C139.9,43.1,139.9,43.2,139.9,43.2z"/>
	<path class="st2" d="M81,31.5c-3-1.3-5.4-2.3-8-3.3C75,28,79.2,29.6,81,31.5z"/>
	<path class="st2" d="M148.9,15.6l-0.1-0.1l0.1-0.1l0.1,0.1C149,15.6,149,15.6,148.9,15.6z"/>
	<path class="st2" d="M71.7,27.1c0.3,0.1,0.4,0.3,0.6,0.4c-0.3,0.3-0.6,0.1-0.9,0C71.4,27.3,71.6,27.3,71.7,27.1z"/>
	<path class="st2" d="M124.7,34c-0.1,0.1-0.3,0.3-0.4,0.3l-0.1-0.1C124.4,34.1,124.6,34,124.7,34L124.7,34z"/>
	<path class="st5" d="M183.6,43c-0.1,0.3-0.3,0.3-0.4,0.3c0,0-0.1-0.1,0-0.1C183.3,42.7,183.4,42.8,183.6,43L183.6,43z"/>
	<path class="st5" d="M119.2,125.8c7.6-0.5,15-1.3,22.5-2.4c1-0.1,1.9-0.4,3-0.5c1.3,0,2.4,0.4,3.6,0.9c-1.5,2.3-1,5.3-2.3,7.6
		c-0.9,1.7-2.2,2.6-4,3c-3.9,0.6-7.7,1.3-11.7,1.9c-3.2,0.5-4.9-0.4-6-3.1c-0.1-0.8-0.3-1.4-0.3-2.2c0-0.8,0-1.4-0.9-1.8
		C121.3,128.5,120.2,127.2,119.2,125.8z"/>
	<path class="st1" d="M137.4,121.9c-1.3,1.2-2.8,0.5-4.2,0.9c-1,0.3-2.1,0.3-3,0.8c-0.3-0.3-0.6-0.3-0.9-0.3
		c-3.2,0.5-6.6,0.5-9.8,0.3c2.8-1.4,5.9-1.4,9-1.7C131.4,121.7,134.3,121.5,137.4,121.9z"/>
	<path class="st5" d="M119.4,123.6c3.3,0.3,6.6,0.3,9.8-0.3c0.4,0,0.6-0.1,0.9,0.3c-4.2,1.2-8.5,1.2-12.9,0.8
		C118,124.1,118.8,123.8,119.4,123.6z"/>
	<path class="st4" d="M119.2,125.8c1,1.4,2.2,2.7,3.7,3.3c0.9,0.4,0.9,1,0.9,1.8c0,0.8,0.1,1.4,0.3,2.2c-1,0-1.2-0.9-1.5-1.5
		c-1.5-2.2-3.2-4.1-5.8-5.7C117.7,125.5,118.5,125.5,119.2,125.8z"/>
	<path class="st5" d="M162.9,94.7c-0.5,0.3-0.9,0.5-1.4,0.6c-1.7,0.4-3.3,0.8-5,1.3c-1.4,0.3-1.9,0-1.7-1.7c0.5-2.1-0.3-4-1.5-5.8
		c1.9-0.6,3.9-0.6,5.8-0.5c2.3,0.3,3.7,1.8,4.6,3.9C164,93.6,163.1,94,162.9,94.7z"/>
	<path class="st2" d="M149.6,90.8c0.3-0.4,0.5-0.8,1-0.8c1.4,0.3,2.8,2.3,2.6,4.2c-0.3,1.8-1.2,2.4-3.2,2.3
		c-1.7-0.1-2.4-1.2-2.2-3.3c0-0.1,0-0.3,0-0.4C149.4,93,149.4,91.8,149.6,90.8z"/>
	<path class="st5" d="M149.6,90.8c-0.3,1-0.4,2.2-1.8,2.1c-0.4-0.6-0.6-1.2-0.1-1.8c0.3,0,0.4-0.1,0.4-0.4c0.4,0,0.6,0,0.8-0.4
		C149.2,90.5,149.4,90.7,149.6,90.8z"/>
	<path class="st5" d="M119.4,90.4c0.4,0.4,0.6,1,1.3,1.2v-0.1c-0.3,0.4,0.1,0.6,0.3,0.9c2.3,4.2,1.9,4.8-2.8,5.1
		c-1.9-0.4-4,0.6-5.8-0.5c1.8-3.1,1.7-6-0.3-9.1C114.9,88,117.1,89.3,119.4,90.4z"/>
	<path class="st2" d="M105.6,92.7c0-0.4,0-0.8,0.1-1.2c2.1,0,1.8-1.5,1.9-2.8c2.3-0.9,3.1,1,4,2.4c0.5,2.1-0.4,3.6-1.3,5.3
		c-0.1,0.3-0.5,0.4-0.8,0.1c-0.9-0.4-2.1-0.3-3-1C105.9,94.8,105.6,93.8,105.6,92.7z"/>
	<path class="st4" d="M118.1,97.5c4.8-0.4,5.1-0.9,2.8-5.1c-0.1-0.3-0.4-0.5-0.3-0.9c1.3,1.2,1.5,2.8,2.3,4.2
		c0.4,0.8-0.1,1.4-0.8,1.4C121,97.4,119.5,98.1,118.1,97.5z"/>
	<path class="st4" d="M106.5,95.4c0.9,0.8,2.1,0.6,3,1c0.1,1.2-0.6,0.9-1.2,0.8c-0.9-0.3-2.1-0.5-2.7-1.4l0,0
		C106,95.8,106.4,95.8,106.5,95.4z"/>
	<path class="st4" d="M112.1,97.1c-0.1,0.3,0,0.6-0.5,0.6c-0.1,0-0.3-0.3-0.3-0.4C111.4,97,111.6,96.7,112.1,97.1L112.1,97.1z"/>
	<path class="st4" d="M105.6,95.8c-0.4,0-0.6-0.1-0.8-0.4l0,0C105.3,95.4,105.5,95.6,105.6,95.8L105.6,95.8z"/>
	<path class="st1" d="M128.8,98.6c0,0.6,0,1.3-0.4,1.8C128.4,99.8,128.2,99.2,128.8,98.6z"/>
	<path class="st5" d="M107.7,88.7c-0.1,1.3,0,2.8-1.9,2.8C105,89.8,105.9,88.6,107.7,88.7z"/>
	<path class="st3" d="M105.6,95.9c-0.1-0.4-0.4-0.5-0.8-0.4c0.5-0.8-1.5-2.3,0.8-2.7c0,1,0.3,1.9,1,2.7
		C106.4,95.8,106,95.8,105.6,95.9z"/>
	<path class="st2" d="M140.6,43.5c0,0,0-0.1,0.1-0.1C140.6,43.3,140.6,43.5,140.6,43.5L140.6,43.5z"/>
	<path class="st2" d="M142.9,46.3c-0.1,0.1-0.3,0.3-0.4,0.4l0,0C142.7,46.6,142.8,46.4,142.9,46.3L142.9,46.3z"/>
	<path class="st2" d="M142.9,46.3c0,0,0-0.1,0.1-0.1C143.1,46.2,143.1,46.2,142.9,46.3L142.9,46.3z"/>
	<path class="st1" d="M126.1,95c0,0-4.8-7.5-5.3-8s-8.5-3.7-13.8-3.7c-5.3,0-9.5,5.8-9.5,6.8s3.7,8,4.8,10c1,2.1,12.7,8,12.7,8
		L126.1,95z"/>
	<path class="st1" d="M140.9,98.3c0-0.5,0-5.3,0-5.3s2.7-5.3,3.2-5.3c0.5,0,11.7-3.7,11.7-3.7s0.5-1,3.2,0c2.7,1,5.8,2.7,5.8,2.7
		s6.3,4.2,5.3,5.3c-1,1-3.7,8-3.7,8s-8,2.7-9,3.2c-1,0.5-9,0.5-9,0.5L140.9,98.3z"/>
	<path class="st1" d="M96.9,81.3l31.2,5.8c0,0,2.1,0,1.5-1.5c-0.5-1.5,1.5-9.5,1.5-9.5s-14.8-5.3-15.3-5.3c-0.5,0-10.5-0.5-12.2-0.5
		c-1.5,0-4.2,1.5-4.2,1.5l-4.2,8l2.1,2.1"/>
	<path class="st2" d="M94.5,85.4c7.6-5.8,15.4-5.5,23.7-2.4c1.4,0.5,2.6,0.6,3.2-0.9c0.4-0.9-0.8-3.3-1.8-3.7
		c-5.9-2.1-12-2.8-18.1-1.7C97.9,77.4,94.7,81.4,94.5,85.4z"/>
	<path class="st1" d="M107.6,137.3l10,4.8l8-3.2l6.3-1.5c0,0,2.6-2.1,5.8,0s8.5,3.7,8.5,3.7l9.5-1l3.2-5.3c0,0,4.8-14.3,4.8-15.3
		s-3.7-5.8-4.8-5.8c-1,0-20.1,2.1-20.1,2.1l-9.5,0.5c0,0-4.8-2.1-5.3-2.1c-0.5,0-11.7-1-12.2-0.5c-0.5,0.5-4.2,3.7-4.2,5.8
		S107.6,137.3,107.6,137.3z"/>
	<path class="st2" d="M136,116.6c4.6-1.5,8.9,0.3,13.2,1.7c4.6,1.4,4.9,4.9,5.3,8.4c0.5,3.9-0.5,7.6-1.9,11.2
		c-0.4-2.2-0.6-4.5-1.2-6.7c-0.6-2.3-0.6-5.1-3.5-6.2c-0.8-0.4-1.5-0.8-2.3-1.2c-1.2-0.5-2.3-0.9-3.6-0.9c-2.3-0.5-4.8-0.9-7.2-0.9
		c-3-0.4-6-0.3-9,0c-3.1,0.3-6.2,0.4-9,1.7c-0.6,0.3-1.4,0.5-2.1,0.6c-0.8,0.5-1.5,1-1.8,2.1c-1.3,1.7-1.3,3.7-1.4,5.7
		c-0.3,2.4-0.4,4.9-0.5,7.3c-0.8,0-0.9-0.8-1.2-1.3c-1.5-4.5-1.8-9-1.4-13.6c0.4-4.1,8-9.8,12.1-9.1c0.8,0.1,1.5,0.1,2.3,0.1
		c1.5,0.5,3.1,1,4.6,1.4C130.3,117.7,133.2,117.8,136,116.6z"/>
	<path class="st3" d="M138.6,116.6c-2.8,1.2-5.7,1-8.5,0.3c-1.5-0.5-3.1-0.9-4.6-1.4c0-3.5,0.9-6.8,1.3-10.2c0.3-2.2,0.6-4.2,1-6.4
		c0.1-0.8,0.3-1.4,1-1.7c-0.1,0.5-0.1,1-0.3,1.5c-0.6,0.5-0.4,1.2-0.4,1.8c0,0.8-0.1,1.4-0.1,2.2c-0.5,3.6-0.9,7.1-0.9,10.7
		c0,1.4,0.5,1.9,1.8,2.1c2.6,1.4,5.1,0,7.7-0.3C138.1,114.8,139.3,114.6,138.6,116.6z"/>
	<g>
		<path class="st6" d="M118.1,124.1c0,0,6.9,0.8,14.1,0.9c7.2,0.1,12.9-0.9,12.9-0.9s0.3,11.7-13.8,11.8
			C119.2,136.2,118.1,124.1,118.1,124.1z"/>
		<g>
			<path class="st7" d="M121.2,125.9c0.6,1.7,2.1,2.2,3.6,2.4c2.2,0.5,4.5,0.5,6.8,0.6c2.2,0.1,4.5,0.1,6.7-0.3
				c1.9-0.4,3.6-1.3,4-2.2c0.3-0.6,0-1.3,0.1-1.9c-7.1,1-14.3,0.5-21.3-0.1c0,0.3,0,0.5,0.1,0.8
				C121.1,125.4,121.1,125.6,121.2,125.9z"/>
		</g>
		<path class="st8" d="M133.8,132.5c-2.8-0.1-5.9,0.6-8.1,2.6c1.5,0.6,3.3,1,5.5,1c3.3,0,5.9-0.8,7.8-1.8
			C137.7,133.1,136,132.6,133.8,132.5z"/>
	</g>
	<g>
		<g>
			<path class="st9" d="M99.3,92.1c2.3,3.7,7.7,4.6,10.7,4.8c1.8,0.1,8-0.6,9.1-1c0,0,0,0,0.1,0c0.4-0.3,0.5-0.5,0.5-0.8
				c0.1,0.1,0.5,0.5,0.4,0.3c-0.6-1.5-1.2-3.1-2.1-4.5c-1.5-2.6-5-4.4-8.1-5c-0.6-0.1-1.4-0.3-2.2-0.3c-2.4-0.3-5.1,0.1-6.7,2.1
				C100.4,88.5,99.6,90.7,99.3,92.1z"/>
			<path class="st10" d="M100.2,91.8c1.2-3,2.2-5.7,6.2-5.8c3.2,0,7.6,1.3,10.2,3.3c0.5,0.6,3.1,4.6,2.3,5.4
				c-0.3,0.3-1.7,0.8-2.1,0.8c-1.8,0.4-3.9,0.5-5.8,0.5C107.4,96.3,101.8,95.6,100.2,91.8z"/>
		</g>
		<g>
			<g>
				<defs>
					<path id="SVGID_1_" d="M100.2,91.8c1.2-3,2.2-5.7,6.2-5.8c3.2,0,7.6,1.3,10.2,3.3c0.5,0.6,3.1,4.6,2.3,5.4
						c-0.3,0.3-1.7,0.8-2.1,0.8c-1.8,0.4-3.9,0.5-5.8,0.5C107.4,96.3,101.8,95.6,100.2,91.8z"/>
				</defs>
				<clipPath id="SVGID_2_">
					<use xlink:href="#SVGID_1_"  style="overflow:visible;"/>
				</clipPath>
				<g class="st11">
					<g>
						<path class="st12" d="M114.7,91.6c0,3.5-2.2,6.4-4.9,6.4c-2.7,0-4.9-2.8-4.9-6.4c0-3.5,2.2-6.4,4.9-6.4S114.7,88.1,114.7,91.6
							z"/>
						<path class="st13" d="M109.8,85.7c-2.4,0-4.4,2.6-4.4,5.8s1.9,5.8,4.4,5.8s4.4-2.6,4.4-5.8C114.3,88.2,112.2,85.7,109.8,85.7z
							"/>
						<path class="st14" d="M112.8,91.2c0,2.2-1.4,4-3.1,4s-3.1-1.8-3.1-4c0-2.2,1.4-4,3.1-4C111.4,87.2,112.8,89,112.8,91.2z"/>
						<path class="st15" d="M108.6,88.9c-0.3,1-0.9,1.7-1.5,1.5c-0.6-0.1-0.9-1-0.8-2.1c0.3-1,0.9-1.7,1.5-1.5
							C108.5,86.9,108.9,87.8,108.6,88.9z"/>
						<path class="st14" d="M112.2,94.4c-2.8,3.1-5.8,0.6-5.9-3c0-0.1-0.6,0.5-0.6,0.5c0.1,1.9,0.9,3.7,2.8,4.6
							c1.7,0.8,3.1-0.4,4.1-1.5C112.7,95,112.3,94.4,112.2,94.4z"/>
					</g>
					<path class="st14" d="M113.2,89.5c0,0,0.5,2.3-0.6,4.4l0.4,0.3C113,94.1,114.5,92.3,113.2,89.5z"/>
				</g>
			</g>
		</g>
	</g>
	<g>
		<path class="st16" d="M164,92.2c-0.1,0.5-1,1.2-1.2,1.5v0.1c-2.7,1.5-8.7,2.2-9.9,2.3c-1.9,0.1-3.9,0-5.8-0.3
			c-1.8-0.1-2.4-0.5-2.3-2.3c1.8-3.3,3.7-6.2,8.1-7.1c2.4-0.5,5-0.6,7.3,0.1c1.8,0.6,3.1,2.6,4,4.6c-0.1,0.1-0.3,0.4-0.3,0.6
			C164,92.1,164,92.2,164,92.2z"/>
		<g>
			<g>
				<path class="st9" d="M162.6,87.5c-1.5-1.9-4.2-2.2-6.7-2.1c-0.8,0-1.4,0.1-2.2,0.3c-3.1,0.6-6.6,2.4-8.1,5
					c-0.8,1.4-1.3,3-2.1,4.5c-0.1,0.1,0.4-0.1,0.4-0.3c0,0.3,0.1,0.6,0.5,0.8c0,0,0,0,0.1,0c1.2,0.4,7.3,1.2,9.1,1
					c3-0.1,8.4-1,10.7-4.8C164.3,90.7,163.4,88.5,162.6,87.5z"/>
				<path class="st10" d="M152.8,96.2c-1.9,0-4-0.1-5.8-0.5c-0.3-0.1-1.7-0.5-2.1-0.8c-0.8-0.8,1.8-4.8,2.3-5.4
					c2.6-2.2,6.9-3.5,10.2-3.3c4,0.1,5,2.8,6.2,5.8C162.1,95.6,156.3,96.3,152.8,96.2z"/>
			</g>
			<g>
				<g>
					<defs>
						<path id="SVGID_3_" d="M152.8,96.2c-1.9,0-4-0.1-5.8-0.5c-0.3-0.1-1.7-0.5-2.1-0.8c-0.8-0.8,1.8-4.8,2.3-5.4
							c2.6-2.2,6.9-3.5,10.2-3.3c4,0.1,5,2.8,6.2,5.8C162.1,95.6,156.3,96.3,152.8,96.2z"/>
					</defs>
					<clipPath id="SVGID_4_">
						<use xlink:href="#SVGID_3_"  style="overflow:visible;"/>
					</clipPath>
					<g class="st17">
						<g>
							<path class="st12" d="M158.9,91.6c0,3.5-2.2,6.4-4.9,6.4s-4.9-2.8-4.9-6.4c0-3.5,2.2-6.4,4.9-6.4
								C156.7,85.1,158.9,88.1,158.9,91.6z"/>
							<path class="st13" d="M154,85.7c-2.4,0-4.4,2.6-4.4,5.8s1.9,5.8,4.4,5.8s4.4-2.6,4.4-5.8C158.5,88.2,156.4,85.7,154,85.7z"/>
							<path class="st14" d="M157,91.2c0,2.2-1.4,4-3.1,4c-1.7,0-3.1-1.8-3.1-4c0-2.2,1.4-4,3.1-4C155.7,87.2,157,89,157,91.2z"/>
							<path class="st15" d="M152.8,88.9c-0.3,1-0.9,1.7-1.5,1.5c-0.6-0.1-0.9-1-0.8-2.1c0.3-1,0.9-1.7,1.5-1.5
								C152.7,86.9,153,87.8,152.8,88.9z"/>
							<path class="st14" d="M156.4,94.4c-2.8,3.1-5.8,0.6-5.9-3c0-0.1-0.6,0.5-0.6,0.5c0.1,1.9,0.9,3.7,2.8,4.6
								c1.7,0.8,3.1-0.4,4.1-1.5C157,95,156.6,94.4,156.4,94.4z"/>
						</g>
						<path class="st14" d="M157.5,89.5c0,0,0.5,2.3-0.6,4.4l0.4,0.3C157.2,94.1,158.6,92.3,157.5,89.5z"/>
					</g>
				</g>
			</g>
		</g>
	</g>
	<path class="st18" d="M132,280c53.8,0,99.4-35.4,114.6-84.2c-3.1-1.4-6.3-2.5-9.9-3.4c-4-1-8.2-1.3-12.1-2.8
		c-11.4-4.2-23-8.5-34.6-12.6c-0.6-0.3-1.5-1-2.1,0.3c-2.6,7.3-5.1,14.7-8.7,21.6c-0.8,1.3-1.5,2.7-2.7,3.7
		c-10.9,10.3-22.5,19.8-35.2,27.9c-6.7,4.2-12.7,4.6-19.7,0.5c-10.4-6-20.4-12.7-29.4-20.7c-5.3-4.6-8.9-10.2-11.4-16.6
		c-2.1-5.1-4.1-10.2-6-15.3c-0.8-0.9-1.5-0.4-2.3-0.1c-11.3,3.6-22.6,7.3-33.8,11.6c-6.9,2.6-13.7,5.3-20.3,8.3
		C34.1,245.7,79.1,280,132,280z"/>
	<path class="st2" d="M94.9,52.2l31.7,3l7.6-0.7l3-0.3l5-2.5l11.6-9.3c0,0,6.3-8.3,7.3-9.8c1-1.5,2.3-16.1,2.3-16.1
		s-12.7-0.9-14.6-1.1s-21.6,0.8-25.9,2.1c-4.3,1.3-15.1,11.1-18.9,16.1c-3.8,5-8.8,17.6-8.8,17.6"/>
</g>
</svg>
