<svg width="226" height="206" fill="none" xmlns="http://www.w3.org/2000/svg"><path d="M113.499 205.705c56.757 0 102.768-46.011 102.768-102.768C216.267 46.181 170.256.17 113.499.17 56.743.17 10.732 46.18 10.732 102.937s46.01 102.768 102.767 102.768Z" fill="#E41D38"/><path d="M113.499 176.582c40.672 0 73.643-32.972 73.643-73.644 0-40.672-32.971-73.643-73.643-73.643-40.672 0-73.643 32.971-73.643 73.643 0 40.672 32.97 73.644 73.643 73.644Z" fill="#204392"/><path d="M112.942 85.662h-18.5V70.34c0-1.666-.318-2.788-.959-3.361-.636-.574-1.808-.859-3.508-.859H82.48c-1.704 0-2.871.29-3.508.859-.636.573-.958 1.695-.958 3.36v64.109c0 1.67.318 2.792.958 3.361.636.573 1.808.858 3.508.858h7.496c1.7 0 2.872-.285 3.508-.858.636-.573.959-1.695.959-3.361v-15.01h18.5v16.885c0 10.318-5.797 15.479-17.383 15.479H76.9c-11.59 0-17.383-5.161-17.383-15.479V68.459c0-10.318 5.793-15.479 17.383-15.479h18.66c11.586 0 17.383 5.161 17.383 15.48v17.202ZM169.081 85.662H150.58V70.34c0-1.666-.318-2.788-.958-3.361-.636-.574-1.808-.859-3.508-.859h-7.496c-1.704 0-2.872.29-3.508.859-.636.573-.959 1.695-.959 3.36v64.109c0 1.67.319 2.792.959 3.361.636.573 1.808.858 3.508.858h7.496c1.7 0 2.872-.285 3.508-.858.636-.573.958-1.695.958-3.361v-15.01h18.501v16.885c0 10.318-5.797 15.479-17.383 15.479h-18.66c-11.59 0-17.383-5.161-17.383-15.479V68.459c0-10.318 5.793-15.479 17.383-15.479h18.66c11.586 0 17.383 5.161 17.383 15.48v17.202Z" fill="#fff"/><path d="M119.078 115.942c-.46-.741-.92-1.352-1.377-1.867-1.377.871-1.967 1.189-3.051 1.578-1.741.611-3.642.934-5.642.934-3.152 0-5.777-.871-7.35-2.411-1.281-1.285-2.068-3.248-2.068-5.245 0-1.996.753-3.859 2.197-5.341.984-1.03 1.838-1.641 3.839-2.637l-.754-.837c-1.641-1.867-2.197-3.089-2.197-4.985 0-4.052 3.445-6.597 8.957-6.597 5.513 0 8.761 2.512 8.761 6.4 0 3.123-1.771 5.245-6.04 7.208l4.001 4.022c1.742-1.929 2.591-3.377 3.412-5.822l4.989 2.897c-1.641 3.344-2.725 4.922-4.529 6.789l2.461 2.478c.787.803 2.231 2.155 3.642 3.44h-9.255l.004-.004Zm-10.008-11.163c-1.117.645-1.54.933-2 1.352-.724.644-1.084 1.448-1.084 2.348 0 1.8 1.444 2.993 3.578 2.993 1.411 0 2.658-.419 4.366-1.545l-4.855-5.148h-.005Zm2.625-6.689c1.904-.933 2.658-1.703 2.658-2.733 0-1.222-1.051-1.997-2.658-1.997s-2.725.837-2.725 2.156c0 .74.427 1.607 1.147 2.348l.657.645.921-.419Z" fill="#E41D38"/><path d="M22.356 122.389a.836.836 0 0 0 .452.427c.205.083.389.142.552.171l9.732 1.465c.276.034.498.063.665.08.168.016.323.008.465-.034.105-.029.167-.071.18-.121.013-.05.03-.109.05-.172l.477-.138 1.151 3.993-.477.138a.638.638 0 0 1-.13-.15c-.037-.059-.117-.067-.238-.034a.898.898 0 0 0-.347.23c-.126.122-.277.256-.444.402l-7.76 6.877a.97.97 0 0 0-.26.39 1.214 1.214 0 0 0-.058.389l-.478.138-1.084-3.754.398-.113c.025.087.08.171.159.255.08.079.192.1.335.063a.789.789 0 0 0 .276-.139c.08-.062.18-.138.306-.23l1.301-1.147-1.632-5.659-1.64-.33a5.103 5.103 0 0 0-.432-.063.956.956 0 0 0-.322.021c-.143.042-.218.109-.226.209-.009.096.008.226.054.385l-.477.138-1.021-3.545.477-.138-.004-.004Zm6.935 7.567 3.826-3.423-4.985-.599 1.16 4.022ZM28.274 140.346c.122.267.235.435.34.51.104.076.221.08.355.017l9.36-4.29c.133-.063.204-.155.217-.281.013-.125-.042-.322-.163-.59l.452-.205 1.741 3.805-.452.205c-.213-.469-.448-.645-.695-.528l-9.359 4.291c-.251.113-.268.406-.054.87l-.452.205-1.742-3.804.452-.205ZM46.674 149.704c.904 1.361 1.386 2.57 1.444 3.634.059 1.063-.456 1.954-1.54 2.679-.414.276-.829.443-1.252.502a3.342 3.342 0 0 1-1.239-.05 3.822 3.822 0 0 1-1.13-.457 5.614 5.614 0 0 1-.958-.72l-1.783 4.429a1.58 1.58 0 0 0-.113.653c.012.201.05.402.117.598l-.414.277-2.332-3.508.415-.276c.133.197.267.251.405.159.151-.101.315-.373.482-.816l1.498-3.608-2.118-3.186-3.277 2.181c-.121.084-.176.188-.163.326.012.134.05.247.109.34l-.415.276-2.03-3.047.414-.277c.185.277.39.335.62.184l8.572-5.7c.23-.151.252-.365.072-.641l.414-.276 4.206 6.324h-.004Zm-4.382 2.851c.996 1.498 1.967 1.93 2.913 1.302.381-.256.565-.637.549-1.143-.017-.506-.285-1.151-.804-1.93l-2.411-3.62-2.658 1.77 2.41 3.621ZM63.028 171.738a.427.427 0 0 0 .059-.092.648.648 0 0 1 .075-.113c.059-.071.067-.226.025-.461-.042-.238-.146-.519-.318-.849a6.475 6.475 0 0 0-.687-1.047 7.264 7.264 0 0 0-1.071-1.08 5.961 5.961 0 0 0-1.557-.946 4.05 4.05 0 0 0-1.595-.297 3.544 3.544 0 0 0-1.544.402c-.498.255-.955.641-1.377 1.151-.419.511-.704 1.047-.842 1.607a4.394 4.394 0 0 0-.104 1.662c.07.549.247 1.059.519 1.536.272.478.615.884 1.025 1.223.381.314.812.586 1.29.816.476.226.933.41 1.372.544.435.134.82.209 1.155.222.335.012.553-.042.658-.172l.138-.171c.07-.084.121-.164.155-.231l.41-.021-.285 3.546-.301-.071c-.113-.21-.201-.348-.272-.402-.113-.092-.352-.18-.712-.264a24.21 24.21 0 0 1-1.327-.36 10.167 10.167 0 0 1-1.7-.707 10.618 10.618 0 0 1-1.87-1.256 8.852 8.852 0 0 1-1.704-1.871 6.131 6.131 0 0 1-.97-2.281 6.112 6.112 0 0 1 .033-2.508c.184-.858.602-1.682 1.255-2.477.653-.792 1.382-1.361 2.185-1.696a5.963 5.963 0 0 1 2.466-.481 6.708 6.708 0 0 1 2.494.544c.82.343 1.578.804 2.273 1.377.54.444.988.9 1.352 1.365.364.469.666.904.9 1.31.235.406.423.753.57 1.042.146.285.267.469.364.553a.33.33 0 0 0 .234.083c.084 0 .167.009.247.025l.134.36-3.064.863-.092-.364.004-.013ZM75.2 175.095a10.296 10.296 0 0 1 2.323 1.695c.662.649 1.16 1.356 1.495 2.122.334.766.49 1.583.456 2.453-.034.871-.297 1.762-.796 2.683-.498.921-1.1 1.633-1.812 2.135a5.48 5.48 0 0 1-2.302.958c-.825.139-1.683.097-2.574-.125a11.534 11.534 0 0 1-2.67-1.051 11.521 11.521 0 0 1-2.345-1.657c-.674-.624-1.18-1.323-1.515-2.089a5.513 5.513 0 0 1-.456-2.453c.033-.87.297-1.762.795-2.683.498-.921 1.1-1.632 1.812-2.135a5.48 5.48 0 0 1 2.303-.958 6.906 6.906 0 0 1 2.595.088c.904.197 1.8.536 2.687 1.017h.004Zm-.971 1.791a5.235 5.235 0 0 0-1.65-.565 4.893 4.893 0 0 0-1.711.013 4.11 4.11 0 0 0-1.553.645c-.477.326-.875.778-1.189 1.36-.314.582-.477 1.159-.485 1.741-.013.578.092 1.13.31 1.653a4.93 4.93 0 0 0 .925 1.44c.401.436.858.791 1.377 1.072.514.28 1.067.469 1.649.565a4.892 4.892 0 0 0 1.712-.013 4.106 4.106 0 0 0 1.553-.644c.477-.327.874-.779 1.188-1.361.314-.581.477-1.159.486-1.741a4.106 4.106 0 0 0-.31-1.653 4.944 4.944 0 0 0-.925-1.44 5.197 5.197 0 0 0-1.377-1.072ZM81.224 191.026c.318.092.514.004.59-.259l2.863-9.887c.075-.264-.042-.444-.36-.536l.138-.477 3.888 1.126-.138.477c-.13-.016-.2.009-.221.08-.026.088.1.381.376.883l4.403 8.551 2.072-7.166c.076-.263-.062-.447-.414-.548l.138-.477 3.227.933-.138.478c-.318-.093-.515-.005-.59.259l-2.863 9.887c-.075.263.042.443.36.536l-.138.477-3.437-.997.139-.477c.12.038.196.009.221-.079.021-.071-.029-.218-.142-.444a58.959 58.959 0 0 1-.393-.774l-4.538-8.878-2.227 7.693c-.075.264.072.452.44.557l-.138.477-3.252-.942.138-.477-.004.004ZM100.817 195.949c.422.029.64-.092.661-.369l.703-10.271c.017-.277-.184-.427-.602-.457l.033-.494 7.635.524c1.08.075 1.992.309 2.737.711.745.402 1.34.896 1.787 1.49.448.59.758 1.256.938 1.997a7.3 7.3 0 0 1 .188 2.26 7.761 7.761 0 0 1-.481 2.214 5.263 5.263 0 0 1-1.176 1.85c-.515.528-1.16.938-1.934 1.235-.774.297-1.703.406-2.783.335l-7.744-.531.034-.494h.004Zm6.94-1.072c.569.038 1.109.034 1.628-.012a3.042 3.042 0 0 0 1.381-.457c.402-.255.737-.649 1.005-1.172.263-.523.431-1.243.494-2.16.062-.916 0-1.64-.197-2.18-.193-.536-.473-.95-.837-1.243a3 3 0 0 0-1.31-.586 13.352 13.352 0 0 0-1.612-.21l-3.57-.243-.549 8.02 3.571.243h-.004ZM119.858 196.447c.293-.025.489-.076.594-.147.105-.071.151-.184.138-.33l-.887-10.255c-.013-.147-.076-.247-.193-.302-.113-.054-.318-.071-.611-.042l-.042-.493 4.169-.36.042.493c-.511.047-.758.206-.733.478l.888 10.255c.025.276.293.389.804.343l.041.494-4.169.36-.041-.494ZM133.009 194.655a.484.484 0 0 0 .247-.155c.075-.084.096-.197.063-.339l-2.047-8.936-3.487.799a.839.839 0 0 0-.377.201c-.108.1-.146.23-.108.393l-.482.109-.707-3.085.481-.108c.059.251.159.406.306.468a.677.677 0 0 0 .435.042l9.552-2.189a.707.707 0 0 0 .372-.226c.105-.117.13-.301.072-.552l.481-.109.707 3.085-.481.108c-.038-.159-.126-.263-.268-.305a.826.826 0 0 0-.427-.017l-3.487.8 2.047 8.936c.063.268.251.364.574.293l.108.481-3.461.792-.109-.482-.004-.004ZM145.081 191.265c.272-.105.452-.205.531-.306.08-.1.092-.217.042-.356l-3.675-9.614c-.05-.138-.142-.218-.268-.239-.125-.021-.326.021-.598.126l-.176-.465 3.909-1.494.176.465c-.481.184-.67.401-.573.661l3.675 9.615c.096.255.389.293.866.108l.176.465-3.91 1.494-.175-.464v.004ZM154.356 174.031a10.307 10.307 0 0 1 2.662-1.088c.9-.222 1.762-.276 2.591-.159a5.548 5.548 0 0 1 2.327.896c.724.485 1.348 1.176 1.867 2.084.519.908.812 1.796.866 2.662a5.545 5.545 0 0 1-.389 2.466c-.314.774-.804 1.485-1.457 2.126a11.281 11.281 0 0 1-2.298 1.72c-.874.502-1.753.879-2.641 1.126a6.31 6.31 0 0 1-2.57.197 5.514 5.514 0 0 1-2.327-.896c-.724-.481-1.348-1.176-1.867-2.084-.523-.909-.812-1.792-.866-2.662a5.554 5.554 0 0 1 .389-2.466c.314-.774.795-1.494 1.436-2.164a10.406 10.406 0 0 1 2.277-1.758Zm1.017 1.762a5.191 5.191 0 0 0-1.348 1.11 4.891 4.891 0 0 0-.887 1.465 4.067 4.067 0 0 0-.264 1.661c.025.578.205 1.156.536 1.725.33.573.736 1.013 1.226 1.327a4.03 4.03 0 0 0 1.57.602c.557.088 1.13.08 1.712-.033a5.273 5.273 0 0 0 2.984-1.716c.389-.448.687-.934.888-1.465.2-.532.293-1.084.263-1.662-.025-.578-.205-1.155-.536-1.724-.33-.574-.74-1.013-1.226-1.327a4.026 4.026 0 0 0-1.57-.603 4.91 4.91 0 0 0-1.712.033 5.292 5.292 0 0 0-1.636.607ZM171.065 177.268c.247-.222.276-.435.092-.64l-6.902-7.639c-.184-.206-.398-.197-.645.025l-.33-.369 3.001-2.712.331.368c-.084.101-.101.176-.051.231.063.067.377.117.946.146l9.59.758-5.002-5.534c-.184-.205-.415-.184-.687.063l-.33-.368 2.49-2.252.331.368c-.247.222-.276.435-.092.64l6.902 7.639c.184.205.398.197.645-.025l.33.369-2.653 2.398-.331-.368c.096-.088.113-.164.05-.231-.05-.054-.201-.092-.452-.108-.251-.017-.54-.042-.862-.072l-9.937-.812 5.37 5.944c.184.205.419.176.708-.079l.33.368-2.511 2.269-.331-.369v-.008ZM185.493 162.977c.184-.23.285-.406.302-.536.016-.125-.03-.234-.147-.326l-8.066-6.396c-.113-.092-.23-.113-.351-.067-.117.046-.268.184-.452.415l-.39-.31 2.6-3.278.389.31c-.318.402-.373.691-.155.862l8.066 6.396c.218.172.481.055.804-.347l.389.31-2.599 3.277-.39-.31ZM192.019 154.539c.159-.289.117-.502-.121-.632l-9.012-4.977c-.243-.134-.44-.054-.603.235l-.435-.239 1.954-3.541.436.238c-.046.122-.038.201.029.235.08.046.393-.013.942-.172l9.313-2.402-6.53-3.604c-.243-.134-.452-.038-.628.28l-.435-.238 1.624-2.939.435.239c-.159.289-.117.502.122.632l9.012 4.977c.242.134.439.054.602-.235l.436.239-1.729 3.131-.435-.239c.063-.113.054-.192-.03-.234-.062-.034-.217-.021-.464.042-.243.062-.523.134-.842.213l-9.66 2.465 7.011 3.872c.243.134.456.03.64-.305l.436.238-1.637 2.964-.435-.239.004-.004ZM197.033 123.665l-.28.26a2.613 2.613 0 0 0-.276-.139c-.159-.046-.364.017-.615.189a3.952 3.952 0 0 0-.783.745 7.28 7.28 0 0 0-1.323 2.507 7.851 7.851 0 0 0-.326 1.913 4.539 4.539 0 0 0 .255 1.741c.192.536.506 1.013.938 1.432.431.418 1.017.732 1.753.954.737.222 1.398.264 1.984.134a3.71 3.71 0 0 0 1.541-.733 4.786 4.786 0 0 0 1.117-1.289 6.397 6.397 0 0 0 .683-1.519 14.94 14.94 0 0 0 .485-2.198 6.16 6.16 0 0 0-.05-2.042l-1.662-.498-.812 2.716a1.034 1.034 0 0 0-.029.536c.037.163.155.297.356.393l-.143.473-2.716-.812.142-.473c.188.017.327-.037.423-.163.096-.125.171-.285.23-.477l1.545-5.169.473.142c.025.18.071.31.142.385.071.08.197.147.372.197l2.508.749c.159.046.276.059.347.033.075-.025.176-.117.297-.272l.318.097a9.308 9.308 0 0 1 .365 2.335c.02.574-.013 1.218-.105 1.938s-.264 1.503-.515 2.344c-.343 1.143-.779 2.139-1.31 2.985-.532.845-1.147 1.515-1.85 2.005a5.376 5.376 0 0 1-2.302.92c-.833.126-1.712.051-2.646-.23-.933-.28-1.712-.699-2.34-1.26a5.467 5.467 0 0 1-1.431-2.038c-.326-.795-.49-1.695-.486-2.704 0-1.005.176-2.076.519-3.223a8.531 8.531 0 0 1 .729-1.766c.28-.49.548-.909.803-1.252.26-.364.49-.649.687-.858.197-.209.314-.377.352-.498.041-.138.058-.251.054-.327a1.045 1.045 0 0 0-.092-.314l.251-.267 2.419 2.39.004.008ZM63.752 23.01c-.188-.271-.448-.288-.779-.058l-.284-.406 3.47-2.432.284.406a.521.521 0 0 0-.209.297c-.033.126-.004.256.088.39l7.17 10.234c.096.134.205.21.34.217.129.009.246-.02.35-.096l.285.406-3.47 2.432-.284-.406c.33-.23.402-.481.213-.753L67.96 29 60.7 34.085l2.967 4.24c.096.134.205.21.34.218.129.008.246-.021.35-.096l.285.406-3.403 2.386-.284-.407c.284-.2.335-.435.142-.707l-7.17-10.234c-.188-.272-.427-.305-.711-.105l-.285-.406 3.403-2.385.285.406a.522.522 0 0 0-.21.297c-.033.125-.004.255.088.389l2.683 3.834 7.258-5.085-2.683-3.835-.004.009ZM86.535 14.476c-.075-.188-.201-.301-.385-.335-.184-.037-.452.017-.812.16l-8.296 3.277 1.255 3.173 5.02-1.984c.338-.134.585-.285.736-.456.15-.168.146-.448-.009-.842l.46-.184 1.579 3.993-.46.184c-.155-.393-.348-.607-.582-.644-.23-.038-.52.012-.858.146l-5.02 1.984 1.395 3.533 8.551-3.378c.256-.1.44-.243.557-.427a.612.612 0 0 0 .05-.582l.46-.184 1.386 3.508-.46.184c-.1-.255-.24-.368-.415-.34a3.37 3.37 0 0 0-.649.198L78.11 30.173l-.184-.46a.539.539 0 0 0 .276-.243c.063-.113.067-.247.004-.402l-4.591-11.624c-.063-.155-.155-.251-.277-.289a.52.52 0 0 0-.364.013l-.184-.46 11.674-4.613c.36-.143.59-.298.69-.465a.59.59 0 0 0 .042-.536l.46-.184 1.336 3.378-.46.184.004.004ZM92.654 23.945a.812.812 0 0 0 .503-.444c.104-.222.2-.469.284-.74l3.336-11.377c.088-.256.168-.49.235-.708.067-.213.092-.393.067-.54-.03-.18-.113-.297-.252-.351a1.684 1.684 0 0 0-.435-.097l-.08-.49 4.592-.736.08.49a2.354 2.354 0 0 0-.356.209c-.117.084-.159.226-.126.423.026.146.08.284.164.418.088.134.213.31.376.523l7.426 10.16a.95.95 0 0 0 .435.376c.168.067.36.13.574.188l.079.49-4.784.766-.08-.49a.687.687 0 0 0 .26-.125c.1-.072.142-.164.125-.272-.029-.18-.138-.406-.33-.67l-1.356-1.846-6.63 1.063-.67 2.085c-.122.41-.168.695-.143.858.034.2.222.272.566.217l.079.49-3.86.62-.079-.49Zm9.439-6.697L99 12.555l-1.746 5.467 4.839-.774ZM119.489 21.229c-.017.33.18.502.582.523l-.025.494-4.236-.197.025-.494a.52.52 0 0 0 .347-.109c.105-.08.159-.2.168-.364l.51-10.941-4.537-.214a.955.955 0 0 0-.49.113c-.159.084-.247.255-.259.51l-.494-.024.18-3.851.494.025c-.013.255.058.435.209.531.151.101.31.151.473.16l12.21.569a.952.952 0 0 0 .489-.113c.159-.084.247-.256.26-.51l.494.024-.18 3.851-.494-.025c.013-.255-.059-.435-.209-.532a.927.927 0 0 0-.473-.159l-4.538-.213-.51 10.946h.004ZM127.965 22.714c.469.096.732-.02.799-.343l2.474-12.252c.067-.322-.134-.531-.603-.628l.097-.485 4.478.904-.096.486c-.469-.097-.732.02-.799.343l-2.474 12.251c-.067.323.134.532.603.628l-.097.486-4.478-.904.096-.486ZM136.575 24.292c.322.13.548.042.67-.263l4.641-11.603c.122-.306.021-.523-.301-.653l.184-.46 4.37 1.75-.184.46c-.138-.055-.239 0-.306.175-.054.138.021.444.226.921l4.287 10.552 3.252-8.128c.121-.306-.038-.549-.481-.724l.184-.46 3.859 1.544-.184.46c-.323-.13-.549-.042-.67.264L151.48 29.73c-.121.305-.021.523.301.653l-.184.46-4.139-1.657.184-.461c.222.088.364.054.423-.096.046-.117-.009-.369-.176-.75l-4.542-11.247-3.394 8.485c-.122.305.012.54.402.695l-.185.46-3.784-1.515.185-.46.004-.005ZM171.567 32.379l-.351-.457a1.15 1.15 0 0 0 .238-.234c.159-.222.168-.523.021-.9-.146-.377-.385-.783-.72-1.214a10.402 10.402 0 0 0-1.184-1.276 14.81 14.81 0 0 0-1.352-1.11 7.42 7.42 0 0 0-1.813-.95 5.33 5.33 0 0 0-1.975-.322c-.662.02-1.31.2-1.947.532-.636.334-1.222.87-1.758 1.615-.527.729-.849 1.453-.967 2.168a4.444 4.444 0 0 0 .101 2.026c.188.632.498 1.223.929 1.77a7.278 7.278 0 0 0 1.473 1.42c.85.61 1.662 1.092 2.441 1.435.778.348 1.465.612 2.059.792l1.386-1.922-2.859-2.059c-.21-.15-.398-.218-.565-.205-.168.012-.377.159-.62.435l-.402-.289 2.06-2.858.402.288c-.155.277-.201.482-.147.624.054.142.188.289.398.44l5.583 4.022-.288.402c-.331-.172-.553-.251-.67-.247-.117.004-.247.105-.385.297l-1.817 2.524c-.109.15-.134.276-.075.385.058.109.121.234.201.381l-.26.356a10.08 10.08 0 0 1-2.164-.268 12.677 12.677 0 0 1-3.876-1.637 40.812 40.812 0 0 1-1.674-1.138c-1.042-.75-1.896-1.566-2.566-2.44-.67-.88-1.122-1.792-1.364-2.746a6.494 6.494 0 0 1-.067-2.897c.196-.975.632-1.938 1.306-2.875.674-.938 1.448-1.654 2.314-2.152a6.688 6.688 0 0 1 2.78-.866c.983-.08 2.005.05 3.059.389 1.055.343 2.102.887 3.144 1.637.653.473 1.247.966 1.779 1.486a22.761 22.761 0 0 1 2.294 2.586c.234.318.389.503.464.557.134.096.26.142.377.134.117-.004.23-.004.335.004l.155.348-3.441 1.996.008.013ZM15.34 78.354c1.432-.38 2.863-.766 4.374-1.168l-1.285-4.721c1.708.477 3.173.883 4.713 1.314.419-1.603.796-3.055 1.235-4.746 1.147 1.297 2.164 2.448 3.437 3.884 1.251-1.436 2.268-2.604 3.42-3.918.447 1.708.824 3.156 1.247 4.767 1.498-.41 2.93-.799 4.646-1.268-.406 1.612-.774 3.077-1.189 4.713 1.528.398 2.964.77 4.76 1.24-1.37 1.058-2.58 1.996-4.09 3.16 1.666 1.373 2.817 2.323 4.332 3.57-2.017.56-3.432.959-5.027 1.402l1.256 4.655c-1.691-.448-3.11-.82-4.68-1.24-.406 1.541-.795 3.035-1.251 4.772-1.139-1.285-2.164-2.448-3.357-3.796a4435.834 4435.834 0 0 1-3.52 3.688c-.407-1.574-.779-3.027-1.206-4.676L18.446 91.3c.435-1.62.82-3.047 1.268-4.704-1.494-.41-2.955-.808-4.863-1.331 1.423-1.147 2.578-2.076 3.963-3.194-1.523-1.293-2.653-2.256-3.788-3.215.105-.167.214-.334.319-.506l-.005.004Zm19.912 3.529c0-4.06-3.303-7.359-7.359-7.359s-7.358 3.303-7.358 7.359 3.302 7.358 7.358 7.358c4.056 0 7.359-3.302 7.359-7.358Zm-1.52 0c0 3.218-2.62 5.839-5.839 5.839a5.847 5.847 0 0 1-5.839-5.84 5.847 5.847 0 0 1 5.84-5.838c3.218 0 5.838 2.62 5.838 5.839ZM197.054 82.138h-7.865l-2.867-3.19h3.93l2.34 2.236h4.462l-.745-.64h-3.026l-1.319-1.315h3.11l-1.234-1.314h-3.11l-3.069-2.91h4.584v-4.223l2.829 2.788v3.508l1.114 1.155v-2.951l1.385 1.385v2.88l.662.662v-5.362l-2.018-2.022v-3.638l2.876 2.876v10.075h-2.039Z" fill="#fff"/><path d="M201.131 82.138h7.865l2.867-3.19h-3.93l-2.34 2.236h-4.462l.745-.64h3.027l1.314-1.315h-3.106l1.235-1.314h3.106l3.068-2.91h-4.579v-4.223l-2.83 2.788v3.508l-1.118 1.155v-2.951l-1.385 1.385v2.88l-.661.662v-5.362l2.021-2.022v-3.638l-2.875 2.876v10.075h2.038Z" fill="#fff"/><path d="M201.131 81.82h7.865l2.867 3.186h-3.93l-2.34-2.231h-4.462l.745.636h3.027l1.314 1.318h-3.106l1.235 1.315h3.106l3.068 2.909h-4.579v4.223l-2.83-2.792v-3.503l-1.118-1.155v2.946l-1.385-1.385v-2.88l-.661-.661v5.366l2.021 2.017v3.638l-2.875-2.872V81.82h2.038Z" fill="#fff"/><path d="M197.054 81.82h-7.865l-2.867 3.186h3.93l2.34-2.231h4.462l-.745.636h-3.026l-1.319 1.318h3.11l-1.234 1.315h-3.11l-3.069 2.909h4.584v4.223l2.829-2.792v-3.503l1.114-1.155v2.946l1.385-1.385v-2.88l.662-.661v5.366l-2.018 2.017v3.638l2.876-2.872V81.82h-2.039Z" fill="#fff"/></svg>